<?xml version="1.0" encoding="utf-8"?>
<!-- Generator: Adobe Illustrator 26.3.1, SVG Export Plug-In . SVG Version: 6.00 Build 0)  -->
<svg version="1.1" id="layer-crab" xmlns="http://www.w3.org/2000/svg" xmlns:xlink="http://www.w3.org/1999/xlink" x="0px" y="0px"
	 viewBox="0 0 260 160" style="enable-background:new 0 0 260 160;" xml:space="preserve">
<style type="text/css">
	.st0{fill:#B49264;}
	.st1{fill:#5FAF54;}
	.st2{fill:#52903A;}
	.st3{fill:#3E752D;}
	.st4{fill:#69BE5C;}
	.st5{fill:#38A047;}
	.st6{fill:#4D9442;}
	.st7{fill:#5EB450;}
	.st8{fill:#745D5C;}
	.st9{fill:#8E857C;}
	.st10{fill:#79706E;}
	.st11{fill:#99C552;}
	.st12{fill:#FFFFFF;}
	.st13{fill:#FDB913;}
	.st14{fill:#F15645;}
	.st15{fill:#F26653;}
	.st16{fill:#DC3D35;}
	.st17{fill:#F47C58;}
	.st18{fill:#FFCC7C;}
	.st19{fill:#231F20;}
</style>
<g id="crab">
	<g id="crab-scene">
		<path class="st0" d="M172.8,159.2h-8.5V84.3c0-4.5-3.7-8.2-8.2-8.2s-8.2,3.7-8.2,8.2v74.9h-8.5V83.7c0-4.2-3.4-7.6-7.6-7.6
			s-7.6,3.4-7.6,7.6v75.5h-8.5v-76c0-4-3.2-7.2-7.2-7.2s-7.2,3.2-7.2,7.2v76h-8.5V84.9c0-4.9-4-8.8-8.8-8.8c-4.9,0-8.8,4-8.8,8.8
			v74.3h-8.5V83.9c0-4.3-3.5-7.8-7.8-7.8s-7.8,3.5-7.8,7.8v75.3h-8.5V83c0-9,7.3-16.3,16.3-16.3h7.8h8.5h17.7h8.5h14.4h8.5h15.2h8.5
			h5.5c10.8,0,19.6,8.8,19.6,19.7L172.8,159.2z"/>
		<path class="st1" d="M59,60.9h-2.8c-5.2,0-9.3-4.2-9.3-9.3V23.5c0-5.2,4.2-9.3,9.3-9.3H59c5.2,0,9.3,4.2,9.3,9.3v28.1
			C68.3,56.7,64.2,60.9,59,60.9"/>
		<path class="st2" d="M147.8,6.5h9.5c4,0,7.2,3.2,7.2,7.2v30.2c0,4-3.2,7.2-7.2,7.2h-9.5c-4,0-7.2-3.2-7.2-7.2V13.7
			C140.7,9.7,143.9,6.5,147.8,6.5"/>
		<path class="st1" d="M84.9,10.5h9.6c5.3,0,9.7,4.3,9.7,9.7v25.6c0,5.4-4.3,9.7-9.7,9.7h-9.6c-5.3,0-9.7-4.3-9.7-9.7V20.2
			C75.2,14.8,79.6,10.5,84.9,10.5"/>
		<path class="st1" d="M168.8,21.7h9.6c5.3,0,9.7,4.3,9.7,9.7V57c0,5.4-4.3,9.7-9.7,9.7h-9.6c-5.3,0-9.7-4.3-9.7-9.7V31.4
			C159.1,26.1,163.5,21.7,168.8,21.7"/>
		<path class="st2" d="M66.9,27.9h4c7.6,0,13.8,7,13.8,15.6v13.6c0,8.6-6.2,15.6-13.8,15.6h-4c-7.6,0-13.8-7-13.8-15.6V43.5
			C53.1,34.9,59.3,27.9,66.9,27.9"/>
		<path class="st2" d="M37.7,23h4c7.6,0,13.8,7,13.8,15.6v13.6c0,8.6-6.2,15.6-13.8,15.6h-4c-7.6,0-13.8-7-13.8-15.6V38.6
			C23.8,30,30,23,37.7,23"/>
		<path class="st3" d="M103,14.6h17.6c7,0,12.8,5.7,12.8,12.8v39c0,7-5.7,12.8-12.8,12.8H103c-7,0-12.8-5.7-12.8-12.8v-39
			C90.2,20.3,95.9,14.6,103,14.6"/>
		<path class="st2" d="M162,21.2h8.2c2.8,0,5.1,2.3,5.1,5.1v51.9c0,2.8-2.3,5.1-5.1,5.1H162c-2.8,0-5.1-2.3-5.1-5.1V26.3
			C156.9,23.5,159.2,21.2,162,21.2"/>
		<path class="st2" d="M78.5,17.9h4.8c3,0,5.4,2.4,5.4,5.4V51c0,3-2.4,5.4-5.4,5.4h-4.8c-3,0-5.4-2.4-5.4-5.4V23.3
			C73.1,20.3,75.5,17.9,78.5,17.9"/>
		<path class="st4" d="M50.1,74.9H47c-4.1,0-7.5-3.4-7.5-7.5v-30c0-4.1,3.4-7.5,7.5-7.5h3.1c4.1,0,7.5,3.4,7.5,7.5v30.1
			C57.6,71.6,54.3,74.9,50.1,74.9"/>
		<path class="st2" d="M102.4,17.1h4.4c2.4,0,4.3,1.9,4.3,4.3v26.7c0,2.4-1.9,4.3-4.3,4.3h-4.4c-2.4,0-4.3-1.9-4.3-4.3V21.4
			C98.1,19.1,100.1,17.1,102.4,17.1"/>
		<path class="st3" d="M168.7,8.5L168.7,8.5c5.5,0,9.9,4.4,9.9,9.8v3.9c0,5.4-4.4,9.8-9.8,9.8h-0.1c-5.4,0-9.8-4.4-9.8-9.8v-3.9
			C158.9,12.9,163.3,8.5,168.7,8.5"/>
		<path class="st3" d="M151.2,32.8h11c5.6,0,10.1,4.5,10.1,10.1v8c0,5.6-4.5,10.1-10.1,10.1h-11c-5.6,0-10.1-4.5-10.1-10.1v-8
			C141.1,37.3,145.6,32.8,151.2,32.8"/>
		<path class="st3" d="M132.3,25.5L132.3,25.5c-5.3,0-9.5-4.3-9.5-9.5v-3c0-5.3,4.3-9.5,9.5-9.5c5.3,0,9.5,4.3,9.5,9.5v3
			C141.9,21.2,137.6,25.5,132.3,25.5"/>
		<path class="st2" d="M134.2,14.8h0.9c5.1,0,9.2,4.1,9.2,9.2v20.5c0,5.1-4.1,9.2-9.2,9.2h-0.9c-5.1,0-9.2-4.1-9.2-9.2V24
			C125,18.9,129.1,14.8,134.2,14.8"/>
		<path class="st4" d="M125.5,38.4L125.5,38.4c3.5,0,6.3,2.8,6.3,6.3v8.8c0,3.5-2.8,6.3-6.3,6.3s-6.3-2.8-6.3-6.3v-8.8
			C119.2,41.3,122,38.4,125.5,38.4"/>
		<path class="st2" d="M66.6,33.1h-9.5c-4,0-7.2,3.2-7.2,7.2v30.2c0,4,3.2,7.2,7.2,7.2h9.5c4,0,7.2-3.2,7.2-7.2V40.2
			C73.8,36.3,70.6,33.1,66.6,33.1"/>
		<path class="st2" d="M129.5,37h-9.6c-5.3,0-9.7,4.3-9.7,9.7v25.6c0,5.4,4.3,9.7,9.7,9.7h9.6c5.3,0,9.7-4.3,9.7-9.7V46.7
			C139.2,41.4,134.9,37,129.5,37"/>
		<path class="st1" d="M45.6,37H36c-5.3,0-9.7,4.3-9.7,9.7v25.6c0,5.4,4.3,9.7,9.7,9.7h9.6c5.3,0,9.7-4.3,9.7-9.7V46.7
			C55.3,41.4,51,37,45.6,37"/>
		<path class="st3" d="M147.5,54.5h-4c-7.6,0-13.8,7-13.8,15.6v13.6c0,8.6,6.2,15.6,13.8,15.6h4c7.6,0,13.8-7,13.8-15.6V70.1
			C161.3,61.5,155.1,54.5,147.5,54.5"/>
		<path class="st3" d="M176.8,38.1h-4c-7.6,0-13.8,7-13.8,15.6v13.6c0,8.6,6.2,15.6,13.8,15.6h4c7.6,0,13.8-7,13.8-15.6V53.7
			C190.6,45.1,184.4,38.1,176.8,38.1"/>
		<path class="st3" d="M111.5,41.2H93.9c-7,0-12.8,5-12.8,11.1v34c0,6.1,5.7,11.1,12.8,11.1h17.6c7,0,12.8-5,12.8-11.1v-34
			C124.2,46.1,118.5,41.2,111.5,41.2"/>
		<path class="st2" d="M52.4,33.1h-8.2c-2.8,0-5.1,2.3-5.1,5.1V90c0,2.8,2.3,5.1,5.1,5.1h8.2c2.8,0,5.1-2.3,5.1-5.1V38.1
			C57.5,35.3,55.2,33.1,52.4,33.1"/>
		<path class="st3" d="M135.9,44.5h-4.8c-3,0-5.4,2.4-5.4,5.4v27.7c0,3,2.4,5.4,5.4,5.4h4.8c3,0,5.4-2.4,5.4-5.4V49.9
			C141.3,46.9,138.9,44.5,135.9,44.5"/>
		<path class="st3" d="M164.3,101.5h3.1c4.1,0,7.5-3.4,7.5-7.5V64c0-4.1-3.4-7.5-7.5-7.5h-3.1c-4.1,0-7.5,3.4-7.5,7.5v30
			C156.8,98.1,160.2,101.5,164.3,101.5"/>
		<path class="st3" d="M112,43.7h-4.4c-2.4,0-4.3,1.9-4.3,4.3v26.7c0,2.4,1.9,4.3,4.3,4.3h4.4c2.4,0,4.3-1.9,4.3-4.3V48
			C116.3,45.6,114.4,43.7,112,43.7"/>
		<path class="st3" d="M45.5,27.9L45.5,27.9c-6.9,0-12.4,5.5-12.4,12.3v4.9c0,6.8,5.5,12.3,12.3,12.3h0.1c6.8,0,12.3-5.5,12.3-12.3
			v-4.9C57.8,33.5,52.3,27.9,45.5,27.9"/>
		<path class="st3" d="M75.3,59.3h-23c-5.6,0-10.1,4.5-10.1,10.1v8c0,5.6,4.5,10.1,10.1,10.1h23c5.6,0,10.1-4.5,10.1-10.1v-8
			C85.4,63.9,80.9,59.3,75.3,59.3"/>
		<path class="st2" d="M155.4,80.1h2.8c5.2,0,9.3-4.2,9.3-9.3V42.6c0-5.2-4.2-9.3-9.3-9.3h-2.8c-5.2,0-9.3,4.2-9.3,9.3v28.1
			C146.1,75.9,150.3,80.1,155.4,80.1"/>
		<path class="st3" d="M82.1,52L82.1,52c5.3,0,9.5-4.3,9.5-9.5v-3c0-5.3-4.3-9.5-9.5-9.5c-5.3,0-9.5,4.3-9.5,9.5v3
			C72.6,47.8,76.8,52,82.1,52"/>
		<path class="st2" d="M80.3,41.4h-0.9c-5.1,0-9.2,4.1-9.2,9.2v20.5c0,5.1,4.1,9.2,9.2,9.2h0.9c5.1,0,9.2-4.1,9.2-9.2V50.6
			C89.5,45.5,85.4,41.4,80.3,41.4"/>
		<path class="st3" d="M89,65L89,65c-3.5,0-6.3,2.8-6.3,6.3V80c0,3.5,2.8,6.3,6.3,6.3s6.3-2.8,6.3-6.3v-8.8C95.2,67.8,92.4,65,89,65
			"/>
		<rect x="210.9" y="154" transform="matrix(0.3871 -0.922 0.922 0.3871 -9.9341 293.4985)" class="st5" width="9.8" height="0.5"/>
		<rect x="213.1" y="143.5" class="st6" width="0.9" height="15.4"/>
		
			<rect x="211.2" y="149.3" transform="matrix(0.922 -0.3871 0.3871 0.922 -43.2169 93.8729)" class="st5" width="0.5" height="9.8"/>
		
			<rect x="207.4" y="145.7" transform="matrix(0.7071 -0.7071 0.7071 0.7071 -47.6305 191.8858)" class="st6" width="0.9" height="15.4"/>
		
			<rect x="211.5" y="153" transform="matrix(0.7071 -0.7071 0.7071 0.7071 -44.3339 199.9591)" class="st6" width="15.4" height="0.9"/>
		<rect x="242.5" y="154" transform="matrix(0.3871 -0.922 0.922 0.3871 9.4146 322.6756)" class="st5" width="9.8" height="0.5"/>
		<rect x="244.8" y="143.5" class="st6" width="0.9" height="15.4"/>
		
			<rect x="242.8" y="149.3" transform="matrix(0.922 -0.3871 0.3871 0.922 -40.7584 106.1075)" class="st5" width="0.5" height="9.8"/>
		<path class="st6" d="M238.6,149.5c0.5,1.2,1.9,1.8,3.1,1.3c1.2-0.5,1.8-1.9,1.3-3.1c-0.5-1.2-3.2-7.6-5.4-6.7
			C235.2,141.9,238.1,148.3,238.6,149.5"/>
		<path class="st7" d="M237.5,141l4.1,9.8c-1.2,0.5-2.6-0.1-3.1-1.3C238.1,148.3,235.2,141.9,237.5,141"/>
		<path class="st8" d="M84.1,159.2h50.6v-44.4c0-7.9-6.4-14.3-14.3-14.3H98.5c-7.9,0-14.3,6.4-14.3,14.3L84.1,159.2L84.1,159.2z"/>
		<path class="st9" d="M101.9,159.2h85.7v-22.9c0-10.8-8.8-19.6-19.6-19.6h-46.5c-10.8,0-19.6,8.8-19.6,19.6V159.2z"/>
		<path class="st8" d="M174.8,159.2h30.4v-6.6c0-5.7-4.6-10.3-10.3-10.3h-9.8c-5.7,0-10.3,4.6-10.3,10.3L174.8,159.2L174.8,159.2z"
			/>
		<path class="st10" d="M61.7,159.2h23.4v-2.7c0-5.7-4.6-10.3-10.3-10.3H72c-5.7,0-10.3,4.6-10.3,10.3V159.2z"/>
		<path class="st10" d="M172.8,159.2H102v-22.9c0-10.8,8.8-19.6,19.6-19.6h8.8l1.3,1.3L172.8,159.2z"/>
		<path class="st11" d="M228.7,149.2c-1.5,1.5-3.8,1.5-5.3,0s-1.5-3.8,0-5.3s9.2-9.2,11.8-6.5C238.1,140.2,230.2,147.8,228.7,149.2"
			/>
		<path class="st7" d="M235.3,137.4l-11.8,11.8c1.5,1.5,3.8,1.5,5.3,0C230.2,147.8,238.1,140.2,235.3,137.4"/>
		<path class="st12" d="M94.9,57.1L94.9,57.1c0,0,0.1-0.5,0.2-1.1c0.2-1.1-1.2-3.3-3.4-3.8l0,0c0,0-0.1,0.5-0.2,1.1
			C91.2,54.4,92.6,56.6,94.9,57.1"/>
		<path class="st12" d="M86.8,55.4L86.8,55.4c0,0,0.1-0.5,0.2-1.1c0.2-1.1,2.4-2.5,4.7-2.1l0,0c0,0-0.1,0.5-0.2,1.1
			C91.2,54.4,89,55.8,86.8,55.4"/>
		<path class="st12" d="M96.6,49L96.6,49c0,0-0.1,0.5-0.2,1.1c-0.2,1.1-2.4,2.5-4.7,2.1l0,0c0,0,0.1-0.5,0.2-1.1
			C92.2,49.9,94.3,48.5,96.6,49"/>
		<path class="st12" d="M88.5,47.3L88.5,47.3c0,0-0.1,0.5-0.2,1.1c-0.2,1.1,1.2,3.3,3.4,3.8l0,0c0,0,0.1-0.5,0.2-1.1
			C92.1,49.9,90.7,47.8,88.5,47.3"/>
		<path class="st13" d="M91.2,53c0.5,0.2,1,0.1,1.3-0.4s0.1-1-0.4-1.3c-0.5-0.2-1-0.1-1.3,0.4C90.6,52.2,90.7,52.8,91.2,53"/>
		<path class="st12" d="M105.5,54.4L105.5,54.4c0,0,0.1-0.5,0.2-1.1c0.2-1.1-1.2-3.3-3.4-3.8l0,0c0,0-0.1,0.5-0.2,1.1
			C101.8,51.7,103.3,53.9,105.5,54.4"/>
		<path class="st12" d="M97.4,52.7L97.4,52.7c0,0,0.1-0.5,0.2-1.1c0.2-1.1,2.4-2.5,4.7-2.1l0,0c0,0-0.1,0.5-0.2,1.1
			C101.8,51.7,99.6,53.1,97.4,52.7"/>
		<path class="st12" d="M107.2,46.3L107.2,46.3c0,0-0.1,0.5-0.2,1.1c-0.2,1.1-2.4,2.5-4.7,2.1l0,0c0,0,0.1-0.5,0.2-1.1
			C102.8,47.2,105,45.8,107.2,46.3"/>
		<path class="st12" d="M99.1,44.6L99.1,44.6c0,0-0.1,0.5-0.2,1.1c-0.2,1.1,1.2,3.3,3.4,3.8l0,0c0,0,0.1-0.5,0.2-1.1
			C102.8,47.2,101.4,45.1,99.1,44.6"/>
		<path class="st13" d="M101.8,50.3c0.5,0.2,1,0.1,1.3-0.4s0.1-1-0.4-1.3c-0.5-0.2-1-0.1-1.3,0.4C101.2,49.5,101.4,50.1,101.8,50.3"
			/>
		<path class="st12" d="M101.3,42L101.3,42c0,0-0.3-0.4-0.6-1c-0.6-1-3.2-1.6-5.1-0.3l0,0c0,0,0.3,0.4,0.6,1
			C96.8,42.6,99.3,43.2,101.3,42"/>
		<path class="st12" d="M94.3,46.4L94.3,46.4c0,0-0.3-0.4-0.6-1c-0.6-1,0-3.5,1.9-4.7l0,0c0,0,0.3,0.4,0.6,1
			C96.8,42.6,96.2,45.1,94.3,46.4"/>
		<path class="st12" d="M96.9,35L96.9,35c0,0,0.3,0.4,0.6,1c0.6,1,0,3.5-1.9,4.7l0,0c0,0-0.3-0.4-0.6-1C94.4,38.7,95,36.2,96.9,35"
			/>
		<path class="st12" d="M89.9,39.4L89.9,39.4c0,0,0.3,0.4,0.6,1c0.6,1,3.2,1.6,5.1,0.3l0,0c0,0-0.3-0.4-0.6-1
			C94.4,38.7,91.8,38.1,89.9,39.4"/>
		<path class="st13" d="M95.8,41.6c0.5-0.1,0.8-0.7,0.7-1.2c-0.1-0.5-0.7-0.8-1.2-0.7s-0.8,0.7-0.7,1.2
			C94.8,41.4,95.3,41.7,95.8,41.6"/>
		<path class="st7" d="M252,149.5c-0.5,1.2-1.9,1.8-3.1,1.3c-1.2-0.5-1.8-1.9-1.3-3.1c0.5-1.2,3.2-7.6,5.4-6.7
			C255.3,141.9,252.5,148.3,252,149.5"/>
		<path class="st11" d="M217.3,141.5c0,2.1-1.7,3.7-3.7,3.7c-2.1,0-3.7-1.7-3.7-3.7s0-13,3.7-13
			C217.6,128.5,217.3,139.5,217.3,141.5"/>
		<path class="st7" d="M213.6,128.5v16.7c2.1,0,3.7-1.7,3.7-3.7S217.6,128.5,213.6,128.5"/>
		<path class="st7" d="M220.3,149.5c-0.5,1.2-1.9,1.8-3.1,1.3c-1.2-0.5-1.8-1.9-1.3-3.1c0.5-1.2,3.2-7.6,5.4-6.7
			C223.7,141.9,220.9,148.3,220.3,149.5"/>
		<path class="st6" d="M221.4,141l-4.1,9.8c1.2,0.5,2.6-0.1,3.1-1.3S223.7,141.9,221.4,141"/>
		<path class="st7" d="M198.4,149.2c1.5,1.5,3.8,1.5,5.3,0s1.5-3.8,0-5.3s-9.2-9.2-11.8-6.5C189,140.2,196.9,147.8,198.4,149.2"/>
		<path class="st11" d="M191.8,137.4l11.8,11.8c-1.5,1.5-3.8,1.5-5.3,0C196.9,147.8,189,140.2,191.8,137.4"/>
		
			<rect x="239" y="145.7" transform="matrix(0.7071 -0.7071 0.7071 0.7071 -38.3211 214.2753)" class="st6" width="0.9" height="15.4"/>
		
			<rect x="243.2" y="153" transform="matrix(0.7071 -0.7071 0.7071 0.7071 -35.0216 222.3467)" class="st6" width="15.4" height="0.9"/>
	</g>
	<g id="crab-animal">
		<polygon class="st14" points="158.4,97.8 112.3,89.7 120.5,101.7 145.3,114 		"/>
		<polygon class="st14" points="163.3,98.7 158.4,97.8 161.5,108.9 164,104.1 		"/>
		<path class="st15" d="M114,79.4c5.6,1,9.4,6.4,8.4,12l-5.4,0.8l-4.8-2.6L114,79.4z"/>
		<path class="st15" d="M175.3,90.2c-5.6-1-11,2.8-12,8.4l4.7,3.1l5.5-1.3L175.3,90.2z"/>
		<path class="st14" d="M120.7,101.7c-5.6-1-9.4-6.4-8.4-12l10.2,1.8L120.7,101.7z"/>
		<path class="st16" d="M161.5,108.9c-2,11.3-12.8,18.9-24.1,16.9s-18.9-12.8-16.9-24.1L161.5,108.9z"/>
		<path class="st14" d="M181.9,112.5c-1,5.7-6.4,9.4-12.1,8.4c-5.7-1-9.4-6.4-8.4-12.1L181.9,112.5z"/>
		<path class="st13" d="M178.3,133c-5.7-1-9.5-6.4-8.5-12.1s6.4-9.5,12.1-8.5L178.3,133z"/>
		<path class="st17" d="M180.1,122.8l1.8-10.3c-5.7-1-11.1,2.8-12.1,8.4l0,0L180.1,122.8z"/>
		<path class="st14" d="M100,98c-1,5.7,2.8,11.1,8.5,12.1s11.1-2.8,12.1-8.5L100,98z"/>
		<path class="st13" d="M96.3,118.6c5.7,1,11.1-2.8,12.1-8.4c1-5.7-2.8-11.1-8.5-12.1L96.3,118.6z"/>
		<path class="st18" d="M178.9,69.7l-0.8,4.3l0,0c-1.4-0.2-2.8,0.7-3,2.1s0.7,2.8,2.1,3l0,0l-0.3,1.7l0,0c-1.4-0.2-2.8,0.7-3,2.1
			s0.7,2.8,2.1,3l-0.8,4.3c-5.7-1-9.4-6.4-8.4-12.1C167.8,72.5,173.2,68.7,178.9,69.7"/>
		<path class="st13" d="M178.9,87.7c0.8,1.2,2.4,1.5,3.6,0.6c1.2-0.8,1.5-2.4,0.6-3.6l1.4-1c0.8,1.2,2.4,1.5,3.6,0.6
			c1.2-0.8,1.5-2.4,0.6-3.6l3.6-2.5c3.3,4.7,2.2,11.2-2.6,14.5c-4.7,3.3-11.2,2.2-14.5-2.6L178.9,87.7z"/>
		<path class="st18" d="M114.8,75.1c1.4,0.2,2.7-0.7,3-2.1c0.2-1.4-0.7-2.8-2.1-3l0,0l0.3-1.7l0,0c1.4,0.2,2.7-0.7,3-2.1
			c0.2-1.4-0.7-2.8-2.1-3l0,0l0.8-4.3c5.7,1,9.5,6.4,8.5,12.1c-1,5.7-6.4,9.5-12.1,8.5L114.8,75.1z"/>
		<path class="st13" d="M102.1,62.4l2.5,3.6c-1.2,0.8-1.5,2.4-0.6,3.6c0.8,1.2,2.4,1.5,3.6,0.6l1,1.4c-1.2,0.8-1.5,2.4-0.6,3.6
			c0.8,1.2,2.4,1.5,3.6,0.6l2.5,3.6c-4.7,3.3-11.2,2.2-14.5-2.6C96.2,72.2,97.4,65.7,102.1,62.4"/>
		<path class="st15" d="M171.7,110.7c-1,5.7-6.4,9.4-12.1,8.4c-5.7-1-9.4-6.4-8.4-12.1l4.5-1.9l5.9,3.8L171.7,110.7z"/>
		<path class="st13" d="M168.1,131.2c-5.7-1-9.5-6.4-8.5-12.1s6.4-9.5,12.1-8.5L168.1,131.2z"/>
		<path class="st15" d="M110.4,99.9c-1,5.7,2.8,11.1,8.5,12.1s11.1-2.8,12.1-8.5l-5.7-2.3l-4.5,0.5L110.4,99.9z"/>
		<path class="st13" d="M106.6,120.4c5.7,1,11.1-2.8,12.1-8.4c1-5.7-2.8-11.1-8.5-12.1L106.6,120.4z"/>
		<path class="st17" d="M161.5,108.9c2-11.3-5.6-22.1-16.9-24.1l-4.8,20.2L161.5,108.9z"/>
		<path class="st15" d="M144.6,84.8c-11.3-2-22.1,5.6-24.1,16.9l20.3,4.9L144.6,84.8z"/>
		<path class="st14" d="M130.8,103.5c-1,5.6,2.8,11,8.4,12c5.6,1,11-2.8,12-8.4s-2.8-11-8.4-12C137.1,94.1,131.7,97.9,130.8,103.5"
			/>
		<path class="st19" d="M155.4,87.4c1.8,0.3,3.5-0.9,3.8-2.6c0.3-1.8-0.9-3.5-2.6-3.8c-1.8-0.3-3.5,0.9-3.8,2.6
			C152.5,85.4,153.6,87.1,155.4,87.4"/>
		<path class="st19" d="M133.5,83.6c1.8,0.3,3.5-0.9,3.8-2.6c0.3-1.8-0.9-3.5-2.6-3.8c-1.8-0.3-3.5,0.9-3.8,2.6
			C130.6,81.6,131.7,83.3,133.5,83.6"/>
		<path class="st17" d="M169.9,121l1.8-10.3c-5.7-1-11.1,2.8-12.1,8.4l0,0L169.9,121z"/>
		<path class="st17" d="M108.4,110.1l1.8-10.3c5.7,1,9.4,6.4,8.5,12.1l0,0L108.4,110.1z"/>
		<path class="st17" d="M98.2,108.3L100,98c5.7,1,9.4,6.4,8.5,12.1l0,0L98.2,108.3z"/>
		<path class="st12" d="M133,79.8c0.8,0.1,1.6-0.4,1.7-1.2s-0.4-1.6-1.2-1.7s-1.6,0.4-1.7,1.2C131.7,78.9,132.2,79.7,133,79.8"/>
		<path class="st12" d="M154.6,83.7c0.8,0.1,1.6-0.4,1.7-1.2s-0.4-1.6-1.2-1.7s-1.6,0.4-1.7,1.2C153.3,82.8,153.8,83.5,154.6,83.7"
			/>
		<path class="st14" d="M161.5,108.9c5.6,1,11-2.8,12-8.4l-10.2-1.8L161.5,108.9z"/>
	</g>
</g>
</svg>
