<?xml version="1.0" encoding="utf-8"?>
<!-- Generator: Adobe Illustrator 26.3.1, SVG Export Plug-In . SVG Version: 6.00 Build 0)  -->
<svg version="1.1" id="layer-hart" xmlns="http://www.w3.org/2000/svg" xmlns:xlink="http://www.w3.org/1999/xlink" x="0px" y="0px"
	 viewBox="0 0 260 160" style="enable-background:new 0 0 260 160;" xml:space="preserve">
<style type="text/css">
	.st0{fill:#959C3B;}
	.st1{fill:#54651C;}
	.st2{fill:#FFC907;}
	.st3{fill:#C97945;}
	.st4{fill:#DD9628;}
	.st5{fill:#9C502C;}
	.st6{fill:#FFDA8B;}
	.st7{fill:#FFFFFF;}
	.st8{fill:#231F20;}
	.st9{fill:none;stroke:#231F20;stroke-width:0.79;stroke-linecap:round;}
	.st10{fill:#5F2900;}
</style>
<g>
	<g id="hart-scene">
		<path class="st0" d="M125,145.6c0-30.9,5.8-58.8,15-78.8c9.2,20,14.9,47.9,15,78.8H125z"/>
		<path class="st1" d="M108.3,145.6c0-28.5,5.3-54.3,13.8-72.7c8.5,18.5,13.8,44.2,13.8,72.7H108.3z"/>
		<path class="st1" d="M145.4,145.6c0-19.7,3.7-37.5,9.6-50.3c5.9,12.8,9.5,30.6,9.6,50.3H145.4z"/>
		<path class="st0" d="M53.4,145.6C53.3,105.4,45.8,69.1,33.9,43c-12,26.1-19.4,62.4-19.5,102.6H53.4z"/>
		<path class="st1" d="M75.1,145.6c-0.1-37.1-6.9-70.6-18-94.7c-11,24.1-17.9,57.6-18,94.7H75.1z"/>
		<path class="st1" d="M26.8,145.6c0-25.7-4.8-48.9-12.4-65.5C6.8,96.8,2,119.9,2,145.6H26.8z"/>
		<path class="st1" d="M96.2,145.6c0-25.8-4.8-49.2-12.5-65.9c-7.7,16.8-12.5,40.1-12.5,65.9H96.2z"/>
		<path class="st0" d="M110.1,145.6c0-23.8-4.5-45.4-11.6-60.8c-7.1,15.5-11.5,37-11.6,60.8H110.1z"/>
		<path class="st0" d="M79.1,145.6c0-16.5-3.1-31.4-8-42.1c-4.9,10.7-8,25.6-8,42.1H79.1z"/>
		<path class="st2" d="M36.5,125.1L36.5,125.1c0,0-0.2-0.7-0.5-1.6c-0.5-1.6-4-3.4-7.3-2.4l0,0c0,0,0.2,0.7,0.5,1.6
			C29.8,124.4,33.3,126.2,36.5,125.1"/>
		<path class="st2" d="M24.7,129L24.7,129c0,0-0.2-0.7-0.5-1.6c-0.5-1.6,1.3-5.1,4.5-6.2l0,0c0,0,0.2,0.7,0.5,1.6
			C29.7,124.4,28,127.9,24.7,129"/>
		<path class="st2" d="M32.7,113.3L32.7,113.3c0,0,0.2,0.7,0.5,1.6c0.5,1.6-1.3,5.1-4.5,6.2l0,0c0,0-0.2-0.7-0.5-1.6
			C27.6,117.9,29.4,114.4,32.7,113.3"/>
		<path class="st2" d="M20.9,117.1L20.9,117.1c0,0,0.2,0.7,0.5,1.6c0.5,1.6,4,3.4,7.3,2.4l0,0c0,0-0.2-0.7-0.5-1.6
			C27.6,117.9,24.1,116.1,20.9,117.1"/>
		<path class="st2" d="M23.8,114.5L23.8,114.5c0,0,0-0.8-0.1-1.7c-0.1-1.7-2.9-4.4-6.4-4.3l0,0c0,0,0,0.8,0.1,1.7
			C17.5,111.9,20.4,114.6,23.8,114.5"/>
		<path class="st2" d="M11.4,114.9L11.4,114.9c0,0,0-0.8-0.1-1.7c-0.1-1.7,2.6-4.6,6.1-4.7l0,0c0,0,0,0.8,0.1,1.7
			C17.5,111.9,14.8,114.8,11.4,114.9"/>
		<path class="st2" d="M23.4,102.1L23.4,102.1c0,0,0,0.8,0.1,1.7c0.1,1.7-2.6,4.6-6.1,4.7l0,0c0,0,0-0.8-0.1-1.7
			C17.2,105.1,19.9,102.2,23.4,102.1"/>
		<path class="st2" d="M10.9,102.5L10.9,102.5c0,0,0,0.8,0.1,1.7c0.1,1.7,2.9,4.4,6.4,4.3l0,0c0,0,0-0.8-0.1-1.7
			C17.2,105.1,14.4,102.4,10.9,102.5"/>
		<path class="st2" d="M23,126.5L23,126.5c0,0-0.4-0.6-1-1.4c-1-1.4-4.9-2-7.7,0l0,0c0,0,0.5,0.6,1,1.4
			C16.3,128,20.2,128.6,23,126.5"/>
		<path class="st2" d="M12.9,133.9L12.9,133.9c0,0-0.5-0.6-1-1.4c-1-1.4-0.4-5.3,2.4-7.3l0,0c0,0,0.5,0.6,1,1.4
			C16.3,128,15.7,131.8,12.9,133.9"/>
		<path class="st2" d="M15.7,116.5L15.7,116.5c0,0,0.5,0.6,1,1.4c1,1.4,0.4,5.3-2.4,7.3l0,0c0,0-0.5-0.6-1-1.4
			C12.3,122.4,12.9,118.5,15.7,116.5"/>
		<path class="st2" d="M5.6,123.8L5.6,123.8c0,0,0.4,0.6,1,1.4c1,1.4,4.9,2,7.7,0l0,0c0,0-0.5-0.6-1-1.4
			C12.3,122.4,8.4,121.8,5.6,123.8"/>
		<g>
			<path class="st0" d="M221.8,145.3c-0.1-37.5-7-71.3-18.2-95.6c-11.2,24.3-18.1,58.1-18.2,95.6H221.8z"/>
			<path class="st1" d="M242.1,145.3c-0.1-34.6-6.5-65.8-16.8-88.2c-10.3,22.4-16.7,53.7-16.8,88.2H242.1z"/>
			<path class="st1" d="M197.1,145.3c0-23.9-4.5-45.5-11.6-61c-7.1,15.5-11.6,37.1-11.6,61H197.1z"/>
			<path class="st0" d="M258,145.3c0-16.5-3.1-31.4-8-42.1c-4.9,10.7-8,25.6-8,42.1H258z"/>
			<path class="st2" d="M219.7,101.7L219.7,101.7c0,0-0.2-0.7-0.5-1.6c-0.5-1.6-4-3.4-7.2-2.3l0,0c0,0,0.2,0.7,0.5,1.6
				C213,101,216.4,102.8,219.7,101.7"/>
			<path class="st2" d="M208,105.5L208,105.5c0,0-0.2-0.7-0.5-1.6c-0.5-1.6,1.2-5.1,4.5-6.1l0,0c0,0,0.2,0.7,0.5,1.6
				C213,101,211.2,104.5,208,105.5"/>
			<path class="st2" d="M215.9,90L215.9,90c0,0,0.2,0.7,0.5,1.6c0.5,1.6-1.2,5.1-4.5,6.1l0,0c0,0-0.2-0.7-0.5-1.6
				C210.9,94.6,212.6,91.1,215.9,90"/>
			<path class="st2" d="M204.2,93.8L204.2,93.8c0,0,0.2,0.7,0.5,1.6c0.5,1.6,4,3.4,7.2,2.3l0,0c0,0-0.2-0.7-0.5-1.6
				C210.9,94.6,207.4,92.8,204.2,93.8"/>
			<path class="st2" d="M207.1,91.2L207.1,91.2c0,0,0-0.8-0.1-1.7c-0.1-1.7-2.9-4.3-6.3-4.2l0,0c0,0,0,0.8,0.1,1.7
				C200.8,88.7,203.7,91.3,207.1,91.2"/>
			<path class="st2" d="M194.8,91.6L194.8,91.6c0,0,0-0.8-0.1-1.7c-0.1-1.7,2.6-4.5,6-4.7l0,0c0,0,0,0.8,0.1,1.7
				C200.8,88.7,198.2,91.5,194.8,91.6"/>
			<path class="st2" d="M206.6,78.9L206.6,78.9c0,0,0,0.8,0.1,1.7c0.1,1.7-2.6,4.5-6,4.7l0,0c0,0,0-0.8-0.1-1.7
				C200.6,81.9,203.2,79,206.6,78.9"/>
			<path class="st2" d="M194.3,79.4L194.3,79.4c0,0,0,0.8,0.1,1.7c0.1,1.7,2.9,4.3,6.3,4.2l0,0c0,0,0-0.8-0.1-1.7
				C200.6,81.9,197.7,79.2,194.3,79.4"/>
			<path class="st2" d="M206.3,103.1L206.3,103.1c0,0-0.4-0.6-1-1.4c-1-1.4-4.8-2-7.6,0l0,0c0,0,0.4,0.6,1,1.4
				C199.7,104.5,203.5,105.1,206.3,103.1"/>
			<path class="st2" d="M196.3,110.4L196.3,110.4c0,0-0.4-0.6-1-1.4c-1-1.4-0.4-5.2,2.4-7.2l0,0c0,0,0.4,0.6,1,1.4
				C199.7,104.5,199.1,108.4,196.3,110.4"/>
			<path class="st2" d="M199.1,93.2L199.1,93.2c0,0,0.4,0.6,1,1.4c1,1.4,0.4,5.2-2.4,7.2l0,0c0,0-0.4-0.6-1-1.4
				C195.7,99,196.3,95.2,199.1,93.2"/>
			<path class="st2" d="M189.1,100.4L189.1,100.4c0,0,0.4,0.6,1,1.4c1,1.4,4.8,2,7.6,0l0,0c0,0-0.4-0.6-1-1.4
				C195.7,99,191.8,98.4,189.1,100.4"/>
		</g>
	</g>
	<g id="hart-animal">
		<polygon class="st3" points="160.4,93.8 177.1,145.2 177.1,79.5 		"/>
		<rect x="117.7" y="65.8" class="st4" width="38.4" height="10.3"/>
		<path class="st5" d="M101.9,77.1c7.5,0,13.5-5,13.5-11.2h-27C88.4,72.1,94.5,77.1,101.9,77.1"/>
		<path class="st4" d="M118.5,98.1c-7.1,0-12.9-4.8-12.9-10.7c0-5.9,5.8-10.7,12.9-10.7V65.8c-14.4,0-26.1,9.7-26.1,21.6
			s11.7,21.6,26.1,21.6V98.1z"/>
		<polygon class="st3" points="115.8,103.8 134,145.6 135.9,103.8 		"/>
		<path class="st6" d="M116.6,76.1c-9.2,0-16.6,6.2-16.6,13.8v14.3h68.5V76.1H116.6z"/>
		<path class="st7" d="M124.3,95c0-2,1.6-3.6,3.6-3.6h20.6c2,0,3.6,1.6,3.6,3.6v9.3h-27.8V95z"/>
		<path class="st6" d="M154.7,103.4c-1.1,0.4,13.8,41.8,13.8,41.8v-41.4L154.7,103.4z"/>
		<polygon class="st6" points="124.3,103.8 102.3,145.6 100,103.8 		"/>
		<path class="st6" d="M154.9,47.2v12.6l0,0v44.5c12.3,0,22.2-12.8,22.2-28.5C177.1,60,167.2,47.2,154.9,47.2"/>
		<path class="st5" d="M148.7,9.3c-0.8,0.1-1.2,1.3-1,2.5l5.7,32.3l2.8-0.5l-5.7-32.3C150.3,10.1,149.5,9.2,148.7,9.3"/>
		<path class="st5" d="M153.6,31.5l-4.8-4.7c-0.7-0.7-1.8-0.8-2.3-0.3c-0.6,0.6-0.4,1.6,0.3,2.3l4.8,4.7c0.7,0.7,1.8,0.8,2.3,0.3
			C154.5,33.3,154.3,32.2,153.6,31.5"/>
		<path class="st5" d="M151.8,20.9l-6.8-6.8c-0.7-0.7-1.8-0.9-2.3-0.3c-0.6,0.6-0.4,1.6,0.3,2.3l6.8,6.8c0.7,0.7,1.8,0.9,2.3,0.3
			C152.6,22.7,152.5,21.7,151.8,20.9"/>
		<path class="st5" d="M172.3,9.3c0.8,0.1,1.2,1.3,1,2.5l-5.7,32.3l-2.8-0.5l5.7-32.3C170.8,10.1,171.6,9.2,172.3,9.3"/>
		<path class="st5" d="M167.4,31.5l4.8-4.7c0.7-0.7,1.8-0.8,2.3-0.3c0.6,0.6,0.4,1.6-0.3,2.3l-4.8,4.7c-0.7,0.7-1.8,0.8-2.3,0.3
			C166.5,33.3,166.7,32.2,167.4,31.5"/>
		<path class="st5" d="M169.3,20.9l6.8-6.8c0.7-0.7,1.8-0.9,2.3-0.3c0.6,0.6,0.4,1.6-0.3,2.3l-6.8,6.8c-0.7,0.7-1.8,0.9-2.3,0.3
			C168.4,22.7,168.5,21.7,169.3,20.9"/>
		<path class="st3" d="M143.7,44.7c-3.1-3.1-3.1-8.2,0-11.4l11.4,11.4C151.9,47.9,146.8,47.9,143.7,44.7"/>
		<path class="st6" d="M144.8,44.1c-2.2-2.2-2.2-5.7,0-7.8l7.8,7.8C150.5,46.2,147,46.2,144.8,44.1"/>
		<path class="st3" d="M177.3,44.7c3.1-3.1,3.1-8.2,0-11.4l-11.4,11.4C169.1,47.9,174.2,47.9,177.3,44.7"/>
		<path class="st6" d="M176.2,44.1c2.2-2.2,2.2-5.7,0-7.8l-7.8,7.8C170.5,46.2,174,46.2,176.2,44.1"/>
		<path class="st3" d="M168.9,42.6h-15.2c-3.2,0-5.3,4.3-3.6,7.7l7.6,16c1.6,3.4,5.7,3.4,7.3,0l7.6-16
			C174.2,46.9,172.2,42.6,168.9,42.6"/>
		<path class="st4" d="M165.2,50.3h-7.7c-1.6,0-2.7,2.4-1.8,4.4l3.8,9.1c0.8,1.9,2.9,1.9,3.7,0l3.8-9.1
			C167.8,52.7,166.8,50.3,165.2,50.3"/>
		<path class="st7" d="M157,65l0.7,1.4c1.6,3.4,5.7,3.4,7.3,0l0.7-1.4H157z"/>
		<path class="st8" d="M162.9,63.7h-3.2c-0.7,0-1.1,0.5-0.8,0.9l1.6,1.9c0.3,0.4,1.2,0.4,1.6,0l1.6-1.9
			C164.1,64.2,163.6,63.7,162.9,63.7"/>
		<path class="st9" d="M166,50.9c0,0,2.2-4,5.4-0.9l0.6-0.1"/>
		<path class="st10" d="M168.7,49.2c1.4,0,2.5,1.1,2.5,2.5s-1.1,2.5-2.5,2.5s-2.5-1.1-2.5-2.5S167.3,49.2,168.7,49.2"/>
		<path class="st8" d="M169,53.3c-1,0-1.8-0.8-1.8-1.8c0-1,0.8-1.8,1.8-1.8s1.8,0.8,1.8,1.8C170.8,52.5,170,53.3,169,53.3"/>
		<path class="st7" d="M170.1,51.6c-0.5,0-1-0.4-1-1c0-0.5,0.4-1,1-1c0.5,0,1,0.4,1,1C171.1,51.1,170.7,51.6,170.1,51.6"/>
		<path class="st9" d="M156.6,50.9c0,0-2.2-4-5.4-0.9l-0.6-0.1"/>
		<path class="st10" d="M153.8,49.2c-1.4,0-2.5,1.1-2.5,2.5s1.1,2.5,2.5,2.5s2.5-1.1,2.5-2.5C156.4,50.3,155.2,49.2,153.8,49.2"/>
		<path class="st8" d="M153.5,53.2c1,0,1.8-0.8,1.8-1.8c0-1-0.8-1.8-1.8-1.8s-1.8,0.8-1.8,1.8C151.7,52.4,152.5,53.2,153.5,53.2"/>
		<path class="st7" d="M152.4,51.6c0.5,0,1-0.4,1-1c0-0.5-0.4-1-1-1c-0.5,0-1,0.4-1,1C151.5,51.1,151.9,51.6,152.4,51.6"/>
	</g>
</g>
</svg>
