<?xml version="1.0" encoding="utf-8"?>
<!-- Generator: Adobe Illustrator 26.4.1, SVG Export Plug-In . SVG Version: 6.00 Build 0)  -->
<svg version="1.1" id="Layer_1" xmlns="http://www.w3.org/2000/svg" xmlns:xlink="http://www.w3.org/1999/xlink" x="0px" y="0px"
	 viewBox="0 0 24 24" style="enable-background:new 0 0 24 24;" xml:space="preserve">
<style type="text/css">
	.st0{fill:#FFFFFF;}
</style>
<g>
	<path class="st0" d="M12,15.6l3.6-3.6L12,8.4l-1.1,1.1l1.9,1.9H8.2v1.5h4.6l-1.9,1.9L12,15.6z M12,22c-1.4,0-2.6-0.2-3.9-0.8
		c-1.2-0.5-2.3-1.2-3.2-2.1s-1.6-2-2.2-3.2S2,13.4,2,12c0-1.4,0.2-2.7,0.8-3.9S4,5.8,4.9,4.9s1.9-1.6,3.2-2.2S10.6,2,12,2
		c1.4,0,2.7,0.2,3.9,0.8S18.2,4,19,4.9c0.9,0.9,1.6,1.9,2.1,3.2C21.7,9.3,22,10.6,22,12c0,1.4-0.2,2.6-0.8,3.9
		c-0.5,1.2-1.2,2.3-2.1,3.2c-0.9,0.9-2,1.6-3.2,2.1C14.7,21.8,13.4,22,12,22z M12,20.5c2.4,0,4.4-0.9,6-2.5c1.6-1.6,2.5-3.6,2.5-6
		S19.7,7.6,18,5.9c-1.6-1.6-3.7-2.5-6-2.5S7.6,4.3,6,5.9S3.5,9.6,3.5,12s0.8,4.4,2.5,6S9.6,20.5,12,20.5z"/>
</g>
</svg>
