<?xml version="1.0" encoding="utf-8"?>
<!-- Generator: Adobe Illustrator 26.3.1, SVG Export Plug-In . SVG Version: 6.00 Build 0)  -->
<svg version="1.1" id="layer-flog" xmlns="http://www.w3.org/2000/svg" xmlns:xlink="http://www.w3.org/1999/xlink" x="0px" y="0px"
	 viewBox="0 0 260 160" style="enable-background:new 0 0 260 160;" xml:space="preserve">
<style type="text/css">
	.st0{fill:#5AB547;}
	.st1{fill:#72C05B;}
	.st2{fill:#597F38;}
	.st3{fill:#48B749;}
	.st4{fill:#0A6069;}
	.st5{fill:#28B457;}
	.st6{fill:#67C189;}
	.st7{fill:#F5822B;}
	.st8{fill:#FAB393;}
	.st9{fill:#F04E23;}
	.st10{fill:#F2665C;}
	.st11{fill:#2BB783;}
	.st12{fill:#08876D;}
	.st13{fill:#72341F;}
	.st14{fill:#894C35;}
	.st15{fill:#408630;}
	.st16{fill:#77AD37;}
	.st17{fill:#ADCD33;}
	.st18{fill:#FFFFFF;}
	.st19{fill:#231F20;}
	.st20{fill:#FDB913;}
	.st21{fill:#FFF33E;}
	.st22{fill:#139E49;}
</style>
<g id="flog">
	<g>
		<g>
			<path class="st0" d="M156.5,106c6.2,0,11.2,5,11.2,11.2V153h-22.5v-35.8C145.3,111,150.3,106,156.5,106"/>
			<path class="st1" d="M178.9,91.2L178.9,91.2c6.2,0,11.2,5,11.2,11.2V153h-22.5v-50.5C167.7,96.3,172.7,91.2,178.9,91.2"/>
			<path class="st0" d="M201.3,76.7c6.2,0,11.2,5,11.2,11.2V153H190V87.9C190.1,81.7,195.1,76.7,201.3,76.7"/>
			<path class="st2" d="M201.3,104c2.3,0,4.1,1.9,4.1,4.1V153h-8.3v-44.9C197.2,105.8,199.1,104,201.3,104"/>
			<path class="st3" d="M179.7,117.2c2.3,0,4.1,1.9,4.1,4.1V153h-8.3v-31.7C175.6,119,177.4,117.2,179.7,117.2"/>
			<path class="st2" d="M156.5,125.5c2.3,0,4.1,1.9,4.1,4.1V153h-8.3v-23.4C152.4,127.4,154.2,125.5,156.5,125.5"/>
			<path class="st4" d="M227.5,67.5c0,0-6.3-3.2-10-9.6s-3.3-13.5-3.3-13.5s6.3,3.2,10,9.6S227.5,67.5,227.5,67.5"/>
			<path class="st5" d="M226.1,56.4l0.1-2h0.1l1.6-2h-19l0,0c-1.1,0-2.1-0.4-2.8-1.2c-0.8-0.8-1.2-1.8-1.2-2.8V43h-4v5.5
				c0,2.1,0.8,4.1,2.3,5.7c1.5,1.5,3.5,2.3,5.6,2.3l0,0C223.5,56.3,225.8,56.4,226.1,56.4"/>
			<path class="st4" d="M227.2,43.6c0,0,6.3-3.2,10-9.6s3.3-13.5,3.3-13.5s-6.3,3.2-10,9.6S227.2,43.6,227.2,43.6"/>
			<rect x="224.3" y="43" class="st6" width="4" height="58.8"/>
			<g>
				<path class="st7" d="M218,19.5h16.6c1.5,0,2.7,1.2,2.7,2.7s-1.2,2.7-2.7,2.7H218c-1.5,0-2.7-1.2-2.7-2.7S216.6,19.5,218,19.5"/>
				<path class="st8" d="M234.6,19.5c1.5,0,2.7,1.2,2.7,2.7s-1.2,2.7-2.7,2.7h-8.3v-5.3h8.3V19.5z"/>
				<path class="st9" d="M234.7,24.8v5.9c0,4.7-3.8,8.4-8.4,8.4c-4.7,0-8.4-3.8-8.4-8.4v-5.9H234.7z"/>
				<path class="st10" d="M226.3,24.8h8.4v5.9c0,4.7-3.8,8.4-8.4,8.4V24.8z"/>
				<path class="st11" d="M246.6,36c0,0-10.6,5.4-16.8,16.1s-5.5,22.6-5.5,22.6s10.6-5.4,16.8-16.1C247.3,48,246.6,36,246.6,36"/>
				<path class="st12" d="M246.6,36l-22.3,38.6c0,0,10.6-5.4,16.8-16.1C247.3,48,246.6,36,246.6,36"/>
				<path class="st11" d="M206,4c0,0,10.6,5.4,16.8,16.1s5.5,22.6,5.5,22.6s-10.6-5.4-16.8-16.1C205.4,15.9,206,4,206,4"/>
				<path class="st12" d="M206,4l22.3,38.6c0,0-10.6-5.4-16.8-16.1C205.4,15.9,206,4,206,4"/>
				<path class="st7" d="M196.7,34.9h12.4c1.1,0,2,0.9,2,2s-0.9,2-2,2h-12.4c-1.1,0-2-0.9-2-2C194.7,35.8,195.6,34.9,196.7,34.9"/>
				<path class="st8" d="M209.1,34.9c1.1,0,2,0.9,2,2s-0.9,2-2,2h-6.2v-4H209.1z"/>
				<path class="st9" d="M209.2,38.9v4.4c0,3.5-2.8,6.3-6.3,6.3s-6.3-2.8-6.3-6.3v-4.4H209.2z"/>
				<path class="st10" d="M202.9,38.9h6.3v4.4c0,3.5-2.8,6.3-6.3,6.3V38.9z"/>
				<path class="st5" d="M231.2,71.1c0,2.6-2.1,4.6-4.6,4.6c-2.6,0-4.6-2.1-4.6-4.6H231.2z"/>
				<path class="st5" d="M231.2,40.5c0,2.6-2.1,4.6-4.6,4.6c-2.6,0-4.6-2.1-4.6-4.6H231.2z"/>
				<path class="st0" d="M246.2,106c6.2,0,11.2,5,11.2,11.2V153h-22.5v-35.8C234.9,111,240,106,246.2,106"/>
				<path class="st2" d="M246.5,125.5c2.3,0,4.1,1.9,4.1,4.1V153h-8.3v-23.4C242.4,127.4,244.2,125.5,246.5,125.5"/>
				<path class="st1" d="M223.8,91.3c6.2,0,11.2,5,11.2,11.2V153h-22.5v-50.5C212.5,96.3,217.5,91.3,223.8,91.3"/>
				<path class="st3" d="M223.3,117.2c2.3,0,4.1,1.9,4.1,4.1V153h-8.3v-31.7C219.2,119,221,117.2,223.3,117.2"/>
			</g>
		</g>
		<path class="st0" d="M106.6,106.2c6.2,0,11.2,5,11.2,11.2V153H95.4v-35.6C95.4,111.2,100.5,106.2,106.6,106.2"/>
		<path class="st0" d="M17.4,106.2c6.2,0,11.2,5,11.2,11.2V153H6.2v-35.6C6.2,111.2,11.3,106.2,17.4,106.2"/>
		<path class="st1" d="M84.3,91.5c6.2,0,11.2,5,11.2,11.2V153H73.1v-50.3C73.1,96.6,78.2,91.5,84.3,91.5"/>
		<path class="st1" d="M39.7,91.5L39.7,91.5c6.2,0,11.2,5,11.2,11.2V153H28.5v-50.3C28.5,96.6,33.6,91.5,39.7,91.5"/>
		<path class="st0" d="M62,77c6.2,0,11.2,5,11.2,11.2V153H50.8V88.2C50.8,82,55.9,77,62,77"/>
		<path class="st2" d="M62,104.2c2.3,0,4.1,1.8,4.1,4.1V153h-8.2v-44.7C57.9,106,59.8,104.2,62,104.2"/>
		<path class="st3" d="M40.5,117.3c2.3,0,4.1,1.8,4.1,4.1V153h-8.2v-31.6C36.4,119.2,38.3,117.3,40.5,117.3"/>
		<path class="st2" d="M17.4,125.7c2.3,0,4.1,1.8,4.1,4.1V153h-8.2v-23.3C13.3,127.5,15.2,125.7,17.4,125.7"/>
		<path class="st3" d="M83.9,117.3c2.3,0,4.1,1.8,4.1,4.1V153h-8.2v-31.6C79.8,119.2,81.6,117.3,83.9,117.3"/>
		<path class="st2" d="M107,125.7c2.3,0,4.1,1.8,4.1,4.1V153h-8.2v-23.3C102.9,127.5,104.7,125.7,107,125.7"/>
	</g>
	<g id="rock">
		<path class="st13" d="M134.9,157.6v-55.9l0,0c27.4,0,49.6,25,49.6,55.9l0,0H134.9z"/>
		<path class="st14" d="M135.4,157.6v-55.9l0,0c-27.4,0-49.6,25-49.6,55.9l0,0H135.4z"/>
		<path class="st13" d="M87.4,157.6v-26l0,0c12.8,0,23.1,11.7,23.1,26l0,0H87.4z"/>
		<path class="st14" d="M87.8,157.6v-26l0,0c-12.8,0-23.1,11.7-23.1,26l0,0H87.8z"/>
	</g>
	<g id="flog-animal">
		<path class="st15" d="M156.7,83.3L156.7,83.3C154.9,70.7,138.9,62.5,121,65c-18,2.5-31.1,14.8-29.3,27.4l0,0L156.7,83.3z"/>
		<path class="st15" d="M175.9,88.4L175.9,88.4c-5.3-9.3-20.3-10.8-33.6-3.3s-19.8,21.1-14.5,30.5l0,0L175.9,88.4z"/>
		<path class="st15" d="M165.9,77.4c-4.2,0.6-8-2.3-8.6-6.5s2.3-8,6.5-8.6s8,2.3,8.6,6.5S170.1,76.8,165.9,77.4"/>
		<path class="st15" d="M126.5,96.3c-4.2,0.6-8-2.3-8.6-6.5s2.3-8,6.5-8.6c4.2-0.6,8,2.3,8.6,6.5C133.6,91.8,130.7,95.7,126.5,96.3"
			/>
		<path class="st16" d="M113.8,118.5c-4.2,0.6-8-2.3-8.6-6.5s2.3-8,6.5-8.6s8,2.3,8.6,6.5C120.9,114,118,117.9,113.8,118.5"/>
		<path class="st16" d="M160.6,109.7c0.2,1.5-0.8,2.9-2.4,3.1l-48.9,6.9c-1.5,0.2-2.9-0.8-3.1-2.4c-0.2-1.5,0.8-2.9,2.4-3.1
			l48.9-6.9C159,107.1,160.4,108.2,160.6,109.7"/>
		<path class="st16" d="M175.2,106.5c0.1,0.9-0.5,1.7-1.4,1.8l-19.7,2.8c-0.9,0.1-1.7-0.5-1.8-1.4s0.5-1.7,1.4-1.8l19.7-2.8
			C174.2,105,175,105.6,175.2,106.5"/>
		<path class="st16" d="M159.2,109c0.9-0.1,1.7,0.5,1.8,1.4l2,14.6c0.1,0.9-0.5,1.7-1.4,1.8c-0.9,0.1-1.7-0.5-1.8-1.4l-2-14.6
			C157.7,110,158.3,109.1,159.2,109"/>
		<path class="st16" d="M158.4,108.3c0.5-0.8,1.5-1,2.2-0.5l11.9,7.4c0.8,0.5,1,1.5,0.5,2.2c-0.5,0.8-1.5,1-2.2,0.5l-11.9-7.4
			C158.2,110.1,158,109.1,158.4,108.3"/>
		<path class="st17" d="M180.2,90L180.2,90c-1.6-15.5-14.2-27-28-25.5s-23.7,15.2-22.1,30.8l0,0L180.2,90z"/>
		<path class="st18" d="M156.8,85.8c-4.1,0.6-7.8-2.3-8.4-6.3c-0.6-4.1,2.3-7.8,6.3-8.4c4.1-0.6,7.8,2.3,8.4,6.3
			C163.8,81.5,160.9,85.3,156.8,85.8"/>
		<path class="st19" d="M156.4,83c-2.5,0.4-4.8-1.4-5.2-3.9s1.4-4.8,3.9-5.2c2.5-0.4,4.8,1.4,5.2,3.9C160.7,80.3,159,82.6,156.4,83"
			/>
		<path class="st18" d="M154.3,78.1c-0.9,0.1-1.7-0.5-1.8-1.5c-0.1-0.9,0.5-1.8,1.3-1.9c0.9-0.1,1.7,0.5,1.8,1.5
			C155.8,77.1,155.2,78,154.3,78.1"/>
		<path class="st16" d="M139,99.7L139,99.7c1.5-4-1.7-8.9-7.2-11s-11.1-0.6-12.7,3.4l0,0L139,99.7z"/>
		
			<rect x="117.1" y="93.2" transform="matrix(0.3584 -0.9336 0.9336 0.3584 -15.9829 184.2877)" class="st16" width="18" height="21.2"/>
		<g>
			<path class="st16" d="M132.9,115.7L132.9,115.7c-1.5,4-7.2,5.5-12.7,3.4s-8.7-7-7.2-11l0,0L132.9,115.7z"/>
			<path class="st17" d="M127.8,118.9c0.2,1.5-0.8,2.9-2.4,3.1l-26.6,3.7c-1.5,0.2-2.9-0.8-3.1-2.4c-0.2-1.5,0.8-2.9,2.4-3.1
				l26.6-3.7C126.1,116.4,127.5,117.4,127.8,118.9"/>
			<path class="st17" d="M142.6,115.7c0.1,0.9-0.5,1.7-1.4,1.8l-19.7,2.8c-0.9,0.1-1.7-0.5-1.8-1.4s0.5-1.7,1.4-1.8l19.7-2.8
				C141.6,114.2,142.4,114.8,142.6,115.7"/>
			<path class="st17" d="M126.6,118c0.9-0.1,1.7,0.5,1.8,1.4l2,14.6c0.1,0.9-0.5,1.7-1.4,1.8s-1.7-0.5-1.8-1.4l-2-14.6
				C125.1,119,125.7,118.2,126.6,118"/>
			<path class="st17" d="M125.8,117.3c0.5-0.8,1.5-1,2.2-0.5l11.9,7.4c0.8,0.5,1,1.5,0.5,2.2c-0.5,0.8-1.5,1-2.2,0.5l-11.9-7.4
				C125.6,119.1,125.3,118.1,125.8,117.3"/>
			<path class="st20" d="M146,120.6c-2.7,0.4-5.1-1.5-5.5-4.2s1.5-5.1,4.2-5.5s5.1,1.5,5.5,4.2C150.5,117.7,148.7,120.2,146,120.6"
				/>
			<path class="st20" d="M142,133.1c-2.7,0.4-5.1-1.5-5.5-4.2s1.5-5.1,4.2-5.5s5.1,1.5,5.5,4.2C146.5,130.2,144.6,132.7,142,133.1"
				/>
			<path class="st20" d="M130.1,140.3c-2.7,0.4-5.1-1.5-5.5-4.2s1.5-5.1,4.2-5.5s5.1,1.5,5.5,4.2C134.6,137.5,132.7,140,130.1,140.3
				"/>
			<path class="st20" d="M178,111.2c-2.7,0.4-5.1-1.5-5.5-4.2s1.5-5.1,4.2-5.5s5.1,1.5,5.5,4.2C182.6,108.3,180.7,110.8,178,111.2"
				/>
			<path class="st20" d="M174.5,124.2c-2.7,0.4-5.1-1.5-5.5-4.2s1.5-5.1,4.2-5.5s5.1,1.5,5.5,4.2C179,121.4,177.1,123.9,174.5,124.2
				"/>
			<path class="st20" d="M161.9,130.9c-2.7,0.4-5.1-1.5-5.5-4.2s1.5-5.1,4.2-5.5s5.1,1.5,5.5,4.2C166.4,128,164.6,130.5,161.9,130.9
				"/>
			<path class="st17" d="M119.7,91.2L119.7,91.2c2.6-6.7-1.8-14.6-9.8-17.7s-16.6-0.1-19.1,6.6l0,0L119.7,91.2z"/>
		</g>
		
			<rect x="84.9" y="83.5" transform="matrix(0.3584 -0.9336 0.9336 0.3584 -28.118 157.0479)" class="st17" width="30.5" height="31"/>
		<path class="st17" d="M109.4,118.1L109.4,118.1c-2.6,6.7-11.1,9.7-19.1,6.6s-12.4-11-9.8-17.7l0,0L109.4,118.1z"/>
		<path class="st21" d="M107.3,86.7c-2.4,0.3-4.5-1.3-4.9-3.7c-0.3-2.4,1.3-4.5,3.7-4.9c2.4-0.3,4.5,1.3,4.9,3.7
			C111.3,84.1,109.6,86.3,107.3,86.7"/>
		<path class="st15" d="M109.7,94.1c-1.3,0.2-2.5-0.7-2.7-2s0.7-2.5,2-2.7s2.5,0.7,2.7,2C111.9,92.8,111,94,109.7,94.1"/>
		<path class="st17" d="M127.6,72c-1.3,0.2-2.5-0.7-2.7-2s0.7-2.5,2-2.7c1.3-0.2,2.5,0.7,2.7,2C129.8,70.6,128.9,71.8,127.6,72"/>
		<path class="st16" d="M125.7,80c-1.1,0.2-2.2-0.6-2.3-1.8c-0.2-1.1,0.6-2.2,1.8-2.3c1.1-0.2,2.2,0.6,2.3,1.8
			C127.6,78.8,126.8,79.9,125.7,80"/>
		<path class="st16" d="M118.1,72.6c-0.9,0.1-1.7-0.5-1.8-1.4c-0.1-0.9,0.5-1.8,1.4-1.9s1.7,0.5,1.8,1.4
			C119.6,71.6,119,72.5,118.1,72.6"/>
		<path class="st15" d="M97.3,87.3c-1,0.1-1.9-0.6-2.1-1.6c-0.1-1,0.6-1.9,1.6-2.1c1-0.1,1.9,0.6,2.1,1.6
			C99,86.2,98.4,87.1,97.3,87.3"/>
		<path class="st22" d="M97.9,92.8c-0.6,0.1-1.1-0.3-1.2-0.9s0.3-1.1,0.9-1.2s1.1,0.3,1.2,0.9C98.9,92.2,98.5,92.7,97.9,92.8"/>
		<path class="st16" d="M91.6,94c-0.6,0.1-1.1-0.3-1.2-0.9s0.3-1.1,0.9-1.2s1.1,0.3,1.2,0.9C92.5,93.4,92.1,93.9,91.6,94"/>
		<path class="st16" d="M103.1,91.7c-0.9,0.1-1.6-0.5-1.8-1.3c-0.1-0.9,0.5-1.6,1.3-1.8c0.9-0.1,1.6,0.5,1.8,1.3
			C104.6,90.8,104,91.6,103.1,91.7"/>
		<path class="st16" d="M103.9,97.4c-0.7,0.1-1.4-0.4-1.5-1.1s0.4-1.4,1.1-1.5s1.4,0.4,1.5,1.1S104.6,97.3,103.9,97.4"/>
	</g>
</g>
</svg>
