<?xml version="1.0" encoding="utf-8"?>
<!-- Generator: Adobe Illustrator 26.3.1, SVG Export Plug-In . SVG Version: 6.00 Build 0)  -->
<svg version="1.1" id="layer-arara" xmlns="http://www.w3.org/2000/svg" xmlns:xlink="http://www.w3.org/1999/xlink" x="0px"
	 y="0px" viewBox="0 0 260 160" style="enable-background:new 0 0 260 160;" xml:space="preserve">
<style type="text/css">
	.st0{clip-path:url(#SVGID_00000079479174968515885830000007171602330378554808_);fill:#007531;}
	.st1{clip-path:url(#SVGID_00000068671159188053979500000009580251345197219457_);fill:#139E49;}
	.st2{clip-path:url(#SVGID_00000157279133604797363190000006724701068851515022_);fill:#007531;}
	.st3{clip-path:url(#SVGID_00000170241742596164455950000001134926446631823759_);fill:#139E49;}
	.st4{clip-path:url(#SVGID_00000031192913577590230480000011369803300489850278_);fill:#007531;}
	.st5{clip-path:url(#SVGID_00000018947664560840347190000002230979894844746128_);fill:#139E49;}
	.st6{clip-path:url(#SVGID_00000068636556512604190360000015266024844382128005_);fill:#007531;}
	.st7{clip-path:url(#SVGID_00000152987129971568391370000003348056055473458574_);fill:#139E49;}
	.st8{clip-path:url(#SVGID_00000114042803782987839890000013263355619495710399_);fill:#007531;}
	.st9{clip-path:url(#SVGID_00000077300152717527519640000015497202614347780273_);fill:#139E49;}
	.st10{clip-path:url(#SVGID_00000078017510439347667660000000584563167511063195_);fill:#007531;}
	.st11{clip-path:url(#SVGID_00000036963874115904892340000011699095070885392308_);fill:#139E49;}
	.st12{clip-path:url(#SVGID_00000078030037506988085380000011957470490756128956_);fill:#007531;}
	.st13{clip-path:url(#SVGID_00000090253209824675803540000002646365849198722220_);fill:#139E49;}
	.st14{clip-path:url(#SVGID_00000029017739364850281530000009045743076674437816_);fill:#007531;}
	.st15{clip-path:url(#SVGID_00000111176495008936673050000001553589133391633081_);fill:#139E49;}
	.st16{clip-path:url(#SVGID_00000027597065957213179700000005346359324791339946_);fill:#72341F;}
	.st17{clip-path:url(#SVGID_00000020373373930779608000000008943851918599169953_);fill:#894C35;}
	.st18{clip-path:url(#SVGID_00000151528187301538398690000016409086986211087261_);fill:#FFC907;}
	.st19{clip-path:url(#SVGID_00000077323601721496434390000002309438771070434718_);fill:#FFC907;}
	.st20{clip-path:url(#SVGID_00000026140506715155185660000015819336539105676172_);fill:#FFC907;}
	.st21{clip-path:url(#SVGID_00000178925730443624282910000012338909335859323066_);fill:#FFC907;}
	.st22{clip-path:url(#SVGID_00000158711359265570542850000016338588401755570845_);fill:#FFC907;}
	.st23{clip-path:url(#SVGID_00000048496669379724723640000008548090121261446287_);fill:#FFC907;}
	.st24{clip-path:url(#SVGID_00000065794961851877969980000003294643505715326618_);fill:#FFC907;}
	.st25{clip-path:url(#SVGID_00000149357307989865194200000010704174761824850320_);fill:#FFC907;}
	.st26{clip-path:url(#SVGID_00000172400414811363241850000005496105494843171731_);fill:#FFC907;}
	.st27{clip-path:url(#SVGID_00000133519304544265523130000016907369196578089862_);fill:#FFC907;}
	.st28{clip-path:url(#SVGID_00000080186779548224570600000012977810839311106715_);fill:#FFC907;}
	.st29{clip-path:url(#SVGID_00000044178950002958066640000005310863612636469911_);fill:#FFC907;}
	.st30{fill:#0069B5;}
	.st31{clip-path:url(#SVGID_00000078766888443742123960000000276134388225493122_);fill:#0056A7;}
	.st32{fill:#0056A7;}
	.st33{clip-path:url(#SVGID_00000020368989761365431840000013806190102047761797_);fill:#F05159;}
	.st34{clip-path:url(#SVGID_00000119798868477157643660000014440139832626073998_);fill:#00B9F2;}
	.st35{clip-path:url(#SVGID_00000008850846166245096720000005147260348883997364_);fill:#00B9F2;}
	.st36{clip-path:url(#SVGID_00000163761678352976974840000004154746575678647695_);fill:#00AEEF;}
	.st37{clip-path:url(#SVGID_00000178168134007102911700000007903811120492163740_);fill:#00AEEF;}
	.st38{clip-path:url(#SVGID_00000013897579335849207450000003966877144414733203_);fill:#0095DA;}
	.st39{clip-path:url(#SVGID_00000159429998903055057500000015203763992422473625_);fill:#FFC907;}
	.st40{clip-path:url(#SVGID_00000103225432462461308740000013179513169794307751_);fill:#FFC907;}
	.st41{clip-path:url(#SVGID_00000003080543370998544210000001826346330750049167_);fill:#FCB24C;}
	.st42{clip-path:url(#SVGID_00000062156951877036788160000014953544803909786503_);fill:#2B2A38;}
	.st43{clip-path:url(#SVGID_00000026132873137865843550000006195502998753041325_);fill:#FFC907;}
	.st44{clip-path:url(#SVGID_00000076581561682154690550000001562741836523913628_);fill:#ED1C24;}
	.st45{fill:#F05159;}
	.st46{clip-path:url(#SVGID_00000023242125619486852950000016035871838777365426_);fill:#FFFFFF;}
	.st47{clip-path:url(#SVGID_00000109009905286205140320000006321254950712849283_);fill:#3B9ED8;}
	.st48{clip-path:url(#SVGID_00000002362909473188205130000008143341209832751255_);fill:#231F20;}
	.st49{clip-path:url(#SVGID_00000039129232426306497680000015608399514571496080_);fill:#FFFFFF;}
	.st50{clip-path:url(#SVGID_00000121269043208154707940000006681660356321895817_);fill:#ED1C24;}
	.st51{clip-path:url(#SVGID_00000105397281771010085310000005576311055609772196_);fill:#F05159;}
	.st52{clip-path:url(#SVGID_00000070807552980559929910000005666895659394776229_);fill:#F16261;}
	.st53{clip-path:url(#SVGID_00000057859812969481723640000004876062020429678508_);fill:#F26B69;}
	.st54{clip-path:url(#SVGID_00000036960956587900740220000006733645723348296611_);fill:#F16261;}
	.st55{clip-path:url(#SVGID_00000050643878964955914490000011144932220515767205_);fill:#894C35;}
</style>
<g id="arara">
	<g>
		<g id="arara-galho">
			<g>
				<defs>
					<rect id="SVGID_1_" x="0.4" y="8.8" width="259.6" height="142.5"/>
				</defs>
				<clipPath id="SVGID_00000032640733251158389300000008812669958599365556_">
					<use xlink:href="#SVGID_1_"  style="overflow:visible;"/>
				</clipPath>
				<path style="clip-path:url(#SVGID_00000032640733251158389300000008812669958599365556_);fill:#007531;" d="M146.6,26.5
					L146.6,26.5c0,0,3.7,0.7,8.2,1.5c22,4.1,41.9,33.1,36.3,63.2l0,0c0,0-3.7-0.7-8.2-1.5C160.9,85.6,141,56.7,146.6,26.5"/>
			</g>
			<g>
				<defs>
					<rect id="SVGID_00000124841837904452959370000001703165852975215752_" x="0.4" y="8.8" width="259.6" height="142.5"/>
				</defs>
				<clipPath id="SVGID_00000160169976851102196030000012400323027090417065_">
					<use xlink:href="#SVGID_00000124841837904452959370000001703165852975215752_"  style="overflow:visible;"/>
				</clipPath>
				<path style="clip-path:url(#SVGID_00000160169976851102196030000012400323027090417065_);fill:#139E49;" d="M146.4,26.8
					c-0.1,0-0.1,0-0.1,0l0,0l0,0c0,0-0.7,3.7-1.5,8.2c-4.1,22,15.8,50.9,37.8,55c4.5,0.8,8.2,1.5,8.2,1.5l0,0c0-0.1,0-0.1,0-0.2
					c0,0-2.1-3.1-4.7-6.9L146.4,26.8z"/>
			</g>
			<g>
				<defs>
					<rect id="SVGID_00000041992960294740436030000006599343157128138120_" x="0.4" y="8.8" width="259.6" height="142.5"/>
				</defs>
				<clipPath id="SVGID_00000058591270342736764110000002716177002977627309_">
					<use xlink:href="#SVGID_00000041992960294740436030000006599343157128138120_"  style="overflow:visible;"/>
				</clipPath>
				<path style="clip-path:url(#SVGID_00000058591270342736764110000002716177002977627309_);fill:#007531;" d="M190.1,89.4
					L190.1,89.4c0,0,3.6,1.1,8,2.4c21.4,6.3,52.3-10.5,61-39.9l0,0c0,0-3.6-1.1-8-2.4C229.7,43.2,198.8,60,190.1,89.4"/>
			</g>
			<g>
				<defs>
					<rect id="SVGID_00000175314031595897687440000001491094337846952621_" x="0.4" y="8.8" width="259.6" height="142.5"/>
				</defs>
				<clipPath id="SVGID_00000150072164890553847380000000721457724815068071_">
					<use xlink:href="#SVGID_00000175314031595897687440000001491094337846952621_"  style="overflow:visible;"/>
				</clipPath>
				<path style="clip-path:url(#SVGID_00000150072164890553847380000000721457724815068071_);fill:#139E49;" d="M190,89.1h-0.1l0,0
					l0,0c0,0,1.1-3.6,2.4-8c6.3-21.4,37.2-38.2,58.7-31.9c4.4,1.3,8,2.4,8,2.4l0,0c0,0.1-0.1,0.1-0.1,0.2c0,0-3.3,1.8-7.3,4
					L190,89.1z"/>
			</g>
			<g>
				<defs>
					<rect id="SVGID_00000038397852213349556490000001455141064424891580_" x="0.4" y="8.8" width="259.6" height="142.5"/>
				</defs>
				<clipPath id="SVGID_00000165950871580256961220000013886352330168694713_">
					<use xlink:href="#SVGID_00000038397852213349556490000001455141064424891580_"  style="overflow:visible;"/>
				</clipPath>
				<path style="clip-path:url(#SVGID_00000165950871580256961220000013886352330168694713_);fill:#007531;" d="M208.9,12.3
					L208.9,12.3c0,0,2,3.1,4.5,7c12,18.8,4.4,53.2-21.5,69.7l0,0c0,0-2-3.1-4.5-7C175.4,63.1,183,28.8,208.9,12.3"/>
			</g>
			<g>
				<defs>
					<rect id="SVGID_00000108294238792097522780000015022024426003451060_" x="0.4" y="8.8" width="259.6" height="142.5"/>
				</defs>
				<clipPath id="SVGID_00000172421839417539042450000015075211151252236217_">
					<use xlink:href="#SVGID_00000108294238792097522780000015022024426003451060_"  style="overflow:visible;"/>
				</clipPath>
				<path style="clip-path:url(#SVGID_00000172421839417539042450000015075211151252236217_);fill:#139E49;" d="M208.5,12.3
					c0,0,0-0.1-0.1-0.1l0,0l0,0c0,0-3.2,2-7,4.5c-18.8,12-26.5,46.3-14.5,65.2c2.5,3.9,4.5,7,4.5,7l0,0c0.1,0,0.1-0.1,0.2-0.1
					c0,0,0.8-3.7,1.8-8.2L208.5,12.3z"/>
			</g>
			<g>
				<defs>
					<rect id="SVGID_00000180364440921956584320000018111882721772069821_" x="0.4" y="8.8" width="259.6" height="142.5"/>
				</defs>
				<clipPath id="SVGID_00000120559898534146943010000002914375845045068972_">
					<use xlink:href="#SVGID_00000180364440921956584320000018111882721772069821_"  style="overflow:visible;"/>
				</clipPath>
				<path style="clip-path:url(#SVGID_00000120559898534146943010000002914375845045068972_);fill:#007531;" d="M226.7,87.5
					L226.7,87.5c0,0,2.8,0.6,6.2,1.3c16.5,3.5,31,25.9,26.2,48.6l0,0c0,0-2.8-0.6-6.2-1.3C236.3,132.5,221.9,110.2,226.7,87.5"/>
			</g>
			<g>
				<defs>
					<rect id="SVGID_00000023275161330060788540000004526936764470558139_" x="0.4" y="8.8" width="259.6" height="142.5"/>
				</defs>
				<clipPath id="SVGID_00000117645871491756382010000016681876057023278751_">
					<use xlink:href="#SVGID_00000023275161330060788540000004526936764470558139_"  style="overflow:visible;"/>
				</clipPath>
				<path style="clip-path:url(#SVGID_00000117645871491756382010000016681876057023278751_);fill:#139E49;" d="M226.5,87.7
					C226.5,87.7,226.4,87.6,226.5,87.7c-0.1,0-0.1,0-0.1,0l0,0c0,0-0.6,2.8-1.3,6.2c-3.5,16.5,11,38.9,27.5,42.4
					c3.4,0.7,6.2,1.3,6.2,1.3l0,0c0-0.1,0-0.1,0-0.1s-1.5-2.4-3.4-5.3L226.5,87.7z"/>
			</g>
			<g>
				<defs>
					<rect id="SVGID_00000058556206650063885420000014560028368760318865_" x="0.4" y="8.8" width="259.6" height="142.5"/>
				</defs>
				<clipPath id="SVGID_00000169541190631823311890000009795883562806518926_">
					<use xlink:href="#SVGID_00000058556206650063885420000014560028368760318865_"  style="overflow:visible;"/>
				</clipPath>
				<path style="clip-path:url(#SVGID_00000169541190631823311890000009795883562806518926_);fill:#007531;" d="M218,144.2
					C218.1,144.2,218.1,144.2,218,144.2c0,0,2.2-1.7,5-3.9c13.2-10.5,16.2-37,1.8-55.2l0,0c0,0-2.2,1.8-4.9,3.9
					C206.6,99.6,203.6,126,218,144.2"/>
			</g>
			<g>
				<defs>
					<rect id="SVGID_00000100378545780404334460000003803435483084838558_" x="0.4" y="8.8" width="259.6" height="142.5"/>
				</defs>
				<clipPath id="SVGID_00000060026685766408645560000015567121444961945785_">
					<use xlink:href="#SVGID_00000100378545780404334460000003803435483084838558_"  style="overflow:visible;"/>
				</clipPath>
				<path style="clip-path:url(#SVGID_00000060026685766408645560000015567121444961945785_);fill:#139E49;" d="M217.8,144.1
					L217.8,144.1C217.7,144.2,217.7,144.2,217.8,144.1C217.7,144.2,217.7,144.2,217.8,144.1c-0.1,0.1-1.9-2.2-4-4.9
					c-10.5-13.2-7.5-39.7,5.7-50.2c2.7-2.2,4.9-3.9,4.9-3.9l0,0l0.1,0.1c0,0-0.3,2.8-0.7,6.3L217.8,144.1z"/>
			</g>
			<g>
				<defs>
					<rect id="SVGID_00000061459803711454768560000006092948098701510055_" x="0.4" y="8.8" width="259.6" height="142.5"/>
				</defs>
				<clipPath id="SVGID_00000093859096416077998470000007309379941220486051_">
					<use xlink:href="#SVGID_00000061459803711454768560000006092948098701510055_"  style="overflow:visible;"/>
				</clipPath>
				<path style="clip-path:url(#SVGID_00000093859096416077998470000007309379941220486051_);fill:#007531;" d="M201.2,150.4
					L201.2,150.4c0,0-2.8-1-6.3-2.3c-16.9-6.3-28.7-32.2-20-55.4l0,0c0,0,2.8,1.1,6.3,2.4C198.1,101.3,209.9,127.1,201.2,150.4"/>
			</g>
			<g>
				<defs>
					<rect id="SVGID_00000014598993464195258960000011615786544621624731_" x="0.4" y="8.8" width="259.6" height="142.5"/>
				</defs>
				<clipPath id="SVGID_00000138532613270754660630000004184247239444235439_">
					<use xlink:href="#SVGID_00000014598993464195258960000011615786544621624731_"  style="overflow:visible;"/>
				</clipPath>
				<path style="clip-path:url(#SVGID_00000138532613270754660630000004184247239444235439_);fill:#139E49;" d="M201.4,150.2
					C201.5,150.2,201.5,150.2,201.4,150.2c0.1,0,0.1,0,0.1,0l0,0c0,0,1.1-2.8,2.4-6.3c6.3-16.9-5.4-42.8-22.3-49.1
					c-3.5-1.3-6.3-2.4-6.3-2.4l0,0c0,0.1,0,0.1,0,0.1s1.2,2.8,2.8,6.2L201.4,150.2z"/>
			</g>
			<g>
				<defs>
					<rect id="SVGID_00000062158642726469298090000000680991998265996699_" x="0.4" y="8.8" width="259.6" height="142.5"/>
				</defs>
				<clipPath id="SVGID_00000042719056135403064590000013282190127922448298_">
					<use xlink:href="#SVGID_00000062158642726469298090000000680991998265996699_"  style="overflow:visible;"/>
				</clipPath>
				<path style="clip-path:url(#SVGID_00000042719056135403064590000013282190127922448298_);fill:#007531;" d="M175.3,92.5
					L175.3,92.5c0,0-2.8-1.1-6.3-2.5c-16.8-6.6-42.9,4.7-51.9,27.8l0,0c0,0,2.8,1.1,6.3,2.5C140.2,126.9,166.2,115.6,175.3,92.5"/>
			</g>
			<g>
				<defs>
					<rect id="SVGID_00000085971492110905427600000009947223291121781174_" x="0.4" y="8.8" width="259.6" height="142.5"/>
				</defs>
				<clipPath id="SVGID_00000178176485944799981140000015890011785291288489_">
					<use xlink:href="#SVGID_00000085971492110905427600000009947223291121781174_"  style="overflow:visible;"/>
				</clipPath>
				<path style="clip-path:url(#SVGID_00000178176485944799981140000015890011785291288489_);fill:#139E49;" d="M175.4,92.8
					L175.4,92.8c0.1,0,0.1,0,0.1,0l0,0c0,0-1.1,2.8-2.5,6.3c-6.6,16.8-32.7,28.1-49.5,21.5c-3.5-1.4-6.3-2.5-6.3-2.5l0,0
					c0-0.1,0.1-0.1,0.1-0.1s2.8-1.2,6.2-2.7L175.4,92.8z"/>
			</g>
			<g>
				<defs>
					<rect id="SVGID_00000034048388060261487670000000738032921205975451_" x="0.4" y="8.8" width="259.6" height="142.5"/>
				</defs>
				<clipPath id="SVGID_00000155143793562684913530000012629096341144118170_">
					<use xlink:href="#SVGID_00000034048388060261487670000000738032921205975451_"  style="overflow:visible;"/>
				</clipPath>
				<path style="clip-path:url(#SVGID_00000155143793562684913530000012629096341144118170_);fill:#007531;" d="M149.1,151.1
					L149.1,151.1c0,0-1.2-2.8-2.6-6.2c-6.9-16.7,4-42.9,26.9-52.4l0,0c0,0,1.2,2.8,2.6,6.2C182.9,115.4,172,141.6,149.1,151.1"/>
			</g>
			<g>
				<defs>
					<rect id="SVGID_00000133497964511865149280000000745127112987670964_" x="0.4" y="8.8" width="259.6" height="142.5"/>
				</defs>
				<clipPath id="SVGID_00000157993642120196092840000016335998675624860032_">
					<use xlink:href="#SVGID_00000133497964511865149280000000745127112987670964_"  style="overflow:visible;"/>
				</clipPath>
				<path style="clip-path:url(#SVGID_00000157993642120196092840000016335998675624860032_);fill:#139E49;" d="M149.4,151.1
					C149.4,151.2,149.4,151.2,149.4,151.1c0,0.1,0,0.1,0,0.1l0,0c0,0,2.8-1.2,6.2-2.6c16.7-6.9,27.6-33.2,20.7-49.8
					c-1.4-3.4-2.6-6.2-2.6-6.2l0,0c-0.1,0-0.1,0.1-0.1,0.1s-1.2,2.8-2.6,6.2L149.4,151.1z"/>
			</g>
			<g>
				<defs>
					<rect id="SVGID_00000134937336591511641150000007247395170790325923_" x="0.4" y="8.8" width="259.6" height="142.5"/>
				</defs>
				<clipPath id="SVGID_00000111894941338022330810000004559645484689081519_">
					<use xlink:href="#SVGID_00000134937336591511641150000007247395170790325923_"  style="overflow:visible;"/>
				</clipPath>
				<path style="clip-path:url(#SVGID_00000111894941338022330810000004559645484689081519_);fill:#72341F;" d="M244.7,97.5
					c0,1.5-1.2,2.7-2.7,2.7H3.2c-1.5,0-2.7-1.2-2.7-2.7s1.2-2.7,2.7-2.7H242C243.5,94.8,244.7,96,244.7,97.5"/>
			</g>
			<g>
				<defs>
					<rect id="SVGID_00000088112447308611175780000008592479757392349825_" x="0.4" y="8.8" width="259.6" height="142.5"/>
				</defs>
				<clipPath id="SVGID_00000055694195719821626020000010318404257543158449_">
					<use xlink:href="#SVGID_00000088112447308611175780000008592479757392349825_"  style="overflow:visible;"/>
				</clipPath>
				<path style="clip-path:url(#SVGID_00000055694195719821626020000010318404257543158449_);fill:#894C35;" d="M243.6,92
					c0,1.5-1.2,2.7-2.7,2.7H4.3c-1.5,0-2.7-1.2-2.7-2.7s1.2-2.7,2.7-2.7h236.6C242.4,89.3,243.6,90.5,243.6,92"/>
			</g>
			<g>
				<defs>
					<rect id="SVGID_00000181779984298994245730000002477939386436041880_" x="0.4" y="8.8" width="259.6" height="142.5"/>
				</defs>
				<clipPath id="SVGID_00000141440243756156575850000014439933280146195894_">
					<use xlink:href="#SVGID_00000181779984298994245730000002477939386436041880_"  style="overflow:visible;"/>
				</clipPath>
				<path style="clip-path:url(#SVGID_00000141440243756156575850000014439933280146195894_);fill:#FFC907;" d="M165.1,109.4
					L165.1,109.4c0,0,0.2-0.5,0.5-1.1c0.5-1.1,3-2,5.1-1.1l0,0c0,0-0.2,0.5-0.5,1.1C169.7,109.4,167.3,110.4,165.1,109.4"/>
			</g>
			<g>
				<defs>
					<rect id="SVGID_00000105398854316534042710000008211251610467484604_" x="0.4" y="8.8" width="259.6" height="142.5"/>
				</defs>
				<clipPath id="SVGID_00000014605966444613411040000012844342873884834235_">
					<use xlink:href="#SVGID_00000105398854316534042710000008211251610467484604_"  style="overflow:visible;"/>
				</clipPath>
				<path style="clip-path:url(#SVGID_00000014605966444613411040000012844342873884834235_);fill:#FFC907;" d="M172.8,112.9
					L172.8,112.9c0,0,0.2-0.5,0.5-1.1c0.5-1.1-0.5-3.5-2.6-4.5l0,0c0,0-0.2,0.5-0.5,1.1C169.8,109.4,170.7,111.9,172.8,112.9"/>
			</g>
			<g>
				<defs>
					<rect id="SVGID_00000173162773444203336290000003700325970716190359_" x="0.4" y="8.8" width="259.6" height="142.5"/>
				</defs>
				<clipPath id="SVGID_00000127741922814159784860000012000264754042845834_">
					<use xlink:href="#SVGID_00000173162773444203336290000003700325970716190359_"  style="overflow:visible;"/>
				</clipPath>
				<path style="clip-path:url(#SVGID_00000127741922814159784860000012000264754042845834_);fill:#FFC907;" d="M168.6,101.8
					L168.6,101.8c0,0-0.2,0.5-0.5,1.1c-0.5,1.1,0.5,3.5,2.6,4.5l0,0c0,0,0.2-0.5,0.5-1.1C171.6,105.2,170.7,102.7,168.6,101.8"/>
			</g>
			<g>
				<defs>
					<rect id="SVGID_00000117667370063284004490000018154749506250433462_" x="0.4" y="8.8" width="259.6" height="142.5"/>
				</defs>
				<clipPath id="SVGID_00000088099284363442696220000004154455982650917517_">
					<use xlink:href="#SVGID_00000117667370063284004490000018154749506250433462_"  style="overflow:visible;"/>
				</clipPath>
				<path style="clip-path:url(#SVGID_00000088099284363442696220000004154455982650917517_);fill:#FFC907;" d="M176.2,105.2
					L176.2,105.2c0,0-0.2,0.5-0.5,1.1c-0.5,1.1-3,2-5.1,1.1l0,0c0,0,0.2-0.5,0.5-1.1C171.6,105.2,174.1,104.3,176.2,105.2"/>
			</g>
			<g>
				<defs>
					<rect id="SVGID_00000075873457521563900490000001168915169175320737_" x="0.4" y="8.8" width="259.6" height="142.5"/>
				</defs>
				<clipPath id="SVGID_00000119823229047796729810000008015449700464701094_">
					<use xlink:href="#SVGID_00000075873457521563900490000001168915169175320737_"  style="overflow:visible;"/>
				</clipPath>
				<path style="clip-path:url(#SVGID_00000119823229047796729810000008015449700464701094_);fill:#FFC907;" d="M174.5,103.2
					L174.5,103.2c0,0,0.1-0.5,0.2-1.1c0.2-1.1,2.3-2.7,4.6-2.4l0,0c0,0-0.1,0.5-0.2,1.1C178.9,101.9,176.8,103.5,174.5,103.2"/>
			</g>
			<g>
				<defs>
					<rect id="SVGID_00000019666658341511012840000012302712434152923548_" x="0.4" y="8.8" width="259.6" height="142.5"/>
				</defs>
				<clipPath id="SVGID_00000096025536900079869310000003088716428592532099_">
					<use xlink:href="#SVGID_00000019666658341511012840000012302712434152923548_"  style="overflow:visible;"/>
				</clipPath>
				<path style="clip-path:url(#SVGID_00000096025536900079869310000003088716428592532099_);fill:#FFC907;" d="M182.8,104.4
					L182.8,104.4c0,0,0.1-0.5,0.2-1.1c0.2-1.1-1.4-3.3-3.7-3.6l0,0c0,0-0.1,0.5-0.2,1.1C178.9,101.9,180.5,104,182.8,104.4"/>
			</g>
			<g>
				<defs>
					<rect id="SVGID_00000000941549839603750490000005819521240857467318_" x="0.4" y="8.8" width="259.6" height="142.5"/>
				</defs>
				<clipPath id="SVGID_00000114057041124611099370000007261794359766295714_">
					<use xlink:href="#SVGID_00000000941549839603750490000005819521240857467318_"  style="overflow:visible;"/>
				</clipPath>
				<path style="clip-path:url(#SVGID_00000114057041124611099370000007261794359766295714_);fill:#FFC907;" d="M175.6,94.9
					L175.6,94.9c0,0-0.1,0.5-0.2,1.1c-0.2,1.1,1.4,3.3,3.7,3.6l0,0c0,0,0.1-0.5,0.2-1.1C179.5,97.3,177.9,95.2,175.6,94.9"/>
			</g>
			<g>
				<defs>
					<rect id="SVGID_00000126307485382068095320000017756764120974604416_" x="0.4" y="8.8" width="259.6" height="142.5"/>
				</defs>
				<clipPath id="SVGID_00000152256466689936622560000012891767215255771013_">
					<use xlink:href="#SVGID_00000126307485382068095320000017756764120974604416_"  style="overflow:visible;"/>
				</clipPath>
				<path style="clip-path:url(#SVGID_00000152256466689936622560000012891767215255771013_);fill:#FFC907;" d="M183.9,96.1
					C184,96.1,184,96.1,183.9,96.1c0,0-0.1,0.5-0.2,1.1c-0.2,1.1-2.3,2.7-4.6,2.4l0,0c0,0,0.1-0.5,0.2-1.1
					C179.5,97.3,181.7,95.7,183.9,96.1"/>
			</g>
			<g>
				<defs>
					<rect id="SVGID_00000054237182694320993380000004622161291550289062_" x="0.4" y="8.8" width="259.6" height="142.5"/>
				</defs>
				<clipPath id="SVGID_00000092432885388749484720000007488804801618252987_">
					<use xlink:href="#SVGID_00000054237182694320993380000004622161291550289062_"  style="overflow:visible;"/>
				</clipPath>
				<path style="clip-path:url(#SVGID_00000092432885388749484720000007488804801618252987_);fill:#FFC907;" d="M174.1,111.4
					L174.1,111.4c0,0,0.3-0.4,0.8-0.9c0.8-0.9,3.4-1,5.2,0.6l0,0c0,0-0.3,0.4-0.8,0.9C178.5,112.8,175.9,112.9,174.1,111.4"/>
			</g>
			<g>
				<defs>
					<rect id="SVGID_00000105398234282895514440000010644242028018780606_" x="0.4" y="8.8" width="259.6" height="142.5"/>
				</defs>
				<clipPath id="SVGID_00000053504812015819230990000012469070093776071609_">
					<use xlink:href="#SVGID_00000105398234282895514440000010644242028018780606_"  style="overflow:visible;"/>
				</clipPath>
				<path style="clip-path:url(#SVGID_00000053504812015819230990000012469070093776071609_);fill:#FFC907;" d="M180.4,117
					L180.4,117c0,0,0.3-0.4,0.8-0.9c0.8-0.9,0.6-3.5-1.1-5.1l0,0c0,0-0.3,0.4-0.8,0.9C178.5,112.8,178.7,115.4,180.4,117"/>
			</g>
			<g>
				<defs>
					<rect id="SVGID_00000096754872895803377760000014702709627473442439_" x="0.4" y="8.8" width="259.6" height="142.5"/>
				</defs>
				<clipPath id="SVGID_00000063624251921015046060000004755429047416192662_">
					<use xlink:href="#SVGID_00000096754872895803377760000014702709627473442439_"  style="overflow:visible;"/>
				</clipPath>
				<path style="clip-path:url(#SVGID_00000063624251921015046060000004755429047416192662_);fill:#FFC907;" d="M179.8,105.1
					L179.8,105.1c0,0-0.3,0.4-0.8,0.9c-0.8,0.9-0.6,3.5,1.1,5.1l0,0c0,0,0.3-0.4,0.8-0.9C181.6,109.3,181.5,106.7,179.8,105.1"/>
			</g>
			<g>
				<defs>
					<rect id="SVGID_00000173858758212644302550000017058705013304579217_" x="0.4" y="8.8" width="259.6" height="142.5"/>
				</defs>
				<clipPath id="SVGID_00000148628473311748830930000007270880787588644253_">
					<use xlink:href="#SVGID_00000173858758212644302550000017058705013304579217_"  style="overflow:visible;"/>
				</clipPath>
				<path style="clip-path:url(#SVGID_00000148628473311748830930000007270880787588644253_);fill:#FFC907;" d="M186,110.8
					L186,110.8c0,0-0.3,0.4-0.8,0.9c-0.8,0.9-3.4,1-5.2-0.6l0,0c0,0,0.3-0.4,0.8-0.9C181.6,109.3,184.3,109.2,186,110.8"/>
			</g>
		</g>
		<g id="arara-bicho">
			<path class="st30" d="M194.4,143.6L194.4,143.6c6.5,0,11.7-5.2,11.7-11.7s-5.2-11.7-11.7-11.7l0,0V143.6z"/>
			<rect x="194.4" y="104.6" class="st30" width="11.7" height="27.7"/>
			<g>
				<g>
					<defs>
						<rect id="SVGID_00000058574471861423049220000000305997150179273645_" x="103.4" y="8.8" width="156.6" height="142.5"/>
					</defs>
					<clipPath id="SVGID_00000042001335746248916290000013778888608573581984_">
						<use xlink:href="#SVGID_00000058574471861423049220000000305997150179273645_"  style="overflow:visible;"/>
					</clipPath>
					<path style="clip-path:url(#SVGID_00000042001335746248916290000013778888608573581984_);fill:#0056A7;" d="M204.6,126.6
						L204.6,126.6c6.5,0,11.7-5.2,11.7-11.7s-5.2-11.7-11.7-11.7l0,0V126.6z"/>
				</g>
			</g>
			<rect x="204.7" y="87.7" class="st32" width="11.7" height="27.7"/>
			<g>
				<g>
					<defs>
						<rect id="SVGID_00000090984636366735097310000012684023973127892615_" x="103.4" y="8.8" width="156.6" height="142.5"/>
					</defs>
					<clipPath id="SVGID_00000069363097839256504730000008016391112447903654_">
						<use xlink:href="#SVGID_00000090984636366735097310000012684023973127892615_"  style="overflow:visible;"/>
					</clipPath>
					<path style="clip-path:url(#SVGID_00000069363097839256504730000008016391112447903654_);fill:#F05159;" d="M203.7,36.1
						c18.3,0.1,33.1,15,33.1,33.3s-14.8,33.2-33.1,33.3L203.7,36.1L203.7,36.1z"/>
				</g>
				<g>
					<defs>
						<rect id="SVGID_00000116926472522431917170000013263394033643094709_" x="103.4" y="8.8" width="156.6" height="142.5"/>
					</defs>
					<clipPath id="SVGID_00000088854294462558914620000017497665096659942787_">
						<use xlink:href="#SVGID_00000116926472522431917170000013263394033643094709_"  style="overflow:visible;"/>
					</clipPath>
					<path style="clip-path:url(#SVGID_00000088854294462558914620000017497665096659942787_);fill:#00B9F2;" d="M194.4,113.7
						L194.4,113.7c6.5,0,11.7-5.2,11.7-11.7s-5.2-11.7-11.7-11.7l0,0V113.7z"/>
				</g>
				<g>
					<defs>
						<rect id="SVGID_00000116196406868405890100000002140611722415827073_" x="103.4" y="8.8" width="156.6" height="142.5"/>
					</defs>
					<clipPath id="SVGID_00000027577209855347546590000016572145471041399439_">
						<use xlink:href="#SVGID_00000116196406868405890100000002140611722415827073_"  style="overflow:visible;"/>
					</clipPath>
					<path style="clip-path:url(#SVGID_00000027577209855347546590000016572145471041399439_);fill:#00B9F2;" d="M194.4,103.4
						L194.4,103.4c6.5,0,11.7-5.2,11.7-11.7S200.8,80,194.4,80l0,0V103.4z"/>
				</g>
				<g>
					<defs>
						<rect id="SVGID_00000044177157150270368140000010611946390304994688_" x="103.4" y="8.8" width="156.6" height="142.5"/>
					</defs>
					<clipPath id="SVGID_00000036955719599507494130000016436656710027559087_">
						<use xlink:href="#SVGID_00000044177157150270368140000010611946390304994688_"  style="overflow:visible;"/>
					</clipPath>
					<path style="clip-path:url(#SVGID_00000036955719599507494130000016436656710027559087_);fill:#00AEEF;" d="M204.8,100.7
						L204.8,100.7c6.5,0,11.7-5.2,11.7-11.7s-5.2-11.7-11.7-11.7l0,0V100.7z"/>
				</g>
				<g>
					<defs>
						<rect id="SVGID_00000129179154637545891300000009813988148524067243_" x="103.4" y="8.8" width="156.6" height="142.5"/>
					</defs>
					<clipPath id="SVGID_00000103241054132317393210000011048061983638177157_">
						<use xlink:href="#SVGID_00000129179154637545891300000009813988148524067243_"  style="overflow:visible;"/>
					</clipPath>
					<path style="clip-path:url(#SVGID_00000103241054132317393210000011048061983638177157_);fill:#00AEEF;" d="M204.8,91.2
						L204.8,91.2c6.5,0,11.7-5.2,11.7-11.7s-5.2-11.7-11.7-11.7l0,0V91.2z"/>
				</g>
				<g>
					<defs>
						<rect id="SVGID_00000052069729748787425720000012974119348728431501_" x="103.4" y="8.8" width="156.6" height="142.5"/>
					</defs>
					<clipPath id="SVGID_00000003102651697533054770000013699134732496950406_">
						<use xlink:href="#SVGID_00000052069729748787425720000012974119348728431501_"  style="overflow:visible;"/>
					</clipPath>
					<path style="clip-path:url(#SVGID_00000003102651697533054770000013699134732496950406_);fill:#0095DA;" d="M215.3,87.3
						L215.3,87.3c6.5,0,11.7-5.2,11.7-11.7s-5.2-11.7-11.7-11.7l0,0V87.3z"/>
				</g>
				<g>
					<defs>
						<rect id="SVGID_00000116213235146980175360000006259362251405944205_" x="103.4" y="8.8" width="156.6" height="142.5"/>
					</defs>
					<clipPath id="SVGID_00000013902311719916398480000005426048842243116681_">
						<use xlink:href="#SVGID_00000116213235146980175360000006259362251405944205_"  style="overflow:visible;"/>
					</clipPath>
					<path style="clip-path:url(#SVGID_00000013902311719916398480000005426048842243116681_);fill:#FFC907;" d="M194.4,92.9
						L194.4,92.9c6.5,0,11.7-5.2,11.7-11.7s-5.2-11.7-11.7-11.7l0,0V92.9z"/>
				</g>
				<g>
					<defs>
						<rect id="SVGID_00000031885880607063668280000017934899362956161212_" x="103.4" y="8.8" width="156.6" height="142.5"/>
					</defs>
					<clipPath id="SVGID_00000096778821352210917100000009956852007441505420_">
						<use xlink:href="#SVGID_00000031885880607063668280000017934899362956161212_"  style="overflow:visible;"/>
					</clipPath>
					<path style="clip-path:url(#SVGID_00000096778821352210917100000009956852007441505420_);fill:#FFC907;" d="M194.4,81.8
						L194.4,81.8c6.5,0,11.7-5.2,11.7-11.7s-5.2-11.7-11.7-11.7l0,0V81.8z"/>
				</g>
				<g>
					<defs>
						<rect id="SVGID_00000137091485202249708670000009105613457129111941_" x="103.4" y="8.8" width="156.6" height="142.5"/>
					</defs>
					<clipPath id="SVGID_00000149349702439414276000000012026448356091875772_">
						<use xlink:href="#SVGID_00000137091485202249708670000009105613457129111941_"  style="overflow:visible;"/>
					</clipPath>
					<path style="clip-path:url(#SVGID_00000149349702439414276000000012026448356091875772_);fill:#FCB24C;" d="M204.6,85.6
						L204.6,85.6c6.5,0,11.7-5.2,11.7-11.7s-5.2-11.7-11.7-11.7l0,0V85.6z"/>
				</g>
				<g>
					<defs>
						<rect id="SVGID_00000029755114211613175180000009690665581803848117_" x="103.4" y="8.8" width="156.6" height="142.5"/>
					</defs>
					<clipPath id="SVGID_00000086681061891007128720000013137293103819037104_">
						<use xlink:href="#SVGID_00000029755114211613175180000009690665581803848117_"  style="overflow:visible;"/>
					</clipPath>
					<path style="clip-path:url(#SVGID_00000086681061891007128720000013137293103819037104_);fill:#2B2A38;" d="M218,23.5
						c-0.1,4.7,3.7,8.6,8.7,8.8c4.9,0.2,9.1-3.5,9.3-8.2L218,23.5z"/>
				</g>
				<g>
					<defs>
						<rect id="SVGID_00000060733185804921167690000017821021368941493910_" x="103.4" y="8.8" width="156.6" height="142.5"/>
					</defs>
					<clipPath id="SVGID_00000111188658121685754370000003524365889884941471_">
						<use xlink:href="#SVGID_00000060733185804921167690000017821021368941493910_"  style="overflow:visible;"/>
					</clipPath>
					<path style="clip-path:url(#SVGID_00000111188658121685754370000003524365889884941471_);fill:#FFC907;" d="M211.5,23.5
						c0.3-7.1,6.6-12.7,14.1-12.4s13.4,6.3,13.2,13.4L211.5,23.5z"/>
				</g>
				<g>
					<defs>
						<rect id="SVGID_00000031898903837127060120000004081740024287334325_" x="103.4" y="8.8" width="156.6" height="142.5"/>
					</defs>
					<clipPath id="SVGID_00000030448480826605729060000008619651105638812082_">
						<use xlink:href="#SVGID_00000031898903837127060120000004081740024287334325_"  style="overflow:visible;"/>
					</clipPath>
					<path style="clip-path:url(#SVGID_00000030448480826605729060000008619651105638812082_);fill:#ED1C24;" d="M203.3,20.7
						L203.3,20.7c0-6.6,5.6-12,12.5-12s12.5,5.4,12.5,12l0,0H203.3z"/>
				</g>
			</g>
			<rect x="203.3" y="19.8" class="st45" width="24.9" height="28.1"/>
			<g>
				<g>
					<defs>
						<rect id="SVGID_00000013164302469464324050000002626696192836988859_" x="103.4" y="8.8" width="156.6" height="142.5"/>
					</defs>
					<clipPath id="SVGID_00000052077061169284198170000006831807405059318443_">
						<use xlink:href="#SVGID_00000013164302469464324050000002626696192836988859_"  style="overflow:visible;"/>
					</clipPath>
					<path style="clip-path:url(#SVGID_00000052077061169284198170000006831807405059318443_);fill:#FFFFFF;" d="M216.2,28.4
						c3.7,0,6.7-2.9,6.7-6.6c0-3.6-3-6.6-6.7-6.6s-6.7,2.9-6.7,6.6S212.5,28.4,216.2,28.4"/>
				</g>
				<g>
					<defs>
						<rect id="SVGID_00000100384242575319155880000014415536390094140046_" x="103.4" y="8.8" width="156.6" height="142.5"/>
					</defs>
					<clipPath id="SVGID_00000010288263794140992870000017760697027709181868_">
						<use xlink:href="#SVGID_00000100384242575319155880000014415536390094140046_"  style="overflow:visible;"/>
					</clipPath>
					<path style="clip-path:url(#SVGID_00000010288263794140992870000017760697027709181868_);fill:#3B9ED8;" d="M216.1,25.5
						c2.1,0,3.8-1.7,3.8-3.7s-1.7-3.7-3.8-3.7s-3.8,1.7-3.8,3.7C212.3,23.9,214,25.5,216.1,25.5"/>
				</g>
				<g>
					<defs>
						<rect id="SVGID_00000085232462333827065320000014883721225272742837_" x="103.4" y="8.8" width="156.6" height="142.5"/>
					</defs>
					<clipPath id="SVGID_00000083087072015826117060000009877971233546931895_">
						<use xlink:href="#SVGID_00000085232462333827065320000014883721225272742837_"  style="overflow:visible;"/>
					</clipPath>
					<path style="clip-path:url(#SVGID_00000083087072015826117060000009877971233546931895_);fill:#231F20;" d="M216.8,23.6
						c1.3,0,2.4-1,2.4-2.3s-1.1-2.3-2.4-2.3c-1.3,0-2.4,1-2.4,2.3C214.4,22.5,215.5,23.6,216.8,23.6"/>
				</g>
				<g>
					<defs>
						<rect id="SVGID_00000101813592513167317590000002570533430832943036_" x="103.4" y="8.8" width="156.6" height="142.5"/>
					</defs>
					<clipPath id="SVGID_00000005226566671730808700000015392820935131378619_">
						<use xlink:href="#SVGID_00000101813592513167317590000002570533430832943036_"  style="overflow:visible;"/>
					</clipPath>
					<path style="clip-path:url(#SVGID_00000005226566671730808700000015392820935131378619_);fill:#FFFFFF;" d="M215.3,21.2
						c0.6,0,1.2-0.5,1.2-1.1S216,19,215.3,19s-1.2,0.5-1.2,1.1S214.7,21.2,215.3,21.2"/>
				</g>
				<g>
					<defs>
						<rect id="SVGID_00000136401238977287485330000001666937166418280639_" x="103.4" y="8.8" width="156.6" height="142.5"/>
					</defs>
					<clipPath id="SVGID_00000041981133530268888880000017722989157680619653_">
						<use xlink:href="#SVGID_00000136401238977287485330000001666937166418280639_"  style="overflow:visible;"/>
					</clipPath>
					<path style="clip-path:url(#SVGID_00000041981133530268888880000017722989157680619653_);fill:#ED1C24;" d="M216.3,79.9
						c-12.1,0-21.9-9.8-21.9-21.9s9.8-21.9,21.9-21.9c12.1,0,21.9,9.8,21.9,21.9S228.4,79.9,216.3,79.9"/>
				</g>
				<g>
					<defs>
						<rect id="SVGID_00000042000093929499475680000006373686793837234854_" x="103.4" y="8.8" width="156.6" height="142.5"/>
					</defs>
					<clipPath id="SVGID_00000062193913935663535030000007087303686714623622_">
						<use xlink:href="#SVGID_00000042000093929499475680000006373686793837234854_"  style="overflow:visible;"/>
					</clipPath>
					<path style="clip-path:url(#SVGID_00000062193913935663535030000007087303686714623622_);fill:#F05159;" d="M217,57.5v12.6l0,0
						c-6.9,0-12.6-5.6-12.6-12.6l0,0H217z"/>
				</g>
				<g>
					<defs>
						<rect id="SVGID_00000183220918798812855390000004715753075281662140_" x="103.4" y="8.8" width="156.6" height="142.5"/>
					</defs>
					<clipPath id="SVGID_00000141443968580522430050000008007811959578407581_">
						<use xlink:href="#SVGID_00000183220918798812855390000004715753075281662140_"  style="overflow:visible;"/>
					</clipPath>
					<path style="clip-path:url(#SVGID_00000141443968580522430050000008007811959578407581_);fill:#F16261;" d="M217,57.5h-12.6
						l0,0c0-6.9,5.6-12.6,12.6-12.6l0,0V57.5z"/>
				</g>
				<g>
					<defs>
						<rect id="SVGID_00000117641811952236485040000004593127027754287498_" x="103.4" y="8.8" width="156.6" height="142.5"/>
					</defs>
					<clipPath id="SVGID_00000032644681671456816100000014238399877981328270_">
						<use xlink:href="#SVGID_00000117641811952236485040000004593127027754287498_"  style="overflow:visible;"/>
					</clipPath>
					<path style="clip-path:url(#SVGID_00000032644681671456816100000014238399877981328270_);fill:#F26B69;" d="M217,57.5h12.6l0,0
						c0-6.9-5.6-12.6-12.6-12.6l0,0V57.5z"/>
				</g>
				<g>
					<defs>
						<rect id="SVGID_00000111892254074411091700000001928333719848683166_" x="103.4" y="8.8" width="156.6" height="142.5"/>
					</defs>
					<clipPath id="SVGID_00000098189502492194299000000004718407855201746608_">
						<use xlink:href="#SVGID_00000111892254074411091700000001928333719848683166_"  style="overflow:visible;"/>
					</clipPath>
					<path style="clip-path:url(#SVGID_00000098189502492194299000000004718407855201746608_);fill:#F16261;" d="M217,57.5v12.6l0,0
						c6.9,0,12.6-5.6,12.6-12.6l0,0H217z"/>
				</g>
				<g>
					<defs>
						<rect id="SVGID_00000147214240485394036510000001410318321613682839_" x="103.4" y="8.8" width="156.6" height="142.5"/>
					</defs>
					<clipPath id="SVGID_00000088832067261099333500000010977292427840337835_">
						<use xlink:href="#SVGID_00000147214240485394036510000001410318321613682839_"  style="overflow:visible;"/>
					</clipPath>
					<path style="clip-path:url(#SVGID_00000088832067261099333500000010977292427840337835_);fill:#894C35;" d="M223.7,26.7
						L223.7,26.7c-2.6,4.1-8.3,5-12.9,2.3l1.1-1.6c3.5,2.1,8,1.4,10-1.8l0,0L223.7,26.7z"/>
				</g>
			</g>
		</g>
	</g>
</g>
</svg>
