<?xml version="1.0" encoding="utf-8"?>
<!-- Generator: Adobe Illustrator 26.3.1, SVG Export Plug-In . SVG Version: 6.00 Build 0)  -->
<svg version="1.1" id="layer-sloth" xmlns="http://www.w3.org/2000/svg" xmlns:xlink="http://www.w3.org/1999/xlink" x="0px"
	 y="0px" viewBox="0 0 260 160" style="enable-background:new 0 0 260 160;" xml:space="preserve">
<style type="text/css">
	.st0{fill:#79606F;}
	.st1{fill:#5C4E29;}
	.st2{fill:#835C3B;}
	.st3{fill:#1BB35E;}
	.st4{fill:#0B995A;}
	.st5{fill:#362931;}
	.st6{fill:#917B87;}
	.st7{fill:#A99A97;}
	.st8{fill:#826B79;}
	.st9{fill:#703122;}
	.st10{fill:#231F20;}
	.st11{fill:#FFFFFF;}
	.st12{fill:#7C4D4D;}
	.st13{fill:#996550;}
	.st14{fill:#007C49;}
	.st15{fill:#51B763;}
	.st16{fill:#433267;}
	.st17{fill:#503C77;}
	.st18{fill:#7159A6;}
	.st19{fill:#008C49;}
	.st20{fill:#53BA61;}
</style>
<g id="sloth">
	<g id="sloth-animal">
		<path class="st0" d="M197.3,65.8c-4.5-2-9.7,0-11.7,4.4l-16.9,37.3l16.1,7.3l16.9-37.3C203.7,73.1,201.8,67.9,197.3,65.8"/>
		<path class="st1" d="M157.7,48.9c-1.2-1.1-3.1-1-4.2,0.2l-11.3,12.4l4.4,4.1l11.3-12.4C159,51.9,158.9,50,157.7,48.9"/>
		<path class="st2" d="M197.5,60.1h-120v11.3h120c4.4,0,8-2.5,8-5.7C205.5,62.6,202,60.1,197.5,60.1"/>
		<path class="st3" d="M223,48.2c-8.4,0-15.2,6.8-15.2,15.2v2.8h2.8c8.4,0,15.2-6.8,15.2-15.2v-2.8C225.8,48.2,223,48.2,223,48.2z"
			/>
		<path class="st3" d="M149.9,68.3c-5.6,0-10.1,4.5-10.1,10.1v1.9h1.9c5.6,0,10.1-4.5,10.1-10.1v-1.9H149.9z"/>
		<path class="st4" d="M217.6,76.4c0-5.6-4.6-10.2-10.2-10.2h-1.9v1.9c0,5.6,4.6,10.2,10.2,10.2h1.9V76.4z"/>
		<path class="st4" d="M158.1,29.9c-5.7,4.1-7,12.1-2.8,17.8l1.4,1.9l1.9-1.4c5.7-4.1,7-12.1,2.8-17.8l-1.4-1.9L158.1,29.9z"/>
		<path class="st3" d="M168.9,46.9c-3.6-2.7-8.8-1.9-11.5,1.7l-0.9,1.2l1.2,0.9c3.6,2.7,8.8,1.9,11.5-1.7l0.9-1.2L168.9,46.9z"/>
		<path class="st5" d="M171.2,76.7h-3.9V58.5c0-1.1,0.9-1.9,1.9-1.9c1.1,0,1.9,0.9,1.9,1.9v18.2H171.2z"/>
		<path class="st5" d="M165.2,76.7h-3.9V58.5c0-1.1,0.9-1.9,1.9-1.9c1.1,0,1.9,0.9,1.9,1.9v18.2H165.2z"/>
		<path class="st5" d="M176.8,76.7h-3.9V58.5c0-1.1,0.9-1.9,1.9-1.9c1.1,0,1.9,0.9,1.9,1.9v18.2H176.8z"/>
		<path class="st5" d="M193.2,56.8L193.2,56.8c1.1,0,1.9,0.9,1.9,1.9V62c0,1.1-0.9,1.9-1.9,1.9s-1.9-0.9-1.9-1.9v-3.2
			C191.3,57.7,192.1,56.8,193.2,56.8"/>
		<path class="st5" d="M199.2,56.8L199.2,56.8c1.1,0,1.9,0.9,1.9,1.9V62c0,1.1-0.9,1.9-1.9,1.9c-1.1,0-1.9-0.9-1.9-1.9v-3.2
			C197.2,57.7,198.1,56.8,199.2,56.8"/>
		<path class="st5" d="M187.6,56.8L187.6,56.8c1.1,0,1.9,0.9,1.9,1.9V62c0,1.1-0.9,1.9-1.9,1.9c-1.1,0-1.9-0.9-1.9-1.9v-3.2
			C185.6,57.7,186.5,56.8,187.6,56.8"/>
		<path class="st5" d="M124.9,76.7H121V58.5c0-1.1,0.9-1.9,1.9-1.9c1.1,0,1.9,0.9,1.9,1.9L124.9,76.7L124.9,76.7z"/>
		<path class="st5" d="M118.9,76.7H115V58.5c0-1.1,0.9-1.9,1.9-1.9c1.1,0,1.9,0.9,1.9,1.9L118.9,76.7L118.9,76.7z"/>
		<path class="st5" d="M130.5,76.7h-3.9V58.5c0-1.1,0.9-1.9,1.9-1.9c1.1,0,1.9,0.9,1.9,1.9v18.2H130.5z"/>
		<path class="st0" d="M113.2,96.3c-6.4,0-11.7,5.2-11.7,11.7h23.3C124.9,101.5,119.7,96.3,113.2,96.3"/>
		<polygon class="st0" points="132.3,89.7 178,89.7 178.1,100.6 191,100.8 197.1,117 132.3,117 		"/>
		<path class="st6" d="M215,95.5c0,2.4-1.9,4.3-4.3,4.3c-2.4,0-4.3-1.9-4.3-4.3s1.9-4.3,4.3-4.3C213.1,91.1,215,93.1,215,95.5"/>
		<path class="st6" d="M187.4,95.5c0,2.4-1.9,4.3-4.3,4.3c-2.4,0-4.3-1.9-4.3-4.3s1.9-4.3,4.3-4.3C185.5,91.1,187.4,93.1,187.4,95.5
			"/>
		<path class="st6" d="M212,102.1c0,8.2-6.7,14.9-14.9,14.9s-14.9-6.7-14.9-14.9s6.7-14.9,14.9-14.9S212,93.8,212,102.1"/>
		<path class="st7" d="M212,102.1c0-4.1-1.6-7.7-4.3-10.4c-5.8,1.6-10.2,6.8-10.6,13H197c-0.4-6.3-4.8-11.4-10.6-13
			c-2.6,2.7-4.3,6.4-4.3,10.4c0,8.2,6.7,14.9,14.9,14.9S212,110.3,212,102.1"/>
		<rect x="132.3" y="89.7" class="st7" width="28" height="10.6"/>
		<path class="st6" d="M169.1,65c-4.9,0-8.8,4-8.8,8.8V117H178V73.8C178,68.9,174,65,169.1,65"/>
		<path class="st6" d="M122.7,65c-5.3,0-9.5,4.3-9.5,9.5v35.7c0,3.8,3,6.8,6.8,6.8h12.3V74.5C132.3,69.2,128,65,122.7,65"/>
		<rect x="160.3" y="100.3" class="st8" width="17.7" height="16.7"/>
		<path class="st8" d="M132.3,117H120c-3.7,0-6.8-3-6.8-6.8v-9.9h19.1V117z"/>
		<path class="st7" d="M136.5,105.2L136.5,105.2c-0.7,0-1.4-0.6-1.4-1.4v-7.1c0-0.7,0.6-1.4,1.4-1.4s1.4,0.6,1.4,1.4v7.1
			C137.9,104.6,137.3,105.2,136.5,105.2"/>
		<path class="st7" d="M155.5,105.2L155.5,105.2c-0.7,0-1.4-0.6-1.4-1.4v-7.1c0-0.7,0.6-1.4,1.4-1.4c0.7,0,1.4,0.6,1.4,1.4v7.1
			C156.9,104.6,156.3,105.2,155.5,105.2"/>
		<path class="st7" d="M142.9,108.7L142.9,108.7c-0.7,0-1.4-0.6-1.4-1.4V96.8c0-0.8,0.6-1.4,1.4-1.4c0.7,0,1.4,0.6,1.4,1.4v10.5
			C144.3,108.1,143.7,108.7,142.9,108.7"/>
		<path class="st7" d="M149.6,103.6L149.6,103.6c-0.7,0-1.4-0.6-1.4-1.4v-5.5c0-0.7,0.6-1.4,1.4-1.4s1.4,0.6,1.4,1.4v5.5
			C151,103,150.4,103.6,149.6,103.6"/>
		<path class="st6" d="M122.7,91.7c-1.8,0-3.3,1.5-3.3,3.3v10.7c0,1.8,1.5,3.3,3.3,3.3s3.3-1.5,3.3-3.3V94.9
			C126,93.1,124.6,91.7,122.7,91.7"/>
		<path class="st6" d="M168.8,91.7c-1.8,0-3.3,1.5-3.3,3.3v10.7c0,1.8,1.5,3.3,3.3,3.3s3.3-1.5,3.3-3.3V94.9
			C172,93.1,170.6,91.7,168.8,91.7"/>
		<path class="st0" d="M186.4,91.6c0.3,0.1,0.7,0.2,1,0.3c5.4,1.9,9.3,6.8,9.7,12.7h0.1c0-0.1,0-0.2,0-0.3l0.2,2.1l-2.5,0.2
			c-5.2,0.5-9.9-2-12.6-6C182.6,97.1,184.1,94,186.4,91.6"/>
		<path class="st0" d="M207.8,91.6c-0.3,0.1-0.7,0.2-1,0.3c-5.4,1.9-9.3,6.8-9.7,12.7H197c0-0.1,0-0.2,0-0.3l-0.2,2.1l2.5,0.2
			c5.2,0.5,9.9-2,12.6-6C211.6,97.1,210.1,94,207.8,91.6"/>
		<path class="st9" d="M191.7,99c0,1.2-1,2.3-2.3,2.3c-1.2,0-2.3-1-2.3-2.3c0-1.2,1-2.3,2.3-2.3C190.7,96.8,191.7,97.8,191.7,99"/>
		<path class="st10" d="M190.9,98.8c0,0.7-0.6,1.3-1.3,1.3s-1.3-0.6-1.3-1.3c0-0.7,0.6-1.3,1.3-1.3C190.3,97.4,190.9,98,190.9,98.8"
			/>
		<path class="st11" d="M191.4,97.9c0,0.4-0.3,0.7-0.7,0.7s-0.7-0.3-0.7-0.7s0.3-0.7,0.7-0.7S191.4,97.5,191.4,97.9"/>
		<path class="st12" d="M199.7,105.3h-5.3c-1.1,0-1.8,0.8-1.3,1.4l2.6,2.8c0.6,0.6,2,0.6,2.5,0l2.6-2.8
			C201.6,106.1,200.9,105.3,199.7,105.3"/>
		<path class="st9" d="M207.4,99c0,1.2-1,2.3-2.3,2.3c-1.2,0-2.3-1-2.3-2.3c0-1.2,1-2.3,2.3-2.3C206.4,96.8,207.4,97.8,207.4,99"/>
		<path class="st10" d="M206.6,98.7c0,0.7-0.6,1.3-1.3,1.3s-1.3-0.6-1.3-1.3s0.6-1.3,1.3-1.3C206,97.3,206.6,97.9,206.6,98.7"/>
		<path class="st11" d="M207,97.9c0,0.4-0.3,0.7-0.7,0.7s-0.7-0.3-0.7-0.7s0.3-0.7,0.7-0.7S207,97.5,207,97.9"/>
	</g>
	<g id="sloth-scene">
		<path class="st13" d="M48.8,86.5c1.1,3.1-0.2,6.4-2.9,7.9c-0.3,0.2-0.6,0.3-1,0.5c-1.7,0.6-3.5,0.5-5-0.2l0,0
			c-1.5-0.7-2.8-2-3.4-3.7c-0.1-0.2-0.1-0.4-0.2-0.6c-3.9,5.6-10.8,9.3-18.6,9.3C10.5,99.7,4,96.5,0,91.4V111c5.3,2.5,11.4,4,17.8,4
			c19.3,0,35.4-13.1,38.2-30.2h-8.1C48.3,85.3,48.6,85.9,48.8,86.5z"/>
		<path class="st14" d="M80.9,52.3c-0.3,0.5-0.7,0.9-1.1,1.3c-4,4-10.4,4-14.4,0L75,44c-4.1-3.7-9.6-5.9-15.5-5.9H42.4
			c0.1,2.5-0.7,5-2.5,7l-7.6-6.6c-10.8,2-19,11.5-19,22.9c0,7.9,3.9,14.8,9.8,19c0-0.3,0.1-0.6,0.2-0.9c0.1-0.2,0.1-0.4,0.2-0.6
			c0.6-1.7,1.9-3,3.4-3.7l0,0c0.2-0.1,0.4-0.2,0.5-0.2l5.3-2.3l2.7,5.4c0.1,0.1,0.1,0.2,0.2,0.3l0,0c0.7,1.5,0.8,3.3,0.2,5
			c-0.2,0.5-0.4,0.9-0.7,1.3c0.5,0,1,0.1,1.5,0.1h0.8l2.3-4.5l5.5,2.4c0.1,0,0.2,0.1,0.3,0.1l0,0c1,0.5,1.8,1.1,2.5,2h8h3.4
			c12.9,0,23.3-10.4,23.3-23.3C82.7,58.2,82.1,55.1,80.9,52.3z M50.7,74.9c-4.5-3.4-5.4-9.8-2-14.2L65,72.9
			C61.6,77.4,55.2,78.3,50.7,74.9z"/>
		<path class="st15" d="M42.4,38.2c-0.1-2.7-1.3-5.4-3.5-7.3c-4.2-3.7-10.7-3.2-14.3,1l7.7,6.7l7.6,6.6
			C41.6,43.2,42.4,40.7,42.4,38.2z"/>
		<path class="st16" d="M36.9,85.6L36.9,85.6c0,0.1-0.1,0.2-0.2,0.4l0,0C36.8,85.8,36.9,85.7,36.9,85.6z"/>
		<path class="st16" d="M42.7,88.7l5.9,2.8c-0.6,1.2-1.5,2.3-2.7,2.9c2.7-1.5,4.1-4.9,2.9-7.9c-0.2-0.6-0.5-1.2-0.9-1.7
			c-0.7-0.9-1.5-1.6-2.5-2L42.7,88.7z"/>
		<path class="st16" d="M39.9,94.6L39.9,94.6c-1.5-0.7-2.8-2-3.4-3.7c-0.2-0.4-0.3-0.9-0.3-1.3c0,0.2,0.1,0.5,0.2,0.7
			c0,0.2,0.1,0.4,0.2,0.6C37.1,92.7,38.4,93.9,39.9,94.6z"/>
		<path class="st17" d="M45.4,82.8c-0.6,1.8-2,2.7-3.7,3.4c-1.7,0.6-3.3,0.7-4.9-0.2l0.2-0.3c-0.1,0.1-0.1,0.2-0.2,0.4l5.9,2.8l0,0
			l0,0L45.4,82.8L45.4,82.8c-0.1,0-0.2-0.1-0.3-0.1L45.4,82.8z"/>
		<path class="st18" d="M36.5,91c0.6,1.7,1.9,3,3.4,3.7l2.8-5.9L36.8,86l0,0l0,0c-0.5,1.1-0.7,2.4-0.5,3.7
			C36.3,90.1,36.4,90.5,36.5,91z"/>
		<path class="st17" d="M48.6,91.5l-5.9-2.8l0,0l0,0l-2.8,5.9l0,0l0,0c1.5,0.7,3.3,0.8,5,0.2c0.3-0.1,0.7-0.3,1-0.5
			C47.1,93.7,48,92.7,48.6,91.5z"/>
		<path class="st17" d="M36.8,85.9c1.6,1,3.2,0.9,4.9,0.2c1.7-0.6,3.1-1.6,3.7-3.4l-0.3-0.1l-5.5-2.4l-2.3,4.5L37,85.5l-0.1,0.1
			L36.8,85.9z"/>
		<path class="st16" d="M23.2,79.6c-0.1,0.3-0.1,0.6-0.2,0.9c-0.1,1.2,0.1,2.4,0.6,3.5l0,0C23,82.6,22.8,81.1,23.2,79.6z"/>
		<path class="st16" d="M27.3,75.1L27.3,75.1c-0.1,0-0.3,0.1-0.5,0.2l0,0C27,75.2,27.1,75.1,27.3,75.1z"/>
		<path class="st16" d="M35.5,78.4l-5.9,2.8l2.8,5.9c-1.5,0.7-3.3,0.8-5,0.2c-0.2-0.1-0.4-0.2-0.6-0.3c0.2,0.1,0.4,0.2,0.6,0.3
			c2.9,1.1,6.1-0.1,7.7-2.6c0.3-0.4,0.5-0.8,0.7-1.3C36.3,81.8,36.2,80,35.5,78.4z"/>
		<path class="st17" d="M35.5,78.4c-1.6,1-3.3,0.8-5,0.2c-1.7-0.6-3-1.6-3.6-3.3l0.4-0.2c-0.2,0.1-0.3,0.1-0.5,0.2l2.8,5.9l0,0l0,0
			L35.5,78.4L35.5,78.4c0-0.1-0.1-0.2-0.1-0.3L35.5,78.4z"/>
		<path class="st18" d="M23.6,84l5.9-2.8l-2.8-5.9l0,0l0,0c-1.5,0.7-2.8,2-3.4,3.7c-0.1,0.2-0.1,0.4-0.2,0.6
			C22.8,81.1,23,82.6,23.6,84z"/>
		<path class="st17" d="M32.3,87.1l-2.8-5.9l0,0l0,0L23.6,84l0,0l0,0c0.6,1.3,1.7,2.5,3.1,3.1c0.2,0.1,0.4,0.2,0.6,0.3
			C29,88,30.8,87.8,32.3,87.1z"/>
		<path class="st17" d="M26.9,75.3c0.6,1.8,1.9,2.7,3.6,3.3c1.7,0.6,3.4,0.8,5-0.2l-0.1-0.3l-2.7-5.4L27.4,75h-0.1L26.9,75.3z"/>
		<path class="st19" d="M79.8,53.7c0.4-0.4,0.8-0.9,1.1-1.3c2.8-4,2.5-9.5-1.1-13.1L75,44.1l-9.6,9.6C69.4,57.6,75.8,57.6,79.8,53.7
			z"/>
		<path class="st15" d="M48.7,60.6c-3.4,4.5-2.5,10.9,2,14.2c4.5,3.4,10.9,2.5,14.2-2L48.7,60.6z"/>
		<path class="st20" d="M42,141l-0.2,2.9l2.9,0.3c8.6,0.7,16.1-5.6,16.9-14.2l0.3-2.9l-2.9-0.2C50.3,126,42.7,132.4,42,141z"/>
		<path class="st20" d="M59.2,104.5l-1.2-0.1l-0.1,1.2c-0.2,3.7,2.7,6.9,6.4,7.1l1.2,0.1l0.1-1.2C65.7,107.8,62.9,104.7,59.2,104.5z
			"/>
		<path class="st20" d="M9.7,24.7l1.7,0.5l0.5-1.7c1.4-5.2-1.7-10.4-6.8-11.8l-1.7-0.5l-0.5,1.7C1.5,18,4.6,23.3,9.7,24.7z"/>
	</g>
</g>
</svg>
