<?xml version="1.0" encoding="utf-8"?>
<!-- Generator: Adobe Illustrator 26.3.1, SVG Export Plug-In . SVG Version: 6.00 Build 0)  -->
<svg version="1.1" id="layer-ounce" xmlns="http://www.w3.org/2000/svg" xmlns:xlink="http://www.w3.org/1999/xlink" x="0px"
	 y="0px" viewBox="0 0 260 160" style="enable-background:new 0 0 260 160;" xml:space="preserve">
<style type="text/css">
	.st0{fill:#0B9A69;}
	.st1{fill:#00B588;}
	.st2{fill:#0E8364;}
	.st3{fill:#626F5C;}
	.st4{fill:#7C8679;}
	.st5{fill:#BBBEAB;}
	.st6{fill:#46B976;}
	.st7{fill:#128C5E;}
	.st8{fill:#F15B68;}
	.st9{fill:#BE3027;}
	.st10{fill:#7C1315;}
	.st11{fill:#EF412C;}
	.st12{fill:#F7AEBE;}
	.st13{fill:#F04934;}
	.st14{fill:#E08738;}
	.st15{fill:#FDC88A;}
	.st16{fill:#F89E55;}
	.st17{fill:#FDEBCD;}
	.st18{fill:#231F20;}
	.st19{fill:#FCBD78;}
	.st20{fill:#FFFFFF;}
	.st21{fill:#8E600D;}
	.st22{fill:none;stroke:#F89E55;stroke-width:0.206;stroke-miterlimit:10;}
	.st23{fill:none;stroke:#E08738;stroke-width:0.206;stroke-miterlimit:10;}
	.st24{fill:#5B2F2B;}
	.st25{fill:none;stroke:#231F20;stroke-width:0.412;stroke-linecap:round;}
</style>
<g id="ounce-scene">
	<g>
		<path class="st0" d="M222.5,68.6H222c-6.7,0-12.1,4.9-12.1,11v69.6h24.7V79.6C234.6,73.5,229.2,68.6,222.5,68.6"/>
		<path class="st1" d="M247,83.5h-0.5c-6.7,0-12.1,5.4-12.1,12.1v53.6h24.7V95.5C259.1,88.9,253.7,83.5,247,83.5"/>
		<path class="st1" d="M198.2,83.5h-0.5c-6.7,0-12.1,5.4-12.1,12.1v53.6h24.7V95.5C210.3,88.9,204.9,83.5,198.2,83.5"/>
		<path class="st2" d="M173.6,102.4h-0.5c-6.7,0-12.1,5.4-12.1,12.1v34.7h24.7v-34.7C185.7,107.8,180.3,102.4,173.6,102.4"/>
		<path class="st3" d="M208.5,128.9c-11.2,0-20.2,9.1-20.2,20.2h40.4C228.7,138,219.6,128.9,208.5,128.9"/>
		<path class="st4" d="M208.5,136.7c-6.9,0-12.5,5.6-12.5,12.5h25C221,142.2,215.4,136.7,208.5,136.7"/>
		<path class="st5" d="M219.8,139.4c0,1.9-1.5,3.5-3.5,3.5c-1.9,0-3.5-1.5-3.5-3.5c0-1.9,1.5-3.5,3.5-3.5
			C218.2,136,219.8,137.5,219.8,139.4"/>
		<path class="st6" d="M222.7,137.3c0,2.3,1.9,4.2,4.2,4.2s4.2-1.9,4.2-4.2H222.7z"/>
		<rect x="229.6" y="127.6" class="st7" width="3" height="21.5"/>
		<polygon class="st8" points="240.8,130.9 221.5,130.9 226.9,118.2 230.8,122 		"/>
		<polygon class="st9" points="231.2,130.9 240.8,130.9 231.2,137 221.5,130.9 		"/>
		<polygon class="st10" points="231.2,130.9 231.2,137 240.8,130.9 		"/>
		<polygon class="st11" points="231.2,130.9 240.8,130.9 235.4,118.2 231.2,121.8 		"/>
		<path class="st7" d="M231.1,140.3c0,2.3,1.9,4.2,4.2,4.2s4.2-1.9,4.2-4.2H231.1z"/>
		<path class="st12" d="M226.9,118.2c0,2.4,1.9,4.3,4.3,4.3c2.4,0,4.3-1.9,4.3-4.3H226.9z"/>
		<path class="st13" d="M233.7,118.2c0,1.4-1.2,2.6-2.6,2.6c-1.4,0-2.6-1.2-2.6-2.6s1.2-2.6,2.6-2.6
			C232.6,115.6,233.7,116.7,233.7,118.2"/>
	</g>
	<g>
		<path class="st0" d="M57.3,76.6h-0.5c-6,0-10.9,4.4-10.9,9.9v62.7h22.3V86.5C68.2,81,63.3,76.6,57.3,76.6"/>
		<path class="st0" d="M79.6,90h-0.5c-6,0-10.9,4.9-10.9,10.9v48.3h22.3v-48.3C90.4,94.8,85.6,90,79.6,90"/>
		<path class="st1" d="M35.2,90h-0.5c-6,0-10.9,4.9-10.9,10.9v48.3H46v-48.3C46,94.8,41.2,90,35.2,90"/>
		<path class="st2" d="M13,107h-0.5c-6,0-10.9,4.9-10.9,10.9v31.3h22.3v-31.3C23.9,111.9,19,107,13,107"/>
		<path class="st2" d="M101.8,102.7h-0.5c-6,0-10.9,4.9-10.9,10.9v35.6h22.3v-35.6C112.7,107.6,107.8,102.7,101.8,102.7"/>
	</g>
</g>
<g id="ounce_00000178164886857876834660000008963910958703283594_">
	<g>
		<path class="st14" d="M128.9,149h67.3c0-8.8-6.6-15.8-14.7-15.8h-0.2c-18.7,0-37-6.2-52.4-17.7V149z"/>
		<path class="st15" d="M189.8,133.5c-2.7,0-5.4-0.1-8.1-0.3l0.1,15.9h22.8c0-8.6-6.5-15.6-14.6-15.6L189.8,133.5"/>
		<path class="st16" d="M119.3,149.1v-9.5h26.2h10.6h2.7c8.3,0,13.2-6.9,13.2-15.3l-0.2-15.1h-15.7l1.1-22.8h-17.1
			c-2.1,5.3-0.6,9.3-6.1,9.3H59.8c-2.6,0-5.2,0.3-7.7,1v52.4H119.3z"/>
		<path class="st17" d="M141,102.6l0.1,37h6.4h9.8h2.5c7.6,0,12.2-6.9,12.2-15.3l-0.2-15.1h-14.6v-6.6L141,102.6L141,102.6z"/>
		<path class="st16" d="M132.2,78.9c0-5.8,4.7-10.5,10.5-10.5s10.5,4.7,10.5,10.5s-4.7,10.5-10.5,10.5S132.2,84.7,132.2,78.9"/>
		<path class="st18" d="M136.9,78.9c0-3.2,2.6-5.8,5.8-5.8s5.8,2.6,5.8,5.8c0,3.2-2.6,5.8-5.8,5.8S136.9,82.1,136.9,78.9"/>
		<path class="st16" d="M164.7,78.9c0-5.8,4.7-10.5,10.5-10.5s10.5,4.7,10.5,10.5s-4.7,10.5-10.5,10.5S164.7,84.7,164.7,78.9"/>
		<path class="st18" d="M169.4,78.9c0-3.2,2.6-5.8,5.8-5.8s5.8,2.6,5.8,5.8c0,3.2-2.6,5.8-5.8,5.8S169.4,82.1,169.4,78.9"/>
		<path class="st18" d="M131.5,95.7L131.5,95.7c0,0.9-0.7,1.7-1.7,1.7c-0.9,0-1.7-0.7-1.7-1.7l0,0h-1.7l0,0c0,1.9,1.5,3.4,3.4,3.4
			s3.4-1.5,3.4-3.4l0,0H131.5z"/>
		<path class="st18" d="M118.9,95.7L118.9,95.7c0,0.9-0.7,1.7-1.7,1.7c-0.9,0-1.7-0.7-1.7-1.7l0,0h-1.7l0,0c0,1.9,1.5,3.4,3.4,3.4
			s3.4-1.5,3.4-3.4l0,0H118.9z"/>
		<path class="st18" d="M88.1,95.7L88.1,95.7c0,0.9-0.7,1.7-1.7,1.7c-0.9,0-1.7-0.7-1.7-1.7l0,0H83l0,0c0,1.9,1.5,3.4,3.4,3.4
			s3.4-1.5,3.4-3.4l0,0H88.1z"/>
		<path class="st18" d="M74.8,95.7L74.8,95.7c0,0.9-0.7,1.7-1.7,1.7c-0.9,0-1.7-0.7-1.7-1.7l0,0h-1.7l0,0c0,1.9,1.5,3.4,3.4,3.4
			s3.4-1.5,3.4-3.4l0,0H74.8z"/>
		<path class="st16" d="M138.8,90.8c0-11.1,9-20.2,20.2-20.2s20.2,9,20.2,20.2s-9,20.2-20.2,20.2S138.8,101.9,138.8,90.8"/>
		<path class="st14" d="M138.8,90.8c0-11.1,9-20.2,20.2-20.2s20.2,9,20.2,20.2s-9,20.2-20.2,20.2S138.8,101.9,138.8,90.8"/>
		<path class="st18" d="M155.6,70.9c0.1,1.7,1.5,3.1,3.2,3.1c1.8,0,3.3-1.4,3.4-3.1c-0.5-0.1-1-0.2-1.6-0.2c0,0.9-0.8,1.6-1.7,1.6
			s-1.7-0.7-1.7-1.6C156.7,70.7,156.1,70.8,155.6,70.9"/>
		<path class="st14" d="M152.3,108.2c0-3.2,3-5.8,6.6-5.8s6.6,2.6,6.6,5.8c0,3.2-2.9,5.8-6.6,5.8C155.3,114,152.3,111.4,152.3,108.2
			"/>
		<path class="st15" d="M142.7,98.8v5c0,4.5,3.6,8.1,8.1,8.1s8.1-3.6,8.1-8.1v-5H142.7z"/>
		<polygon class="st15" points="165.6,98.9 152.3,98.9 152.3,85.9 158.9,79 165.6,85.9 		"/>
		<path class="st16" d="M98.3,149.1h22.9v-10.9h28.1c0.5-2.1,0.8-4.4,0.8-6.7c0-16-12.9-28.9-28.9-28.9s-28.9,13-28.9,28.9
			C92.3,138.1,94.5,144.2,98.3,149.1L98.3,149.1z"/>
		<path class="st19" d="M58.4,95.8c-14.7-0.1-26.7,11.8-26.8,26.6c0,14.8,11.9,26.8,26.6,26.8c14.8,0,26.8-11.9,26.8-26.6
			C85,107.8,73.1,95.8,58.4,95.8"/>
		<path class="st14" d="M36.3,134.5c-4,0-7.4,3.3-7.4,7.3s3.3,7.3,7.3,7.3h69.4c0-8-6.5-14.6-14.6-14.6H36.3"/>
		<path class="st17" d="M82.8,134.5v14.6h22.8c0-8-6.5-14.6-14.6-14.6h-8.1H82.8z"/>
		<path class="st14" d="M121.1,149.1h67.2c0-8-6.5-14.6-14.6-14.6h-11.8c-11,0-21.6-4.2-29.7-11.6L121.1,149.1z"/>
		<path class="st14" d="M121.1,118.2c-8.5,0-15.3,7-15.3,15.5s6.9,15.4,15.4,15.4s15.4-6.9,15.4-15.4S129.7,118.2,121.1,118.2"/>
		<path class="st16" d="M15.1,134.5c-4.2,0.1-7.3,3.4-7.1,7.3c0,4.1,3.3,7.3,7.3,7.3h22V149c14.6,0,26.6-11.8,26.6-26.5
			c0-14.2-11.2-25.9-25.3-26.6c-0.4,0-0.9-0.1-1.3-0.1c-4,0-7.3,3.2-7.3,7.2s3.2,7.3,7.2,7.3l0,0l0,0c6.7,0,12.1,5.5,12.1,12.2
			c-0.1,6.7-5.5,12.1-12.2,12H15.1"/>
		<path class="st17" d="M37.2,95.8c-4,0-7.2,3.2-7.2,7.2s3.2,7.3,7.2,7.3l0,0l0,0c6.7,0,12.1,5.5,12.1,12.2c0,2.2-0.6,4.3-1.7,6.1
			c-1.6,3.6,0,7.9,3.6,9.6c3.6,1.6,7.9,0,9.6-3.6c1.9-3.6,3-7.7,3-12.1c0-14.2-11.2-25.9-25.3-26.6C38.1,95.9,37.6,95.8,37.2,95.8"
			/>
		<path class="st20" d="M142.8,87.2l0.9,0.9c2.1,2.1,5.6,2.1,7.7,0l0.9-0.9l-1-1c-2.1-2.1-5.6-2.1-7.7,0L142.8,87.2z"/>
		<path class="st21" d="M147.3,84.6c-1.4,0-2.5,1.2-2.5,2.5c0,1.4,1.1,2.5,2.5,2.5s2.5-1.1,2.5-2.5S148.7,84.6,147.3,84.6"/>
		<path class="st20" d="M175.2,87.2l-1-1c-2.1-2.1-5.6-2.1-7.7,0l-0.9,1l0.9,0.9c2.1,2.1,5.6,2.1,7.7,0L175.2,87.2z"/>
		<path class="st21" d="M170.5,89.7c1.4,0,2.6-1.1,2.5-2.5c0-1.4-1.1-2.5-2.5-2.5s-2.5,1.1-2.5,2.5S169.1,89.7,170.5,89.7"/>
		<path class="st18" d="M170.6,87.9c0.8,0,1.4-0.6,1.4-1.4s-0.6-1.4-1.4-1.4c-0.8,0-1.4,0.6-1.4,1.4S169.8,87.9,170.6,87.9"/>
		<path class="st18" d="M147.4,87.9c0.7,0,1.4-0.6,1.4-1.4s-0.6-1.4-1.4-1.4s-1.4,0.6-1.4,1.4S146.6,87.9,147.4,87.9"/>
		<path class="st20" d="M172,87c0.5,0,1-0.4,1-1s-0.5-1-1-1c-0.6,0-1,0.5-1,1C171,86.6,171.5,87,172,87"/>
		<path class="st20" d="M148.7,87c0.6,0,1-0.4,1-1s-0.5-1-1-1c-0.6,0-1,0.5-1,1C147.7,86.6,148.2,87,148.7,87"/>
		<path class="st18" d="M118.8,103.8c0-1,0.8-1.8,1.7-1.7c0.9,0,1.7,0.7,1.7,1.7c0,0.9-0.7,1.7-1.7,1.7
			C119.6,105.5,118.8,104.8,118.8,103.8 M117.2,103.8c0,1.9,1.5,3.4,3.4,3.4s3.4-1.5,3.4-3.4s-1.5-3.4-3.4-3.4
			S117.2,101.9,117.2,103.8"/>
		<path class="st18" d="M122.8,112.5c0-0.8,0.7-1.5,1.5-1.5s1.5,0.6,1.5,1.5c0,0.8-0.6,1.5-1.5,1.5
			C123.5,114,122.8,113.4,122.8,112.5 M121.3,112.5c0,1.7,1.4,3,3,3c1.7,0,3-1.3,3-3c0-1.6-1.3-3-3-3S121.3,110.8,121.3,112.5"/>
		<path class="st18" d="M123.6,124.6c0-0.8,0.7-1.5,1.5-1.5s1.5,0.6,1.5,1.5c0,0.8-0.6,1.5-1.5,1.5
			C124.3,126.1,123.6,125.5,123.6,124.6 M122.2,124.6c0,1.7,1.3,3.1,3,3c1.7,0,3-1.3,3-3c0-1.6-1.3-3-3-3S122.2,122.9,122.2,124.6"
			/>
		<path class="st18" d="M110.7,138.8c0-0.9,0.7-1.6,1.5-1.5c0.8,0,1.5,0.6,1.5,1.5c0,0.8-0.6,1.5-1.5,1.5
			C111.4,140.3,110.7,139.7,110.7,138.8 M109.3,138.8c0,1.7,1.3,3,3,3s3-1.3,3-3c0-1.6-1.3-3-3-3S109.3,137.1,109.3,138.8"/>
		<path class="st18" d="M120.4,136.4c0-0.8,0.7-1.5,1.5-1.5s1.5,0.6,1.5,1.5c0,0.8-0.6,1.5-1.5,1.5
			C121.1,137.9,120.4,137.3,120.4,136.4 M119,136.4c0,1.7,1.3,3.1,3,3c1.7,0,3-1.3,3-3c0-1.6-1.3-3-3-3S119,134.7,119,136.4"/>
		<path class="st18" d="M95.9,100c0-1,0.7-1.7,1.7-1.7c0.9,0,1.7,0.7,1.7,1.7c0,0.9-0.7,1.7-1.7,1.7C96.7,101.7,95.9,101,95.9,100
			 M94.2,100c0,1.9,1.5,3.4,3.4,3.4s3.4-1.5,3.4-3.4s-1.5-3.4-3.4-3.4S94.2,98.1,94.2,100"/>
		<path class="st18" d="M89,107c0-1,0.8-1.8,1.7-1.7c0.9,0,1.7,0.7,1.7,1.7c0,0.9-0.7,1.7-1.7,1.7C89.8,108.7,89,108,89,107
			 M87.4,107c0,1.9,1.5,3.4,3.4,3.4s3.4-1.5,3.4-3.4s-1.5-3.4-3.4-3.4S87.4,105.1,87.4,107"/>
		<path class="st18" d="M75.5,112.7c0-1,0.8-1.8,1.7-1.7c0.9,0,1.7,0.7,1.7,1.7c0,0.9-0.7,1.7-1.7,1.7
			C76.3,114.4,75.5,113.7,75.5,112.7 M73.8,112.7c0,1.8,1.6,3.4,3.4,3.4c1.9,0,3.4-1.5,3.4-3.4s-1.5-3.4-3.4-3.4
			S73.8,110.8,73.8,112.7"/>
		<path class="st18" d="M61.8,105.2c0-0.9,0.8-1.7,1.7-1.7s1.7,0.7,1.7,1.7c0,0.9-0.7,1.7-1.7,1.7C62.6,106.9,61.8,106.2,61.8,105.2
			 M60.2,105.2c0,1.9,1.5,3.5,3.4,3.4c1.9,0,3.4-1.5,3.4-3.4s-1.5-3.4-3.4-3.4C61.7,101.8,60.2,103.3,60.2,105.2"/>
		<path class="st18" d="M37.8,116.1c0-0.9,0.8-1.7,1.7-1.7s1.7,0.7,1.7,1.7c0,0.9-0.7,1.7-1.7,1.7C38.6,117.8,37.8,117.1,37.8,116.1
			 M36.2,116.1c0,1.9,1.5,3.5,3.4,3.4c1.9,0,3.4-1.5,3.4-3.4s-1.5-3.4-3.4-3.4S36.2,114.2,36.2,116.1"/>
		<path class="st18" d="M13.5,139.4c0-0.9,0.8-1.7,1.7-1.7c0.9,0,1.7,0.8,1.7,1.7s-0.7,1.7-1.7,1.7
			C14.3,141.1,13.5,140.4,13.5,139.4 M11.9,139.4c0,1.9,1.5,3.4,3.4,3.4s3.4-1.5,3.4-3.4s-1.5-3.4-3.4-3.4S11.9,137.5,11.9,139.4"/>
		<path class="st18" d="M81.4,103.5c0-0.8,0.7-1.5,1.4-1.4c0.8,0,1.4,0.6,1.4,1.4s-0.6,1.4-1.4,1.4C82,104.9,81.4,104.3,81.4,103.5
			 M80,103.5c0,1.6,1.3,2.8,2.8,2.8s2.8-1.2,2.8-2.8c0-1.5-1.3-2.8-2.8-2.8S80,101.9,80,103.5"/>
		<path class="st18" d="M43.8,122.8c0-0.8,0.6-1.4,1.4-1.4c0.8,0,1.4,0.6,1.4,1.4c0,0.8-0.6,1.4-1.4,1.4
			C44.4,124.2,43.8,123.6,43.8,122.8 M42.4,122.8c0,1.6,1.3,2.9,2.8,2.8c1.5,0,2.8-1.2,2.8-2.8c0-1.5-1.2-2.8-2.8-2.8
			C43.7,120,42.4,121.2,42.4,122.8"/>
		<path class="st18" d="M22.4,145.1c0-0.8,0.6-1.5,1.4-1.4c0.8,0,1.4,0.6,1.4,1.4c0,0.8-0.6,1.4-1.4,1.4
			C23,146.5,22.4,145.9,22.4,145.1 M21,145.1c0,1.6,1.3,2.8,2.8,2.8s2.8-1.2,2.8-2.8c0-1.5-1.3-2.8-2.8-2.8S21,143.5,21,145.1"/>
		<path class="st18" d="M29.1,138.7c0-0.8,0.6-1.5,1.4-1.4c0.8,0,1.4,0.6,1.4,1.4s-0.6,1.4-1.4,1.4S29.1,139.5,29.1,138.7
			 M27.7,138.7c0,1.6,1.3,2.8,2.8,2.8s2.8-1.3,2.8-2.8s-1.2-2.8-2.8-2.8C29,135.9,27.7,137.1,27.7,138.7"/>
		<path class="st18" d="M72.4,104.2c0-0.8,0.7-1.4,1.4-1.4c0.8,0,1.4,0.6,1.4,1.4s-0.6,1.4-1.4,1.4S72.4,105,72.4,104.2 M71.1,104.2
			c0,1.6,1.2,2.8,2.8,2.8c1.5,0,2.8-1.2,2.8-2.8c0-1.5-1.2-2.8-2.8-2.8C72.4,101.4,71.1,102.6,71.1,104.2"/>
		<path class="st18" d="M87.6,115.4c0-0.8,0.6-1.4,1.4-1.4s1.4,0.6,1.4,1.4s-0.6,1.4-1.4,1.4S87.6,116.2,87.6,115.4 M86.2,115.4
			c0,1.6,1.3,2.8,2.8,2.8s2.8-1.2,2.8-2.8c0-1.5-1.2-2.8-2.8-2.8C87.5,112.6,86.2,113.8,86.2,115.4"/>
		<path class="st18" d="M66,115.6c0-0.8,0.7-1.5,1.4-1.4c0.8,0,1.4,0.6,1.4,1.4s-0.6,1.4-1.4,1.4S66,116.4,66,115.6 M64.7,115.6
			c0,1.5,1.2,2.8,2.8,2.8c1.5,0,2.8-1.2,2.8-2.8c0-1.5-1.2-2.8-2.8-2.8C66,112.8,64.7,114,64.7,115.6"/>
		<path class="st18" d="M96,117.3c0-0.7,0.6-1.3,1.3-1.3c0.7,0,1.3,0.6,1.3,1.3c0,0.7-0.6,1.3-1.3,1.3S96,118,96,117.3 M94.7,117.3
			c0,1.4,1.2,2.6,2.6,2.6s2.6-1.2,2.6-2.6s-1.2-2.6-2.6-2.6S94.7,115.9,94.7,117.3"/>
		<path class="st18" d="M104.8,118.2c0-0.6,0.5-1.1,1.1-1.1s1.1,0.5,1.1,1.1s-0.5,1.1-1.1,1.1S104.8,118.8,104.8,118.2 M103.7,118.2
			c0,1.3,1,2.3,2.2,2.2c1.2,0,2.2-1,2.2-2.2s-1-2.2-2.2-2.2S103.7,117,103.7,118.2"/>
		<path class="st18" d="M134.4,114.7c0-0.7,0.5-1.2,1.1-1.1c0.6,0,1.1,0.5,1.1,1.1s-0.5,1.1-1.1,1.1S134.4,115.3,134.4,114.7
			 M133.3,114.7c0,1.2,1,2.2,2.2,2.2s2.2-1,2.2-2.2s-1-2.2-2.2-2.2S133.3,113.5,133.3,114.7"/>
		<path class="st18" d="M107.2,100.8c0-1.1,0.9-2.1,2.1-2.1s2.1,0.9,2.1,2.1s-1,2.1-2.1,2.1C108.1,102.9,107.2,102,107.2,100.8
			 M105.2,100.8c0,2.3,1.8,4.1,4.1,4.1s4.1-1.8,4.1-4.1c0-2.3-1.9-4.1-4.1-4.1C107,96.7,105.2,98.5,105.2,100.8"/>
		<path class="st22" d="M109.3,98.7c1.2,0,2.1,0.9,2.1,2.1s-1,2.1-2.1,2.1c-1.2,0-2.1-0.9-2.1-2.1C107.2,99.7,108.1,98.7,109.3,98.7
			z M109.3,104.9c2.3,0,4.1-1.8,4.1-4.1c0-2.3-1.9-4.1-4.1-4.1c-2.3,0-4.1,1.8-4.1,4.1S107,104.9,109.3,104.9z"/>
		<path class="st18" d="M99.4,109.3c0-1.2,0.9-2.1,2.1-2.1s2.1,0.9,2.1,2.1s-1,2.1-2.1,2.1C100.3,111.4,99.4,110.5,99.4,109.3
			 M97.4,109.3c0,2.2,1.8,4.1,4.1,4.1s4.1-1.8,4.1-4.1c0-2.3-1.8-4.1-4.1-4.1S97.4,107,97.4,109.3"/>
		<path class="st22" d="M101.5,107.2c1.2,0,2.1,0.9,2.1,2.1s-1,2.1-2.1,2.1c-1.2,0-2.1-0.9-2.1-2.1S100.3,107.2,101.5,107.2z
			 M101.5,113.4c2.3,0,4.1-1.8,4.1-4.1c0-2.3-1.8-4.1-4.1-4.1s-4.1,1.8-4.1,4.1C97.4,111.5,99.2,113.4,101.5,113.4z"/>
		<path class="st18" d="M111,111.4c0-1.1,0.9-2.1,2.1-2.1s2.1,0.9,2.1,2.1s-1,2.1-2.1,2.1C111.9,113.5,111,112.6,111,111.4
			 M109,111.4c0,2.3,1.8,4.1,4.1,4.1s4.1-1.8,4.1-4.1c0-2.3-1.8-4.1-4.1-4.1S109,109.1,109,111.4"/>
		<path class="st22" d="M113.1,109.3c1.2,0,2.1,0.9,2.1,2.1s-1,2.1-2.1,2.1c-1.2,0-2.1-0.9-2.1-2.1
			C111,110.3,111.9,109.3,113.1,109.3z M113.1,115.5c2.3,0,4.1-1.8,4.1-4.1c0-2.3-1.8-4.1-4.1-4.1s-4.1,1.8-4.1,4.1
			S110.8,115.5,113.1,115.5z"/>
		<path class="st18" d="M112,127.9c0-1.2,0.9-2.1,2.1-2.1s2.1,0.9,2.1,2.1c0,1.2-1,2.1-2.1,2.1C112.9,130,112,129.1,112,127.9
			 M110,127.9c0,2.2,1.8,4.1,4.1,4.1s4.1-1.8,4.1-4.1s-1.8-4.1-4.1-4.1S110,125.6,110,127.9"/>
		<path class="st23" d="M114.1,125.8c1.2,0,2.1,0.9,2.1,2.1c0,1.2-1,2.1-2.1,2.1c-1.2,0-2.1-0.9-2.1-2.1S112.9,125.8,114.1,125.8z
			 M114.1,132c2.3,0,4.1-1.8,4.1-4.1s-1.8-4.1-4.1-4.1s-4.1,1.8-4.1,4.1C110,130.1,111.8,132,114.1,132z"/>
		<path class="st18" d="M129.9,105.2c0-1.2,0.9-2.1,2.1-2.1s2.1,0.9,2.1,2.1s-1,2.1-2.1,2.1C130.8,107.3,129.9,106.4,129.9,105.2
			 M127.9,105.2c0,2.2,1.8,4.1,4.1,4.1s4.1-1.8,4.1-4.1c0-2.3-1.8-4.1-4.1-4.1S127.9,102.9,127.9,105.2"/>
		<path class="st22" d="M132,103.1c1.2,0,2.1,0.9,2.1,2.1s-1,2.1-2.1,2.1c-1.2,0-2.1-0.9-2.1-2.1S130.8,103.1,132,103.1z M132,109.3
			c2.3,0,4.1-1.8,4.1-4.1c0-2.3-1.8-4.1-4.1-4.1s-4.1,1.8-4.1,4.1C127.9,107.4,129.7,109.3,132,109.3z"/>
		<path class="st18" d="M100.6,126.9c1.2,0,2.2-0.9,2.2-2.1s-1-2.1-2.2-2.1s-2.2,0.9-2.2,2.1S99.4,126.9,100.6,126.9"/>
		<path class="st18" d="M128.1,146c1.3,0,2.2-0.9,2.2-2.1s-1-2.1-2.2-2.1s-2.2,0.9-2.2,2.1S126.9,146,128.1,146"/>
		<path class="st18" d="M131.8,136c1.2,0,2.2-0.9,2.2-2.1s-1-2.1-2.2-2.1s-2.2,0.9-2.2,2.1S130.6,136,131.8,136"/>
		<path class="st18" d="M142.4,138c1,0,1.8-0.8,1.8-1.7s-0.8-1.7-1.8-1.7s-1.8,0.8-1.8,1.7S141.4,138,142.4,138"/>
		<path class="st18" d="M141.6,145.8c1.1,0,1.9-0.8,1.8-1.7c0-0.9-0.8-1.7-1.8-1.7s-1.8,0.8-1.8,1.7S140.6,145.8,141.6,145.8"/>
		<path class="st18" d="M173.6,136.6c1.2,0,2.2-0.9,2.2-2.1s-1-2.1-2.2-2.1s-2.2,0.9-2.2,2.1S172.4,136.6,173.6,136.6"/>
		<path class="st18" d="M182.2,138.2c1.3,0,2.2-0.9,2.2-2.1s-1-2.1-2.2-2.1s-2.2,0.9-2.2,2.1S181,138.2,182.2,138.2"/>
		<path class="st18" d="M142,121.4c1.2,0,2.2-0.9,2.2-2.1c0-1.2-1-2.1-2.2-2.1s-2.2,1-2.2,2.1C139.8,120.5,140.8,121.4,142,121.4"/>
		<path class="st18" d="M166.7,114.4c1.2,0,2.2-0.9,2.2-2.1s-1-2.1-2.2-2.1s-2.2,0.9-2.2,2.1S165.5,114.4,166.7,114.4"/>
		<path class="st18" d="M150.2,118.2c1.3,0,2.2-0.9,2.2-2.1s-1-2.1-2.2-2.1s-2.2,0.9-2.2,2.1S149,118.2,150.2,118.2"/>
		<path class="st18" d="M167.4,122.7c1.1,0,1.9-0.8,1.9-1.8s-0.8-1.8-1.9-1.8c-1,0-1.9,0.8-1.9,1.8S166.3,122.7,167.4,122.7"/>
		<path class="st18" d="M157.8,123.6c1,0,1.8-0.8,1.7-1.6c0-0.9-0.7-1.6-1.7-1.6c-0.9,0-1.7,0.7-1.7,1.6S156.8,123.6,157.8,123.6"/>
		<path class="st18" d="M72.4,125.2c1.3,0,2.2-0.9,2.2-2.1s-1-2.1-2.2-2.1s-2.2,0.9-2.2,2.1S71.2,125.2,72.4,125.2"/>
		<path class="st18" d="M63.2,141.1c1.3,0,2.3-0.9,2.2-2.1c0-1.2-1-2.1-2.2-2.1s-2.2,1-2.2,2.1C61,140.2,62,141.1,63.2,141.1"/>
		<path class="st18" d="M69.8,147.1c1.2,0,2.2-0.9,2.2-2.1s-1-2.1-2.2-2.1s-2.2,0.9-2.2,2.1S68.6,147.1,69.8,147.1"/>
		<path class="st18" d="M36.5,130.4c1.2,0,2.2-0.9,2.2-2.1c0-1.2-1-2.1-2.2-2.1s-2.2,1-2.2,2.1C34.3,129.5,35.3,130.4,36.5,130.4"/>
		<path class="st18" d="M38.8,147c1.2,0,2.2-0.9,2.2-2.1s-1-2.1-2.2-2.1s-2.2,0.9-2.2,2.1S37.6,147,38.8,147"/>
		<path class="st18" d="M91,124.4c0.9,0,1.7-0.8,1.7-1.7c0-1-0.7-1.7-1.7-1.7s-1.7,0.8-1.7,1.7C89.3,123.7,90.1,124.4,91,124.4"/>
		<path class="st18" d="M81.1,122.3c1,0,1.7-0.8,1.7-1.7c0-1-0.8-1.7-1.7-1.7c-1,0-1.7,0.8-1.7,1.7
			C79.4,121.6,80.2,122.3,81.1,122.3"/>
		<path class="st18" d="M87.7,130.9c0.9,0,1.6-0.7,1.7-1.7c0-1-0.8-1.7-1.7-1.7c-1,0-1.7,0.8-1.7,1.7
			C86,130.2,86.8,130.9,87.7,130.9"/>
		<path class="st18" d="M102.1,134.3c0.7,0,1.3-0.6,1.3-1.3s-0.6-1.3-1.3-1.3c-0.7,0-1.3,0.6-1.3,1.3S101.4,134.3,102.1,134.3"/>
		<path class="st18" d="M154.5,137.6c0.7,0,1.3-0.5,1.3-1.3c0-0.7-0.6-1.3-1.3-1.3s-1.3,0.6-1.3,1.3S153.8,137.6,154.5,137.6"/>
		<path class="st18" d="M193.7,139.1c0.7,0,1.3-0.6,1.3-1.3s-0.6-1.3-1.3-1.3s-1.3,0.6-1.3,1.3S193,139.1,193.7,139.1"/>
		<path class="st18" d="M161.2,143.8c0.7,0,1.3-0.6,1.3-1.3s-0.6-1.3-1.3-1.3s-1.3,0.6-1.3,1.3S160.5,143.8,161.2,143.8"/>
		<path class="st18" d="M151.6,147c0.7,0,1.3-0.6,1.3-1.3s-0.6-1.3-1.3-1.3s-1.3,0.6-1.3,1.3S150.9,147,151.6,147"/>
		<path class="st18" d="M95.4,131.7c0.6,0,1.2-0.5,1.2-1.1s-0.5-1.1-1.2-1.1s-1.2,0.5-1.2,1.1S94.7,131.7,95.4,131.7"/>
		<path class="st18" d="M135.6,123.3c0.6,0,1.2-0.5,1.2-1.1s-0.5-1.1-1.2-1.1s-1.2,0.5-1.2,1.1S134.9,123.3,135.6,123.3"/>
		<path class="st18" d="M144,127.4c0.7,0,1.2-0.5,1.2-1.1s-0.5-1.1-1.2-1.1s-1.2,0.5-1.2,1.1S143.3,127.4,144,127.4"/>
		<path class="st18" d="M153.2,130.9c0.6,0,1.2-0.5,1.2-1.1s-0.5-1.1-1.2-1.1s-1.2,0.5-1.2,1.1S152.5,130.9,153.2,130.9"/>
		<path class="st18" d="M163.2,129.6c0.7,0,1.2-0.5,1.2-1.1s-0.5-1.1-1.2-1.1s-1.2,0.5-1.2,1.1S162.5,129.6,163.2,129.6"/>
		<path class="st18" d="M80.6,128.8c0.7,0,1.2-0.5,1.2-1.1s-0.5-1.1-1.2-1.1s-1.2,0.5-1.2,1.1S79.9,128.8,80.6,128.8"/>
		<path class="st18" d="M74.8,132.9c0.6,0,1.2-0.5,1.2-1.1s-0.5-1.1-1.2-1.1s-1.2,0.5-1.2,1.1S74.1,132.9,74.8,132.9"/>
		<path class="st18" d="M73.9,138.4c0.7,0,1.2-0.5,1.2-1.1s-0.5-1.1-1.2-1.1s-1.2,0.5-1.2,1.1S73.2,138.4,73.9,138.4"/>
		<path class="st18" d="M80.2,143.4c0.6,0,1.1-0.5,1.2-1.1c0-0.6-0.5-1.1-1.2-1.1s-1.2,0.5-1.2,1.1S79.5,143.4,80.2,143.4"/>
		<path class="st18" d="M86.6,146.9c0.6,0,1.1-0.5,1.2-1.1c0-0.6-0.5-1.1-1.2-1.1s-1.2,0.5-1.2,1.1S85.9,146.9,86.6,146.9"/>
		<path class="st18" d="M98.3,147.2c0.7,0,1.2-0.5,1.2-1.1S99,145,98.3,145s-1.2,0.5-1.2,1.1S97.6,147.2,98.3,147.2"/>
		<path class="st18" d="M95.4,139.6c0.7,0,1.2-0.5,1.2-1.1s-0.5-1.1-1.2-1.1s-1.2,0.5-1.2,1.1S94.7,139.6,95.4,139.6"/>
		<path class="st18" d="M85.7,138.3c0.6,0,1.2-0.5,1.2-1.1s-0.5-1.1-1.2-1.1s-1.2,0.5-1.2,1.1S85,138.3,85.7,138.3"/>
		<path class="st18" d="M67.4,130.6c0.6,0,1.1-0.5,1.2-1.1c0-0.6-0.5-1.1-1.2-1.1s-1.2,0.5-1.2,1.1S66.7,130.6,67.4,130.6"/>
		<path class="st18" d="M43.4,130.6c0.6,0,1.1-0.5,1.2-1.1c0-0.6-0.5-1.1-1.2-1.1s-1.2,0.5-1.2,1.1S42.7,130.6,43.4,130.6"/>
		<path class="st18" d="M42.9,138.2c0.9,0,1.5-0.7,1.5-1.5s-0.7-1.5-1.5-1.5s-1.5,0.7-1.5,1.5S42.1,138.2,42.9,138.2"/>
		<path class="st18" d="M57.3,134c0.8,0,1.5-0.7,1.5-1.5s-0.7-1.5-1.5-1.5s-1.5,0.7-1.5,1.5S56.5,134,57.3,134"/>
		<path class="st18" d="M52.1,128.3c0.8,0,1.5-0.7,1.5-1.5s-0.7-1.5-1.5-1.5s-1.5,0.7-1.5,1.5S51.3,128.3,52.1,128.3"/>
		<path class="st18" d="M58.2,120.6c0.8,0,1.5-0.7,1.5-1.5s-0.7-1.5-1.5-1.5s-1.5,0.7-1.5,1.5S57.4,120.6,58.2,120.6"/>
		<path class="st18" d="M52.2,117c0.8,0,1.5-0.7,1.5-1.5S53,114,52.2,114s-1.5,0.7-1.5,1.5S51.4,117,52.2,117"/>
		<path class="st18" d="M53.8,109.3c0.8,0,1.5-0.7,1.5-1.5s-0.7-1.5-1.5-1.5s-1.5,0.7-1.5,1.5S53,109.3,53.8,109.3"/>
		<path class="st18" d="M49,142.4c0.9,0,1.5-0.7,1.5-1.5s-0.7-1.5-1.5-1.5s-1.5,0.7-1.5,1.5S48.2,142.4,49,142.4"/>
		<path class="st18" d="M42.8,109.8c0.6,0,1.2-0.5,1.2-1.1s-0.5-1.1-1.2-1.1s-1.2,0.5-1.2,1.1S42.1,109.8,42.8,109.8"/>
		<path class="st18" d="M41.9,100.9c0.7,0,1.2-0.5,1.2-1.1s-0.5-1.1-1.2-1.1s-1.2,0.5-1.2,1.1S41.2,100.9,41.9,100.9"/>
		<path class="st18" d="M34.3,105c0.7,0,1.2-0.5,1.2-1.1s-0.5-1.1-1.2-1.1s-1.2,0.5-1.2,1.1S33.6,105,34.3,105"/>
		<path class="st18" d="M164.3,76.5c0.8,0,1.4-0.6,1.4-1.4s-0.6-1.4-1.4-1.4s-1.4,0.6-1.4,1.4S163.5,76.5,164.3,76.5"/>
		<path class="st18" d="M152.3,76.2c0.8,0,1.4-0.7,1.4-1.4c0-0.8-0.6-1.4-1.4-1.4s-1.4,0.6-1.4,1.4S151.5,76.2,152.3,76.2"/>
		<path class="st18" d="M155.9,78.9c0.8,0,1.4-0.7,1.4-1.4c0-0.8-0.6-1.4-1.4-1.4s-1.4,0.6-1.4,1.4S155.1,78.9,155.9,78.9"/>
		<path class="st18" d="M164.9,83c0.5,0,1-0.4,1-1c0-0.5-0.4-1-1-1c-0.5,0-1,0.4-1,1C163.9,82.5,164.3,83,164.9,83"/>
		<path class="st18" d="M153.8,81.9c0.6,0,1-0.5,1-1s-0.4-1-1-1c-0.5,0-1,0.5-1,1S153.2,81.9,153.8,81.9"/>
		<path class="st18" d="M147.4,78.8c0.6,0,1.1-0.4,1-1c0-0.5-0.4-1-1-1c-0.5,0-1,0.4-1,1C146.4,78.3,146.8,78.8,147.4,78.8"/>
		<path class="st18" d="M168.4,77.4c0.6,0,1.1-0.5,1-1c0-0.5-0.4-1-1-1c-0.5,0-1,0.4-1,1C167.4,76.9,167.8,77.4,168.4,77.4"/>
		<path class="st18" d="M167,80c0.5,0,0.9-0.4,0.9-0.8s-0.4-0.8-0.9-0.8s-0.9,0.3-0.9,0.8C166.1,79.6,166.5,80,167,80"/>
		<path class="st18" d="M173.6,82.3c0.4,0,0.7-0.3,0.6-0.6c0-0.3-0.3-0.6-0.6-0.6s-0.6,0.3-0.6,0.6C173,82,173.2,82.3,173.6,82.3"/>
		<path class="st18" d="M170.2,82.4c0.3,0,0.6-0.3,0.6-0.6c0-0.3-0.2-0.6-0.6-0.6c-0.3,0-0.6,0.3-0.6,0.6
			C169.6,82.1,169.8,82.4,170.2,82.4"/>
		<path class="st18" d="M161.1,79.2c0.3,0,0.6-0.3,0.6-0.6s-0.2-0.6-0.6-0.6c-0.3,0-0.6,0.3-0.6,0.6S160.7,79.2,161.1,79.2"/>
		<path class="st18" d="M151,79c0.3,0,0.6-0.3,0.6-0.6s-0.2-0.6-0.6-0.6c-0.3,0-0.6,0.3-0.6,0.6S150.6,79,151,79"/>
		<path class="st18" d="M144.4,83.9c0.4,0,0.7-0.3,0.6-0.6c0-0.3-0.2-0.6-0.6-0.6c-0.3,0-0.6,0.3-0.6,0.6
			C143.8,83.6,144,83.9,144.4,83.9"/>
		<path class="st18" d="M148.9,82.9c0.4,0,0.7-0.3,0.6-0.6c0-0.3-0.2-0.6-0.6-0.6c-0.3,0-0.6,0.3-0.6,0.6
			C148.3,82.6,148.5,82.9,148.9,82.9"/>
		<path class="st18" d="M144.6,80.7c0.3,0,0.6-0.2,0.6-0.6c0-0.3-0.2-0.6-0.6-0.6c-0.3,0-0.6,0.3-0.6,0.6S144.2,80.7,144.6,80.7"/>
		<path class="st18" d="M160.1,76.4c0.4,0,0.7-0.3,0.6-0.6c0-0.3-0.2-0.6-0.6-0.6c-0.3,0-0.6,0.3-0.6,0.6
			C159.5,76.1,159.7,76.4,160.1,76.4"/>
		<path class="st18" d="M176.3,85.2c0.3,0,0.6-0.3,0.6-0.6s-0.2-0.6-0.6-0.6c-0.3,0-0.6,0.3-0.6,0.6S175.9,85.2,176.3,85.2"/>
		<path class="st18" d="M176.1,90.5c0.4,0,0.7-0.3,0.6-0.6c0-0.3-0.2-0.6-0.6-0.6c-0.3,0-0.6,0.3-0.6,0.6S175.7,90.5,176.1,90.5"/>
		<path class="st18" d="M142.1,90.5c-0.3,0-0.6-0.3-0.6-0.6s0.2-0.6,0.6-0.6c0.3,0,0.6,0.3,0.6,0.6
			C142.7,90.2,142.5,90.5,142.1,90.5"/>
		<path class="st18" d="M168.5,92.2c0.3,0,0.6-0.3,0.6-0.6s-0.3-0.6-0.6-0.6s-0.6,0.3-0.6,0.6S168.1,92.2,168.5,92.2"/>
		<path class="st18" d="M149.8,92.2c-0.4,0-0.7-0.3-0.6-0.6c0-0.3,0.2-0.6,0.6-0.6c0.3,0,0.6,0.3,0.6,0.6
			C150.4,91.9,150.2,92.2,149.8,92.2"/>
		<path class="st18" d="M175,93.8c0.3,0,0.6-0.3,0.6-0.6c0-0.3-0.2-0.6-0.6-0.6c-0.3,0-0.6,0.3-0.6,0.6
			C174.4,93.5,174.6,93.8,175,93.8"/>
		<path class="st18" d="M145.6,93.9c-0.4,0-0.7-0.3-0.6-0.6c0-0.3,0.3-0.6,0.6-0.6s0.6,0.3,0.6,0.6C146.2,93.6,146,93.9,145.6,93.9"
			/>
		<path class="st18" d="M176.1,97c0.4,0,0.6-0.3,0.6-0.6s-0.2-0.6-0.6-0.6c-0.3,0-0.6,0.3-0.6,0.6S175.7,97,176.1,97"/>
		<path class="st18" d="M142,94.1c-0.4,0-0.7-0.3-0.6-0.6c0-0.3,0.2-0.6,0.6-0.6c0.3,0,0.6,0.3,0.6,0.6S142.4,94.1,142,94.1"/>
		<path class="st18" d="M171.7,93.9c0.4,0,0.7-0.3,0.6-0.6c0-0.3-0.3-0.6-0.6-0.6s-0.6,0.3-0.6,0.6
			C171.1,93.6,171.3,93.9,171.7,93.9"/>
		<path class="st18" d="M170.7,97.5c0.4,0,0.7-0.2,0.6-0.6c0-0.3-0.3-0.6-0.6-0.6s-0.6,0.3-0.6,0.6
			C170.1,97.2,170.3,97.5,170.7,97.5"/>
		<path class="st18" d="M147,97.7c-0.3,0-0.6-0.3-0.6-0.6s0.2-0.6,0.6-0.6c0.3,0,0.6,0.3,0.6,0.6S147.4,97.7,147,97.7"/>
		<path class="st18" d="M168.3,95.5c0.4,0,0.7-0.3,0.6-0.6c0-0.3-0.2-0.6-0.6-0.6c-0.3,0-0.6,0.3-0.6,0.6S167.9,95.5,168.3,95.5"/>
		<path class="st18" d="M149.9,95.5c-0.3,0-0.6-0.3-0.6-0.6s0.2-0.6,0.6-0.6c0.3,0,0.6,0.3,0.6,0.6S150.3,95.5,149.9,95.5"/>
		<path class="st18" d="M140.5,97.5c-0.4,0-0.6-0.3-0.6-0.6s0.2-0.6,0.6-0.6c0.3,0,0.6,0.3,0.6,0.6S140.9,97.5,140.5,97.5"/>
		<path class="st18" d="M63.9,95.7L63.9,95.7c0,0.9-0.7,1.7-1.7,1.7c-0.9,0-1.7-0.7-1.7-1.7l0,0h-1.7l0,0c0,1.9,1.5,3.4,3.4,3.4
			c1.9,0,3.4-1.5,3.4-3.4l0,0H63.9z"/>
		<path class="st18" d="M31.8,125.9c1.8-0.2,3.1-1.6,3.1-3.2c0-1.8-1.4-3.3-3.1-3.4c-0.1,0.5-0.2,1-0.2,1.6c0.9,0,1.6,0.8,1.6,1.7
			s-0.7,1.7-1.6,1.7C31.6,124.8,31.7,125.4,31.8,125.9"/>
		<path class="st17" d="M165.6,149.1h22.7c0-8-6.5-14.6-14.6-14.6h-8.1L165.6,149.1L165.6,149.1z"/>
		<path class="st15" d="M159,98.8v5c0,4.5,3.6,8.1,8.1,8.1s8.1-3.6,8.1-8.1v-5H159z"/>
		<polygon class="st24" points="165.6,98.8 158.9,104.6 152.3,98.8 		"/>
		<path class="st18" d="M170.8,139.8c0.7,0,1.3-0.5,1.3-1.3c0-0.7-0.6-1.3-1.3-1.3s-1.3,0.6-1.3,1.3S170.1,139.8,170.8,139.8"/>
		<path class="st18" d="M169.5,147.1c0.7,0,1.3-0.6,1.3-1.3s-0.6-1.3-1.3-1.3s-1.3,0.6-1.3,1.3S168.8,147.1,169.5,147.1"/>
		<path class="st18" d="M181.7,147.8c0.7,0,1.3-0.5,1.3-1.3c0-0.7-0.6-1.3-1.3-1.3s-1.3,0.6-1.3,1.3S181,147.8,181.7,147.8"/>
		<path class="st18" d="M178.2,142.3c0.7,0,1.3-0.6,1.3-1.3s-0.6-1.3-1.3-1.3s-1.3,0.6-1.3,1.3S177.5,142.3,178.2,142.3"/>
		<path class="st18" d="M191.8,147.9c0.7,0,1.3-0.6,1.3-1.3s-0.6-1.3-1.3-1.3s-1.3,0.6-1.3,1.3S191.1,147.9,191.8,147.9"/>
		<path class="st18" d="M198.2,144.8c0.8,0,1.3-0.6,1.3-1.3s-0.6-1.3-1.3-1.3s-1.3,0.6-1.3,1.3S197.5,144.8,198.2,144.8"/>
		<path class="st18" d="M29.9,103c0,4,3.2,7.2,7.3,7.2l0,0l0,0c2.4,0,4.7,0.8,6.6,2c3.4-2.7,5.6-6.8,5.6-11.4c0-0.7-0.1-1.4-0.2-2.1
			c-3.3-1.6-6.9-2.6-10.7-2.8c-0.4,0-0.9-0.1-1.3-0.1C33.2,95.8,29.9,99,29.9,103"/>
		<line class="st25" x1="167.6" y1="102.1" x2="183.4" y2="102.1"/>
		<line class="st25" x1="167.8" y1="103.9" x2="183.4" y2="106.5"/>
		<line class="st25" x1="167.6" y1="106.1" x2="182.5" y2="111.4"/>
		<line class="st25" x1="150.5" y1="102.1" x2="134.7" y2="102.1"/>
		<line class="st25" x1="150.3" y1="103.9" x2="134.7" y2="106.5"/>
		<line class="st25" x1="150.5" y1="106.1" x2="135.6" y2="111.4"/>
		<path class="st18" d="M188.3,142.2c0.7,0,1.3-0.6,1.3-1.3s-0.6-1.3-1.3-1.3s-1.3,0.6-1.3,1.3S187.6,142.2,188.3,142.2"/>
	</g>
</g>
</svg>
