<?xml version="1.0" encoding="utf-8"?>
<!-- Generator: Adobe Illustrator 26.3.1, SVG Export Plug-In . SVG Version: 6.00 Build 0)  -->
<svg version="1.1" id="layer-monkey" xmlns="http://www.w3.org/2000/svg" xmlns:xlink="http://www.w3.org/1999/xlink" x="0px"
	 y="0px" viewBox="0 0 260 160" style="enable-background:new 0 0 260 160;" xml:space="preserve">
<style type="text/css">
	.st0{fill:#F5874D;}
	.st1{fill:#72341F;}
	.st2{fill:#894C35;}
	.st3{fill:#F99E2B;}
	.st4{fill:#D14E1D;}
	.st5{fill:#F16122;}
	.st6{fill:#231F20;}
	.st7{fill:#FFFFFF;}
	.st8{fill:none;stroke:#231F20;stroke-width:0.744;stroke-linecap:round;}
	.st9{fill:#139E49;}
	.st10{fill:#3CB048;}
	.st11{fill:#F99F1C;}
	.st12{fill:#F8BD35;}
	.st13{fill:#FED100;}
	.st14{fill:#008035;}
	.st15{fill:#FFC907;}
	.st16{fill:#F05159;}
	.st17{fill:#3EB549;}
	.st18{fill:#FFDEB6;}
</style>
<g id="monkey">
	<g>
		<rect x="149.1" y="65.2" class="st0" width="25.3" height="9.4"/>
		<rect x="174.2" y="37.9" class="st0" width="9.4" height="27.5"/>
		<path class="st0" d="M174.2,65.2v9.5l0,0c5.2,0,9.5-4.2,9.5-9.5l0,0H174.2z"/>
		<rect x="116.9" y="65.2" class="st0" width="25.2" height="9.4"/>
		<rect x="107.6" y="37.7" class="st0" width="9.4" height="27.7"/>
		<path class="st0" d="M117.2,65.1v9.6l0,0c-5.3,0-9.6-4.3-9.6-9.6l0,0H117.2z"/>
		<path class="st1" d="M77,45.1c0,1.4,1.1,2.5,2.5,2.5h122.6c1.4,0,2.5-1.1,2.5-2.5s-1.1-2.5-2.5-2.5H79.5
			C78.1,42.5,77,43.7,77,45.1"/>
		<path class="st2" d="M77,41c0,1.4,1.1,2.5,2.5,2.5h121.6c1.4,0,2.5-1.1,2.5-2.5s-1.1-2.5-2.5-2.5H79.5C78.1,38.5,77,39.6,77,41"/>
		<path class="st3" d="M117.1,38.4v-9.6l0,0c-5.3,0-9.6,4.3-9.6,9.6l0,0H117.1z"/>
		<rect x="117" y="28.8" class="st3" width="9.3" height="9.6"/>
		<path class="st3" d="M119.4,35.6l6.8,6.8l0,0c3.7-3.7,3.7-9.8,0-13.5l0,0L119.4,35.6z"/>
		<path class="st3" d="M183.8,38.4v-9.6l0,0c-5.3,0-9.6,4.3-9.6,9.6l0,0H183.8z"/>
		<rect x="183.3" y="28.8" class="st3" width="9.6" height="9.6"/>
		<path class="st3" d="M186.1,35.6l6.8,6.8l0,0c3.7-3.7,3.7-9.8,0-13.5l0,0L186.1,35.6z"/>
		<rect x="120.7" y="105.1" class="st4" width="6.8" height="39.2"/>
		<rect x="126.8" y="143.9" class="st4" width="24.2" height="6.7"/>
		<path class="st4" d="M127.4,143.8h-6.8l0,0c0,3.7,3,6.8,6.8,6.8l0,0V143.8z"/>
		<path class="st4" d="M150.8,143.8h6.8l0,0c0,3.7-3,6.8-6.8,6.8l0,0V143.8z"/>
		<rect x="150.8" y="135.4" class="st4" width="6.8" height="8.6"/>
		<rect x="141.5" y="128.7" class="st4" width="9.5" height="6.8"/>
		<path class="st4" d="M150.8,135.5h6.8l0,0c0-3.7-3-6.8-6.8-6.8l0,0V135.5z"/>
		<path class="st4" d="M141.9,135.5L141.9,135.5c-2,0-3.6-1.5-3.6-3.4s1.6-3.4,3.6-3.4l0,0V135.5z"/>
		<path class="st4" d="M160.6,76.3L160.6,76.3c0-9-7.6-16.3-16.9-16.3c-9.3,0-16.9,7.3-16.9,16.3l0,0H160.6z"/>
		<rect x="126.8" y="75" class="st4" width="33.8" height="38.3"/>
		<path class="st3" d="M143.7,94.4c-5.9,0-10.7-4.8-10.7-10.7c0-5.9,4.8-10.7,10.7-10.7s10.7,4.8,10.7,10.7S149.6,94.4,143.7,94.4"
			/>
		<path class="st5" d="M158.7,87.5L158.7,87.5c0-4-3.1-7.3-7-7.3s-7,3.3-7,7.3l0,0H158.7z"/>
		<rect x="144.8" y="86.9" class="st5" width="14" height="17.2"/>
		
			<rect x="117.7" y="90.9" transform="matrix(0.6947 -0.7193 0.7193 0.6947 -33.4758 120.0944)" class="st5" width="14" height="17.2"/>
		<path class="st5" d="M135.4,100.1L135.4,100.1c2.9,2.8,3.1,7.3,0.4,10.1c-2.7,2.8-7.2,2.8-10.1,0l0,0L135.4,100.1z"/>
		<path class="st3" d="M159.9,114.5L159.9,114.5c0-4.7-3.6-8.5-8.1-8.5s-8.1,3.8-8.1,8.5l0,0H159.9z"/>
		<path class="st3" d="M143.5,114.5L143.5,114.5c0-4.7-3.6-8.5-8.1-8.5s-8.1,3.8-8.1,8.5l0,0H143.5z"/>
		<path class="st5" d="M127.1,60.3c-4.5,0-8.1-3.6-8.1-8.1s3.6-8.1,8.1-8.1c4.5,0,8.1,3.6,8.1,8.1S131.6,60.3,127.1,60.3"/>
		<path class="st5" d="M159.6,60.3c-4.5,0-8.1-3.6-8.1-8.1s3.6-8.1,8.1-8.1s8.1,3.6,8.1,8.1C167.7,56.7,164,60.3,159.6,60.3"/>
		<path class="st3" d="M160.5,56.7c-2.4,0-4.4-2-4.4-4.4s2-4.4,4.4-4.4s4.4,2,4.4,4.4C164.8,54.7,162.9,56.7,160.5,56.7"/>
		<path class="st3" d="M127.6,56.7c-2.4,0-4.4-2-4.4-4.4s2-4.4,4.4-4.4s4.4,2,4.4,4.4S130,56.7,127.6,56.7"/>
		<path class="st0" d="M144,70.3c-9.4,0-16.9-7.6-16.9-16.9c0-9.4,7.6-16.9,16.9-16.9c9.4,0,16.9,7.6,16.9,16.9
			C161,62.7,153.4,70.3,144,70.3"/>
		<path class="st3" d="M135.5,58.9c-4.1,0-7.4-3.3-7.4-7.4s3.3-7.4,7.4-7.4c4.1,0,7.4,3.3,7.4,7.4S139.6,58.9,135.5,58.9"/>
		<path class="st3" d="M152.6,58.9c-4.1,0-7.4-3.3-7.4-7.4s3.3-7.4,7.4-7.4c4.1,0,7.4,3.3,7.4,7.4S156.6,58.9,152.6,58.9"/>
		<path class="st6" d="M152.7,55.3c-2.1,0-3.7-1.7-3.7-3.8s1.7-3.8,3.7-3.8c2.1,0,3.7,1.7,3.7,3.8S154.7,55.3,152.7,55.3"/>
		<path class="st6" d="M135,55.3c-2.1,0-3.7-1.7-3.7-3.8s1.7-3.8,3.7-3.8c2.1,0,3.7,1.7,3.7,3.8S137,55.3,135,55.3"/>
		<path class="st7" d="M133.4,51.7c-0.9,0-1.7-0.8-1.7-1.7s0.8-1.7,1.7-1.7s1.7,0.8,1.7,1.7C135.1,51,134.4,51.7,133.4,51.7"/>
		<path class="st7" d="M151.2,51.7c-0.9,0-1.7-0.8-1.7-1.7s0.8-1.7,1.7-1.7s1.7,0.8,1.7,1.7C152.9,51,152.1,51.7,151.2,51.7"/>
		<path class="st7" d="M143.7,68.9c-4.7,0-8.5-3.8-8.5-8.5s3.8-8.5,8.5-8.5s8.5,3.8,8.5,8.5C152.3,65.1,148.4,68.9,143.7,68.9"/>
		<polyline class="st8" points="142.5,58.2 143.8,59.7 145.1,58.2 		"/>
		<path class="st5" d="M158.7,103.7L158.7,103.7c0,4-3.1,7.3-7,7.3s-7-3.3-7-7.3l0,0H158.7z"/>
		<path class="st5" d="M123.8,88.8L123.8,88.8c-2.9-2.8-7.4-2.8-10.1,0s-2.5,7.3,0.4,10.1l0,0L123.8,88.8z"/>
		<g>
			<path class="st9" d="M207.4,117.7L207.4,117.7c0,0,0.3-0.1,0.8-0.1c2.7-0.5,6.1,1.9,6.7,5.4l0,0c0,0-0.3,0.1-0.8,0.1
				C211.4,123.5,208.1,121.2,207.4,117.7"/>
			<path class="st10" d="M213.3,113.9L213.3,113.9c0,0,0.3,0.2,0.7,0.5c2.3,1.6,3,5.6,0.9,8.5l0,0c0,0-0.3-0.2-0.6-0.5
				C212,120.9,211.3,116.9,213.3,113.9"/>
			<path class="st11" d="M217,134.9c3.3-0.6,5.5-3.7,4.9-7.1c-0.6-3.3-3.7-5.5-7.1-4.9c-3.3,0.6-5.5,3.7-4.9,7.1
				C210.5,133.3,213.7,135.5,217,134.9"/>
			<path class="st12" d="M216,128.9l-3.5,5c1.3,0.9,2.9,1.3,4.6,1c1.7-0.3,3-1.2,3.9-2.5L216,128.9z"/>
			<path class="st13" d="M216,128.9l-5-3.5c-0.9,1.3-1.3,2.9-1,4.6c0.3,1.7,1.2,3,2.5,3.9L216,128.9z"/>
			<path class="st12" d="M216,128.9l3.5-5c-1.3-0.9-2.9-1.3-4.6-1c-1.7,0.3-3,1.2-3.9,2.5L216,128.9z"/>
			<path class="st12" d="M217.3,136.1l-4.7-2.2c0.9-1.3,2.2-2.2,3.8-2.5c1.7-0.3,3.3,0.1,4.6,1L217.3,136.1z"/>
		</g>
		<path class="st14" d="M132,76.6L132,76.6c0,0-1.3,1.4-2.8,3.1c-7.4,8.4-6.3,26.1,5.2,36.3l0,0c0,0,1.2-1.4,2.8-3.1
			C144.6,104.5,143.6,86.8,132,76.6"/>
		<path class="st10" d="M132.2,76.6L132.2,76.6L132.2,76.6L132.2,76.6c0.1,0,1.5,1.2,3.2,2.7c8.4,7.4,9.5,25.1,2.1,33.5
			c-1.5,1.7-2.8,3.1-2.8,3.1l0,0l-0.1-0.1c0,0-0.1-1.9-0.3-4.2L132.2,76.6z"/>
		<path class="st14" d="M104.3,90.8L104.3,90.8c0,0,0.2,1.9,0.4,4.2c1.1,11.2,14.7,22.4,30.1,20.9l0,0c0,0-0.2-1.9-0.4-4.2
			C133.3,100.6,119.6,89.4,104.3,90.8"/>
		<path class="st10" d="M104.4,90.7L104.4,90.7L104.4,90.7L104.4,90.7c0-0.1,1.9-0.3,4.2-0.5c11.2-1.1,24.8,10.2,25.9,21.3
			c0.2,2.3,0.4,4.2,0.4,4.2l0,0h-0.1c0,0-1.5-1.2-3.3-2.7L104.4,90.7z"/>
		<path class="st14" d="M197.3,75.8L197.3,75.8c0,0,2.1,0.5,4.6,1.2c12.4,3.2,22.6,20.6,18.2,37.6l0,0c0,0-2.1-0.5-4.6-1.2
			C203.1,110.2,192.9,92.8,197.3,75.8"/>
		<path class="st10" d="M197.1,75.9L197.1,75.9C197.1,75.9,197,75.9,197.1,75.9C197,75.9,197,75.9,197.1,75.9
			c-0.1,0-0.6,2.1-1.3,4.6c-3.2,12.4,7,29.8,19.4,33c2.6,0.7,4.6,1.2,4.6,1.2l0,0v-0.1c0,0-1.1-1.9-2.4-4.1L197.1,75.9z"/>
		<path class="st14" d="M219.8,114.7L219.8,114.7c0,0,2.1,0.6,4.6,1.3c12.3,3.4,29.9-6.5,34.6-23.5l0,0c0,0-2.1-0.6-4.6-1.3
			C242.1,87.8,224.5,97.8,219.8,114.7"/>
		<path class="st10" d="M219.8,114.5C219.7,114.5,219.7,114.5,219.8,114.5C219.7,114.5,219.7,114.5,219.8,114.5
			C219.7,114.5,219.7,114.5,219.8,114.5c-0.1,0,0.5-2.1,1.2-4.6c3.4-12.3,21-22.3,33.3-18.9c2.5,0.7,4.6,1.3,4.6,1.3l0,0v0.1
			c0,0-1.9,1.1-4.2,2.4L219.8,114.5z"/>
		<path class="st14" d="M232.6,71.6L232.6,71.6c0,0,1,1.9,2.3,4.2c6.1,11.3,0.4,30.6-15.1,39l0,0c0,0-1-1.9-2.3-4.2
			C211.4,99.3,217.1,80,232.6,71.6"/>
		<path class="st10" d="M232.4,71.6C232.3,71.5,232.3,71.5,232.4,71.6C232.3,71.5,232.3,71.5,232.4,71.6
			C232.3,71.5,232.3,71.5,232.4,71.6c-0.1-0.1-1.9,1-4.3,2.2c-11.3,6.1-17,25.4-10.9,36.7c1.3,2.3,2.3,4.2,2.3,4.2l0,0
			c0,0,0.1,0,0.1-0.1c0,0,0.6-2.1,1.4-4.6L232.4,71.6z"/>
		<path class="st14" d="M187.4,137.2L187.4,137.2c0,0,1.9,0.5,4.2,1.2c11.1,3.1,27-5.9,31.2-21.2l0,0c0,0-1.9-0.5-4.2-1.2
			C207.5,112.9,191.7,121.9,187.4,137.2"/>
		<path class="st10" d="M187.4,137C187.3,137,187.3,137,187.4,137C187.3,137,187.3,137,187.4,137C187.3,137,187.3,137,187.4,137
			c-0.1,0,0.4-1.9,1.1-4.2c3.1-11.1,18.9-20.1,30.1-17c2.3,0.6,4.2,1.1,4.2,1.2l0,0v0.1c0,0-1.7,1-3.8,2.1L187.4,137z"/>
		<path class="st14" d="M222.6,116.9L222.6,116.9c0,0,1.9,0.5,4.2,1.1c11.2,2.9,20.4,18.6,16.5,34l0,0c0,0-1.9-0.5-4.2-1.1
			C227.9,148,218.7,132.3,222.6,116.9"/>
		<path class="st10" d="M222.5,117L222.5,117C222.5,117,222.4,117,222.5,117C222.4,117,222.4,117,222.5,117c-0.1,0-0.6,1.9-1.2,4.2
			c-2.9,11.2,6.3,26.9,17.5,29.8c2.3,0.6,4.2,1.1,4.2,1.1l0,0V152c0,0-1-1.7-2.2-3.7L222.5,117z"/>
		<path class="st14" d="M213.1,156.4L213.1,156.4c0,0,1.7-1,3.7-2.2c9.9-6.1,14.1-23.8,5.8-37.3l0,0c0,0-1.6,1-3.7,2.3
			C209.1,125.2,204.8,142.9,213.1,156.4"/>
		<path class="st10" d="M213,156.3C212.9,156.3,212.9,156.4,213,156.3C212.9,156.4,212.9,156.4,213,156.3
			C212.9,156.4,212.9,156.4,213,156.3c-0.1,0-1.1-1.6-2.3-3.7c-6-9.9-1.8-27.6,8.1-33.6c2-1.2,3.7-2.3,3.7-2.3l0,0v0.1
			c0,0-0.4,1.9-1,4.2L213,156.3z"/>
		<path class="st14" d="M141.3,119.1L141.3,119.1c0,0,0.7,1.8,1.6,4c4.3,10.7-2.8,27.5-17.5,33.4l0,0c0,0-0.7-1.8-1.6-4
			C119.4,141.8,126.5,125.1,141.3,119.1"/>
		<path class="st10" d="M141.1,119.1L141.1,119.1C141.1,119,141.1,119,141.1,119.1C141.1,119,141.1,119,141.1,119.1
			c0-0.1-1.8,0.7-4,1.5c-10.7,4.3-17.8,21.1-13.5,31.8c0.9,2.2,1.6,4,1.6,4l0,0h0.1c0,0,0.8-1.8,1.7-4L141.1,119.1z"/>
		<path class="st14" d="M103.9,135L103.9,135c0,0,1.8,0.7,4,1.6c10.7,4.3,27.5-2.8,33.4-17.5l0,0c0,0-1.8-0.7-4-1.6
			C126.6,113.1,109.8,120.2,103.9,135"/>
		<path class="st10" d="M103.8,134.8L103.8,134.8L103.8,134.8L103.8,134.8c-0.1,0,0.7-1.8,1.5-4c4.3-10.7,21.1-17.8,31.8-13.5
			c2.2,0.9,4,1.6,4,1.6l0,0v0.1c0,0-1.8,0.8-4,1.7L103.8,134.8z"/>
		<path class="st1" d="M1.2,120.5c0,1.5,1.2,2.7,2.7,2.7h241.8c1.5,0,2.7-1.2,2.7-2.7s-1.2-2.7-2.7-2.7H3.8
			C2.4,117.8,1.2,119,1.2,120.5"/>
		<path class="st2" d="M1.7,116.2c0,1.5,1.2,2.7,2.7,2.7h233.4c1.5,0,2.7-1.2,2.7-2.7s-1.2-2.7-2.7-2.7H4.4
			C2.9,113.5,1.7,114.7,1.7,116.2"/>
		<path class="st14" d="M132.1,0L132.1,0c0,0-1.3,1.4-2.8,3.1c-7.4,8.4-6.3,26.1,5.2,36.3l0,0c0,0,1.2-1.4,2.8-3.1
			C144.8,27.9,143.7,10.2,132.1,0"/>
		<path class="st10" d="M132.3,0.1C132.3,0,132.3,0,132.3,0.1C132.4,0,132.4,0,132.3,0.1C132.4,0,132.4,0,132.3,0.1
			c0.1,0,1.5,1.2,3.2,2.7c8.4,7.4,9.5,25.1,2.1,33.5c-1.5,1.7-2.8,3.1-2.8,3.1l0,0l-0.1-0.1c0,0-0.1-1.9-0.3-4.2L132.3,0.1z"/>
		<path class="st14" d="M104.4,14.3L104.4,14.3c0,0,0.2,1.9,0.4,4.2c1.1,11.2,14.7,22.4,30.1,20.9l0,0c0,0-0.2-1.9-0.4-4.2
			C133.4,24,119.8,12.8,104.4,14.3"/>
		<path class="st10" d="M104.5,14.2C104.5,14.1,104.5,14.1,104.5,14.2C104.5,14.1,104.5,14.1,104.5,14.2
			C104.5,14.1,104.5,14.1,104.5,14.2c0-0.1,1.9-0.3,4.2-0.5c11.2-1.1,24.8,10.2,25.9,21.3c0.2,2.3,0.4,4.2,0.4,4.2l0,0h-0.1
			c0,0-1.5-1.2-3.3-2.7L104.5,14.2z"/>
		<path class="st15" d="M221.8,106.7c-0.5,0.1-1-0.2-1.1-0.7s0.3-1,0.8-1.1s1,0.2,1.1,0.7C222.7,106.1,222.4,106.6,221.8,106.7"/>
		<path class="st16" d="M221.7,106.1c-0.2,0-0.4-0.1-0.4-0.3c0-0.2,0.1-0.4,0.3-0.4s0.4,0.1,0.4,0.3
			C222.1,105.9,222,106.1,221.7,106.1"/>
		<path class="st15" d="M225.6,106c-0.5,0.1-1-0.2-1.1-0.7s0.3-1,0.8-1.1s1,0.2,1.1,0.7S226.1,105.9,225.6,106"/>
		<path class="st16" d="M225.5,105.5c-0.2,0-0.4-0.1-0.4-0.3c0-0.2,0.1-0.4,0.3-0.4s0.4,0.1,0.4,0.3S225.7,105.4,225.5,105.5"/>
		<path class="st15" d="M223.3,103.7c-0.5,0.1-1-0.2-1.1-0.7s0.3-1,0.8-1.1s1,0.2,1.1,0.7S223.8,103.6,223.3,103.7"/>
		<path class="st16" d="M223.2,103.1c-0.2,0-0.4-0.1-0.4-0.3c0-0.2,0.1-0.4,0.3-0.4s0.4,0.1,0.4,0.3S223.4,103.1,223.2,103.1"/>
		<path class="st7" d="M228.9,107.3L228.9,107.3c-2.7,0.5-4.5,2.8-4.1,5.1c0.4,2.4,2.9,3.9,5.6,3.4l0,0L228.9,107.3z"/>
		<path class="st7" d="M219.1,109L219.1,109c2.7-0.5,5.2,1.1,5.6,3.4c0.4,2.4-1.4,4.7-4.1,5.1l0,0L219.1,109z"/>
		<path class="st17" d="M229.5,115.8L229.5,115.8c0.4,2.1-1.1,4.2-3.4,4.6c-2.2,0.4-4.4-1-4.7-3.2l0,0L229.5,115.8z"/>
		<path class="st18" d="M215.1,114.5L215.1,114.5c0,0,0.5,0.8,1.1,1.7c1.1,1.7,5.8,2.7,9.3,0.5l0,0c0,0-0.5-0.8-1.1-1.7
			C223.3,113.2,218.6,112.2,215.1,114.5"/>
		<path class="st18" d="M234.5,111L234.5,111c0,0-0.2,0.9-0.5,2c-0.5,2-4.5,4.5-8.5,3.6l0,0c0,0,0.2-0.9,0.5-2
			C226.5,112.6,230.5,110.1,234.5,111"/>
		<path class="st14" d="M63,9.6C63,9.6,62.9,9.6,63,9.6c0,0-0.6,1.8-1.3,4c-3.3,10.7,4.9,26.4,19.6,31l0,0c0,0,0.6-1.8,1.2-4
			C85.9,29.9,77.7,14.2,63,9.6"/>
		<path class="st10" d="M63.1,9.6C63.1,9.6,63.1,9.5,63.1,9.6C63.1,9.5,63.1,9.5,63.1,9.6C63.1,9.5,63.1,9.5,63.1,9.6
			c0-0.1,1.8,0.5,4,1.2c10.7,3.3,18.9,19,15.6,29.7c-0.7,2.2-1.2,4-1.2,4l0,0h-0.1c0,0-0.9-1.7-2-3.7L63.1,9.6z"/>
		<path class="st14" d="M43.5,34L43.5,34c0,0,0.9,1.6,2.1,3.6c5.6,9.7,22.6,14.4,36,6.8l0,0c0,0-0.9-1.6-2.1-3.6
			C73.9,31,56.9,26.3,43.5,34"/>
		<path class="st10" d="M43.6,33.8C43.6,33.8,43.5,33.8,43.6,33.8C43.5,33.8,43.5,33.8,43.6,33.8C43.5,33.8,43.5,33.8,43.6,33.8
			c0-0.1,1.6-1,3.6-2.1c9.8-5.6,26.8-0.9,32.4,8.8c1.1,2,2.1,3.6,2.1,3.6l0,0h-0.1c0,0-1.8-0.5-4.1-1.1L43.6,33.8z"/>
	</g>
</g>
</svg>
