<?xml version="1.0" encoding="utf-8"?>
<!-- Generator: Adobe Illustrator 26.5.0, SVG Export Plug-In . SVG Version: 6.00 Build 0)  -->
<svg version="1.1" id="Layer_1" xmlns="http://www.w3.org/2000/svg" xmlns:xlink="http://www.w3.org/1999/xlink" x="0px" y="0px"
	 viewBox="0 0 24 24" style="enable-background:new 0 0 24 24;" xml:space="preserve">
<style type="text/css">
	.st0{fill:#FFFFFF;}
</style>
<g>
	<path class="st0" d="M12,15.6l1.1-1.1l-1.9-1.9h4.6v-1.5h-4.6l1.9-1.9L12,8.3L8.4,12L12,15.6z M12,22c-1.4,0-2.7-0.3-3.9-0.8
		c-1.2-0.5-2.3-1.2-3.2-2.1s-1.6-2-2.2-3.2S2,13.4,2,12c0-1.4,0.3-2.7,0.8-3.9S4,5.8,4.9,4.9s2-1.6,3.2-2.1S10.6,2,12,2
		c1.4,0,2.7,0.3,3.9,0.8s2.3,1.2,3.2,2.1c0.9,0.9,1.6,2,2.1,3.2C21.7,9.3,22,10.6,22,12c0,1.4-0.3,2.7-0.8,3.9
		c-0.5,1.2-1.2,2.3-2.1,3.2c-0.9,0.9-2,1.6-3.2,2.1C14.7,21.7,13.4,22,12,22z M12,20.5c2.4,0,4.4-0.8,6-2.5c1.7-1.7,2.5-3.7,2.5-6
		c0-2.4-0.8-4.4-2.5-6c-1.6-1.6-3.7-2.5-6-2.5C9.7,3.5,7.6,4.3,6,6s-2.5,3.7-2.5,6c0,2.3,0.8,4.4,2.5,6C7.6,19.7,9.7,20.5,12,20.5z"
		/>
</g>
</svg>
