<?xml version="1.0" encoding="UTF-8" standalone="no"?>
<svg
   height="24"
   width="24"
   version="1.1"
   id="svg6"
   sodipodi:docname="ico_reload.svg"
   inkscape:version="1.2.1 (9c6d41e410, 2022-07-14)"
   xmlns:inkscape="http://www.inkscape.org/namespaces/inkscape"
   xmlns:sodipodi="http://sodipodi.sourceforge.net/DTD/sodipodi-0.dtd"
   xmlns="http://www.w3.org/2000/svg"
   xmlns:svg="http://www.w3.org/2000/svg">
  <defs
     id="defs10" />
  <sodipodi:namedview
     id="namedview8"
     pagecolor="#ffffff"
     bordercolor="#666666"
     borderopacity="1.0"
     inkscape:showpageshadow="2"
     inkscape:pageopacity="0.0"
     inkscape:pagecheckerboard="0"
     inkscape:deskcolor="#d1d1d1"
     showgrid="false"
     inkscape:zoom="8.1169966"
     inkscape:cx="-4.3119397"
     inkscape:cy="20.574112"
     inkscape:window-width="1366"
     inkscape:window-height="705"
     inkscape:window-x="-8"
     inkscape:window-y="-8"
     inkscape:window-maximized="1"
     inkscape:current-layer="svg6" />
  <style
     id="style2">
.bg { fill: #ffffff; }
</style>
  <path
     class="bg"
     d="M 4.6620179,15.8111 Q 4.1452586,14.880933 3.9385548,13.937848 3.7318511,12.994762 3.7318511,12.012919 q 0,-3.3847735 2.4416878,-5.8264613 Q 8.6152269,3.7447702 12,3.7447702 h 1.111033 L 11.043995,1.6777329 12.051676,0.67005221 15.901533,4.5199091 12.051676,8.3697658 11.018157,7.3362472 13.059357,5.2950481 H 12 q -2.7646621,0 -4.7412661,1.9766042 -1.9766048,1.9766044 -1.9766048,4.7412667 0,0.749301 0.1421088,1.421088 0.1421088,0.671787 0.3488125,1.266061 z m 7.2346301,7.518848 -3.8498571,-3.849857 3.8498571,-3.849857 1.007681,1.007681 -2.067037,2.067037 H 12 q 2.764663,0 4.741267,-1.976604 1.976604,-1.976604 1.976604,-4.741267 0,-0.749301 -0.12919,-1.421088 -0.129189,-0.6717872 -0.387569,-1.2660604 l 1.111033,-1.1110325 q 0.516759,0.9301667 0.736382,1.8732529 0.219622,0.943086 0.219622,1.924928 0,3.384774 -2.441688,5.826462 Q 15.384774,20.25523 12,20.25523 h -1.162708 l 2.067037,2.067038 z"
     id="path4"
     style="stroke-width:0.516759" />
</svg>
